<?xml version="1.0" standalone="no"?>
<!DOCTYPE svg PUBLIC "-//W3C//DTD SVG 20010904//EN"
 "http://www.w3.org/TR/2001/REC-SVG-20010904/DTD/svg10.dtd">
<svg version="1.0" xmlns="http://www.w3.org/2000/svg"
 width="802.000000pt" height="802.000000pt" viewBox="0 0 802.000000 802.000000"
 preserveAspectRatio="xMidYMid meet">
<metadata>
Created by potrace 1.14, written by Peter Selinger 2001-2017
</metadata>
<g transform="translate(0.000000,802.000000) scale(0.100000,-0.100000)"
fill="#000000" stroke="none">
<path d="M3392 8011 c-24 -4 -54 -7 -68 -6 -13 0 -24 -2 -24 -5 0 -3 -12 -7
-27 -8 -16 -1 -39 -5 -53 -8 -14 -3 -34 -7 -45 -9 -11 -3 -29 -7 -40 -9 -106
-21 -426 -145 -455 -176 -3 -3 -16 -11 -30 -18 -14 -7 -34 -18 -45 -25 -63
-38 -101 -62 -105 -67 -3 -3 -28 -22 -57 -42 -155 -110 -359 -327 -469 -498
-81 -128 -193 -362 -209 -440 -2 -8 -4 -16 -5 -17 -2 -2 -4 -7 -5 -13 -1 -5
-4 -12 -5 -15 -1 -3 -3 -8 -4 -12 -1 -5 -7 -26 -14 -47 -6 -22 -9 -43 -6 -48
3 -4 1 -8 -4 -8 -5 0 -9 -6 -10 -12 -1 -14 -8 -58 -17 -100 -19 -94 -27 -236
-28 -474 l-1 -212 -147 1 c-80 0 -151 -3 -157 -7 -6 -3 -13 -2 -17 4 -8 13
-28 2 -86 -44 -24 -20 -55 -44 -67 -53 -13 -10 -32 -27 -43 -37 -10 -11 -19
-16 -19 -11 0 5 -6 2 -13 -7 -6 -8 -106 -89 -222 -179 -116 -89 -236 -183
-268 -208 -33 -26 -69 -53 -80 -61 -12 -8 -29 -21 -37 -30 -8 -8 -51 -42 -95
-75 -44 -33 -85 -64 -91 -70 -12 -10 -37 -30 -109 -85 -120 -93 -137 -108
-131 -118 2 -4 27 -63 56 -132 28 -69 57 -138 64 -155 8 -16 35 -82 61 -145
50 -122 53 -129 84 -202 12 -26 21 -49 21 -53 0 -3 9 -24 19 -48 41 -88 101
-241 101 -254 0 -7 3 -13 8 -13 4 0 12 -17 19 -37 6 -21 22 -60 34 -88 13 -27
24 -52 24 -55 1 -3 7 -18 14 -35 75 -182 106 -256 122 -290 10 -22 25 -58 33
-80 8 -22 44 -110 80 -195 36 -85 66 -161 66 -167 0 -7 5 -13 12 -13 6 0 9 -3
6 -6 -4 -3 2 -24 12 -47 26 -59 51 -122 51 -124 -1 -2 8 -19 19 -38 11 -20 20
-42 20 -50 0 -8 5 -15 10 -15 6 0 10 -5 10 -12 0 -31 143 -222 238 -317 l103
-103 -5 -57 c-3 -31 -7 -67 -10 -81 -4 -22 -11 -71 -32 -220 -2 -19 -6 -42 -9
-50 -2 -8 -7 -40 -10 -70 -3 -30 -8 -66 -10 -80 -2 -14 -6 -43 -9 -65 -11 -76
-19 -130 -22 -150 -2 -11 -6 -40 -9 -65 -3 -25 -8 -54 -10 -65 -2 -11 -7 -42
-10 -70 -4 -27 -9 -61 -11 -75 -6 -33 -14 -96 -19 -145 -2 -22 -4 -40 -5 -40
-2 0 -17 -89 -24 -150 -12 -97 -18 -137 -29 -199 -12 -68 -12 -69 -56 -86
-164 -64 -191 -276 -47 -379 39 -28 58 -35 104 -36 32 -2 72 2 91 7 33 9 138
104 127 115 -3 3 -1 12 5 19 27 33 8 154 -34 208 -13 18 -12 24 14 68 16 27
29 53 29 58 0 6 5 10 10 10 6 0 10 5 10 11 0 6 24 52 54 103 30 50 67 114 83
143 15 28 66 118 113 200 46 81 89 157 95 168 13 24 48 85 100 175 20 36 53
94 73 130 19 36 43 76 52 90 10 14 28 45 40 70 12 25 28 48 34 52 6 4 7 8 2 8
-5 0 -3 7 4 15 17 20 59 95 67 117 3 10 13 18 22 19 9 0 136 0 284 0 l267 0
27 -33 c71 -87 256 -249 303 -266 8 -3 22 -11 30 -17 16 -13 109 -62 170 -88
71 -32 172 -62 275 -82 81 -15 181 -19 545 -18 318 0 412 3 485 16 221 40 444
141 608 277 45 37 159 151 184 183 l22 28 278 1 278 1 32 -54 c18 -30 37 -59
43 -66 5 -7 10 -14 10 -17 0 -5 42 -79 319 -566 65 -113 120 -212 124 -220 4
-8 21 -37 37 -65 17 -27 36 -61 43 -75 6 -14 14 -27 18 -30 7 -6 29 -46 56
-102 10 -21 21 -38 25 -38 5 0 8 -4 8 -8 0 -5 23 -49 50 -98 43 -76 48 -91 35
-100 -46 -34 -61 -152 -28 -224 40 -88 113 -131 213 -126 120 6 206 108 202
238 -1 24 -36 99 -58 124 -20 22 -78 56 -103 60 -22 4 -29 16 -35 59 -3 22 -7
49 -9 60 -3 11 -8 47 -12 80 -12 96 -13 100 -31 217 -3 18 -6 44 -8 58 -2 14
-6 43 -10 65 -4 22 -9 58 -11 80 -2 22 -6 51 -9 65 -6 33 -16 107 -21 150 -2
19 -7 51 -11 70 -8 40 -9 45 -18 120 -12 92 -25 184 -31 220 -2 14 -7 45 -10
70 -3 25 -8 56 -11 70 -2 14 -6 43 -9 65 -2 22 -7 51 -10 65 -3 14 -6 40 -7
58 -1 17 -4 32 -8 32 -4 0 -4 15 -2 33 4 30 61 97 83 97 5 0 9 3 9 8 0 4 26
34 56 67 114 122 180 229 266 425 43 98 41 93 52 132 5 16 12 28 17 28 5 0 8
3 7 8 -2 9 12 45 45 122 9 19 31 73 50 120 19 47 54 130 77 185 23 55 42 106
43 113 0 6 4 12 9 12 4 0 8 7 8 15 0 8 4 23 9 33 6 9 22 46 37 82 15 36 36 85
47 110 11 25 20 50 21 55 2 6 10 28 20 50 10 22 42 99 71 171 29 72 63 152 74
177 12 25 21 52 21 59 0 8 5 19 12 26 6 6 13 18 14 26 1 7 9 29 17 47 9 19 39
90 67 159 28 69 59 141 68 160 9 19 17 40 18 45 1 10 26 69 59 139 13 28 11
56 -4 56 -4 0 -16 8 -27 18 -34 30 -116 95 -179 142 -33 25 -65 50 -71 55 -6
6 -26 21 -44 35 -18 14 -69 54 -114 89 -109 85 -125 98 -241 188 -55 42 -102
80 -105 83 -3 3 -32 25 -65 50 -33 25 -69 53 -80 62 -11 10 -74 59 -140 110
-66 50 -126 98 -133 105 -15 15 -5 14 -213 15 l-156 0 0 227 c-1 283 -8 371
-43 535 -25 112 -80 287 -110 346 -11 21 -20 46 -20 55 0 8 -4 15 -10 15 -5 0
-10 9 -10 19 0 11 -3 21 -7 23 -5 2 -19 26 -33 53 -14 28 -52 90 -85 139 -33
48 -64 95 -70 104 -5 8 -17 23 -25 32 -8 9 -33 38 -55 64 -65 77 -124 135
-221 215 -120 99 -135 111 -161 124 -13 5 -23 14 -23 19 0 4 -4 8 -10 8 -5 0
-33 15 -62 33 -103 65 -337 167 -439 191 -8 2 -44 11 -80 20 -35 8 -75 17 -89
20 -72 12 -98 17 -125 23 -41 9 -1239 12 -1293 4z m-1774 -6074 c61 -31 112
-55 112 -52 0 2 19 -4 43 -14 47 -20 131 -42 204 -55 24 -4 22 -13 -17 -80
-22 -38 -40 -72 -40 -76 0 -5 -6 -15 -13 -22 -7 -7 -18 -24 -25 -38 -6 -14
-25 -47 -41 -75 -16 -27 -44 -78 -62 -112 -18 -35 -36 -63 -41 -63 -4 0 -8 -4
-8 -9 0 -4 -19 -41 -41 -82 -23 -41 -55 -99 -72 -129 -17 -30 -59 -104 -94
-164 -35 -60 -63 -113 -63 -117 0 -5 -4 -9 -10 -9 -5 0 -9 -3 -8 -7 1 -5 -5
-19 -14 -33 -8 -14 -41 -70 -71 -125 -31 -55 -63 -109 -71 -120 -15 -19 -15
-19 -11 5 8 45 23 147 30 200 2 19 7 51 10 70 4 19 8 49 10 65 3 31 15 118 20
146 2 9 6 40 10 69 4 29 8 60 10 69 3 19 20 133 30 201 5 40 19 137 21 155 1
11 3 20 4 20 2 0 5 20 14 95 3 30 8 66 10 80 5 26 15 92 21 125 6 44 18 141
18 154 0 11 2 11 11 -1 6 -8 62 -40 124 -71z m4936 13 c3 -25 8 -56 10 -70 3
-14 7 -43 10 -65 12 -106 23 -180 26 -180 1 0 3 -13 5 -30 5 -50 15 -119 20
-145 2 -14 7 -45 9 -70 3 -25 8 -56 10 -70 3 -14 7 -45 10 -70 4 -25 8 -56 10
-70 3 -14 7 -45 10 -70 3 -25 8 -54 10 -65 3 -19 12 -82 22 -155 6 -44 12 -87
18 -120 2 -14 7 -47 11 -75 12 -95 16 -120 21 -140 l5 -20 -16 20 c-22 27
-235 404 -235 416 0 5 -4 9 -10 9 -5 0 -10 4 -10 9 0 6 -29 60 -65 122 -36 61
-65 113 -65 114 0 2 -20 38 -45 79 -25 42 -45 81 -45 86 0 6 -4 10 -10 10 -5
0 -10 5 -10 11 0 6 -9 24 -21 40 -11 16 -17 29 -13 29 4 0 0 8 -8 18 -8 9 -29
42 -45 72 -17 30 -53 95 -82 143 -28 49 -51 90 -51 92 0 3 53 17 65 16 2 0 19
5 37 10 18 6 40 12 48 14 71 17 291 114 335 148 26 20 32 12 39 -43z"/>
</g>
</svg>
