<?xml version="1.0" encoding="utf-8"?>
<!-- Generator: Adobe Illustrator 28.1.0, SVG Export Plug-In . SVG Version: 6.00 Build 0)  -->
<svg version="1.1" id="Calque_1" xmlns="http://www.w3.org/2000/svg" xmlns:xlink="http://www.w3.org/1999/xlink" x="0px" y="0px"
	 viewBox="0 0 533.5 434" style="enable-background:new 0 0 533.5 434;" xml:space="preserve">
<style type="text/css">
	.st0{fill:url(#SVGID_1_);}
	.st1{fill:#3C3789;}
	.st2{fill:#494294;}
	.st3{opacity:0.75;}
	.st4{opacity:0.7;}
	.st5{opacity:0.35;fill:url(#SVGID_00000128455661588820153360000008613404255398907812_);}
	.st6{opacity:0.55;fill:url(#SVGID_00000096759178065398981800000002457934798236076426_);}
	.st7{fill:url(#SVGID_00000023966977086824912810000015546817150472196744_);}
	.st8{fill:#ECE543;}
	.st9{fill:#6E8B9E;}
	.st10{fill:#BCCBD7;}
	.st11{fill:#839BB3;}
	.st12{fill:#396174;}
	.st13{fill:#90A9BD;}
	.st14{fill:#FFFFFF;}
</style>
<g>
	
		<radialGradient id="SVGID_1_" cx="250.4249" cy="192.7193" r="382.5768" gradientTransform="matrix(-0.7071 0.7071 -0.7071 -0.7071 633.276 235.7949)" gradientUnits="userSpaceOnUse">
		<stop  offset="0" style="stop-color:#67BFB0"/>
		<stop  offset="1" style="stop-color:#593D91"/>
	</radialGradient>
	<path class="st0" d="M63.6,370.5c-5.4-5.4-10.4-10.9-15.1-16.7c-4.6-5.7-8.9-11.6-12.9-17.6c-9.5-14.4-17.1-29.8-22.8-45.6
		c-5.9-16.3-9.7-33.2-11.6-50.3c-1.9-17.4-1.6-35,0.7-52.4c3.2-23.7,10.3-46.9,21.2-68.6c10.1-20.1,23.6-38.9,40.4-55.7
		C86,41.2,112,24.7,139.9,14.1c28.4-10.8,58.6-15.4,88.5-13.8c48,2.5,95.3,20.8,133.4,55c3,2.7,5.9,5.4,8.7,8.3
		c13.5,13.5,24.9,28.4,34.1,44.2c6.9,11.8,12.6,24.1,17,36.7c27,76.4,10,164.8-51.1,226c-50.7,50.7-120.2,71.1-186.1,61.1
		c-10.6-1.6-21.1-4-31.5-7.2c-28.6-8.8-55.6-23.6-79.3-44.4C70.2,376.9,66.9,373.8,63.6,370.5z"/>
	<g>
		<path class="st1" d="M203,72.4c0.2-0.3,0.3-0.5,0.5-0.7c4.5-6.3,12.6,0,17.2,8.1c3.5,6.2,4.9,13.9,2.1,16.8
			c-0.9,0.9-2.1,1.4-3.9,1.2C197.9,96.1,198.9,79.3,203,72.4z"/>
		<path class="st2" d="M139.9,14.1c28.4-10.8,58.6-15.4,88.5-13.8c-1.6,3.6-3.9,7.1-7.3,10.6c-1,1-2,2-3.1,3
			c-28.9,25.3-46.9,9-63.2,7.2c-3.7-0.4-6.5-1.2-8.7-2.1C142.8,17.6,140.9,15.7,139.9,14.1z"/>
		<g class="st3">
			<path class="st2" d="M120.4,60.9c24.6-0.8,42.8-11.3,51.7-1.3c0.6,0.6,1.1,1.4,1.6,2.2c8.1,13.5-28.4,31.3-41.5,41.5
				c-16.2,12.6-28.9,25.3-50.6,9C60,96.1,94.3,61.8,120.4,60.9z"/>
			<path class="st2" d="M68.1,178.2c7.2-13.6,22.2-23.7,31.2-20.1c1.1,0.5,2.2,1.1,3.1,2c8.1,8.1-10.2,28.1-11.7,40.6
				c-1.5,12.2-3.7,22.1-8,27.2c-3.7,4.4-8.9,5.2-16.4,0.8C49.1,218.8,59.9,193.6,68.1,178.2z"/>
			<path class="st2" d="M112.3,343.4c2.5-8.9,6.9-18.7,13.3-15.2c2.7,1.5,5.8,5.3,9.3,12.5c9,18.7,2.2,38.3-8.5,43.7
				c-3.2,1.7-6.9,2-10.5,0.6C95.2,376.8,108.7,356,112.3,343.4z"/>
			<path class="st2" d="M263.9,83.8c0-0.1,0-0.2,0.1-0.3c7.7-26,51.5-28,57.8-18.1c1.1,1.7,1.7,3.1,1.9,4.4
				c1.1,6.5-7.6,9.7-22.7,21.8C283,105.9,259.8,98.9,263.9,83.8z"/>
			<path class="st2" d="M350.6,94.3c0.2-1,0.5-1.9,0.9-2.6c4-7.6,15.4,0.4,25.2,5.3c9.1,4.6,9.3,9.1,5.9,11.5
				c-0.6,0.5-1.4,0.8-2.2,1.1C366.9,114.1,347.9,106,350.6,94.3z"/>
			<path class="st2" d="M2,187.9c3.2-23.7,10.3-46.9,21.2-68.6c1.4,0,2.7,0.2,4,0.5c5.2,1.1,10,4.8,12,13.4
				c4.5,19.4-8.1,24.4-18.1,39.7c-3.7,5.7-7.4,9.4-10.9,11.7C7.2,186.5,4.4,187.5,2,187.9z"/>
			<path class="st2" d="M35.6,336.2c-19.3-29.3-30.7-62.3-34.3-95.9c2.8-0.9,5.7-1.2,8.8-0.7c0.1,0,0.2,0,0.3,0
				c21.7,3.6,19.9,28.9,37,56.9c10.4,16.9,3.2,28.2-4,34.5C40.4,333.5,37.4,335.3,35.6,336.2z"/>
			<path class="st2" d="M63.6,370.5c-5.4-5.4-10.4-10.9-15.1-16.7c1.9-1.5,4.2-2.7,6.8-2.3c0.9,0.1,1.8,0.4,2.8,1
				c8.1,4.5,12.1-4.3,16.2,3.6c4.1,7.7,3.6,14.1,2.1,18.5c-0.8,2.5-2,4.3-2.8,5.5C70.2,376.9,66.9,373.8,63.6,370.5z"/>
			<path class="st2" d="M132.2,153.8C132.1,153.8,132.1,153.8,132.2,153.8c-6.2-10,15-25.6,21.7-28.9c7.2-3.6,28.4-7.6,33.4,4.5
				c1.8,4.3,0.9,7.3-1.5,9.4c-6,5.5-21.8,5.6-28.3,9.5C145.2,155.8,137,161.4,132.2,153.8z"/>
			<path class="st2" d="M257.6,35.6c-0.5-1.7-0.6-3.2-0.3-4.6c1-6.8,9.6-10,19.3-10.8c8.1-0.6,16.2,3.9,16,7.7
				c-0.1,1.7-1.9,3.2-6.1,4.1C273,34.7,260.3,45.5,257.6,35.6z"/>
			<path class="st2" d="M61.4,243.2c0.5-5.5,6.3-6.6,11.1-5.3c1.7,0.4,3.2,1.1,4.3,2c4.5,3.4,4.8,6.2-4,9.1
				c-3.8,1.2-6.6,1.7-8.4,1.2C61.9,249.6,61,247.4,61.4,243.2z"/>
			<path class="st2" d="M92.4,278.4c0.2,0,0.3,0.1,0.5,0.1c9.2,2.9,0.5,13.5,1.3,21.5c0.8,7-0.2,19.1-7.1,19.1c-1.1,0-2.4-0.3-3.8-1
				C65.4,309.1,82.5,275.7,92.4,278.4z"/>
			<path class="st2" d="M60.9,111.4c1.9-1.3,5.6-2.5,11.7,1.4c0.6,0.4,1.2,0.8,1.9,1.3c7.2,5.4,14.4,12.6,10.8,16.2
				c-1.8,1.8-8.1-4.5-20.8-4.5c-1.4,0-2.5-0.4-3.5-1C56.8,122,56.5,114.3,60.9,111.4z"/>
			<path class="st2" d="M120.7,218.1c1.8-1.3,3.9-2.3,6-2.9c14-3.5,22.8,25.3,6.9,27c-0.5,0.1-1,0.1-1.5,0.1
				C107.6,242.3,110.4,225.4,120.7,218.1z"/>
			<path class="st2" d="M203,72.4c2.1,0.1,4.5,0.7,6.8,2c6.5,3.6,11.2,17,12.9,22.3c-0.9,0.9-2.1,1.4-3.9,1.2
				C197.9,96.1,198.9,79.3,203,72.4z"/>
		</g>
		<g class="st4">
			<path class="st1" d="M198.1,95.2c1.8-1.8-4.5-9.9-7.2-9C188.1,87,190.8,102.4,198.1,95.2z"/>
			<path class="st1" d="M149.3,401.3c8.6-7.1-1.8-15.6-11.1-10.3C129,396.4,134.1,413.8,149.3,401.3z"/>
			<path class="st1" d="M32.9,204.4c4.9-4.9,0.9-8.1-7.2-7.2C17.5,198.1,15.7,221.5,32.9,204.4z"/>
			<path class="st1" d="M338.9,104.2c3.6-8.5-5.4-9-11.7-6.3C320.8,100.6,333.5,116.8,338.9,104.2z"/>
			<path class="st1" d="M400.3,133.1c2.9-4.4-4.5-8.1-10.8-3.6C383.1,134,393,143.9,400.3,133.1z"/>
			<path class="st1" d="M164.7,415.6c3.6-5.4-10.8-9-10.8-1.8S161.1,421,164.7,415.6z"/>
			<path class="st1" d="M210.7,147.5c1.8-6.3-10.8-9-15.3-0.9C190.8,154.7,207.1,160.2,210.7,147.5z"/>
		</g>
		<g>
			<path class="st1" d="M61,124.8c-4.2-2.8-4.5-10.5-0.1-13.4c1.9-1.3,5.6-2.5,11.7,1.4C65.5,115,62.4,120.2,61,124.8z"/>
			<g>
				<path class="st1" d="M376.8,97c9.1,4.6,9.3,9.1,5.9,11.5c-3.4-9.1-22.3-14.7-31.1-16.8C355.5,84.1,366.9,92,376.8,97z"/>
				<path class="st1" d="M257.3,31c1-6.8,9.6-10,19.3-10.8c8.1-0.6,16.2,3.9,16,7.7C280.7,20.4,265.5,26.5,257.3,31z"/>
				<path class="st1" d="M263.9,83.8c0-0.1,0-0.2,0.1-0.3c7.7-26,51.5-28,57.8-18.1c1.1,1.7,1.7,3.1,1.9,4.4
					c-5.9-0.9-14.4-1.1-26.3,0.1C278.8,71.8,269,78.3,263.9,83.8z"/>
				<path class="st1" d="M187.2,129.5c1.8,4.3,0.9,7.3-1.5,9.4c-1.1-7.6-5.6-14.3-18.4-13c-19.9,1.9-30.7,18.5-35.3,27.9
					c-6.1-9.9,15.1-25.5,21.7-28.8C161.1,121.3,182.2,117.3,187.2,129.5z"/>
				<path class="st1" d="M81.6,112.3C60,96.1,94.3,61.8,120.4,60.9c24.6-0.8,42.8-11.3,51.7-1.3c-13.7,3.5-38.8,6.7-65.2,13
					C69,81.6,81.6,112.3,81.6,112.3z"/>
				<path class="st1" d="M120.7,218.1c-6.1,10,5.8,19.6,13,24.1c-0.5,0.1-1,0.1-1.5,0.1C107.6,242.3,110.4,225.4,120.7,218.1z"/>
				<path class="st1" d="M66.3,228.8c-17.2-9.9-6.3-35.2,1.8-50.6c7.2-13.6,22.2-23.7,31.2-20.1c-4.4,1.3-10.2,3.6-15,7.5
					c-9,7.2-24.4,29.8-18.1,48.7c3.6,10.9,10.9,13.5,16.4,13.6C79,232.3,73.8,233.1,66.3,228.8z"/>
				<path class="st1" d="M64.3,250.2c-2.4-0.6-3.3-2.8-3-7c0.5-5.5,6.3-6.6,11.1-5.3C66,240.2,64.5,246.2,64.3,250.2z"/>
				<path class="st1" d="M83.4,318.1c-18.1-9-0.9-42.4,9-39.7c0.2,0,0.3,0.1,0.5,0.1c-18.1,21.6-12.4,34.2-5.7,40.6
					C86.1,319.2,84.8,318.8,83.4,318.1z"/>
				<path class="st1" d="M112.3,343.4c2.5-8.9,6.9-18.7,13.3-15.2c-0.7,12.7-14.5,29.8-16,43.2c-1.2,10.7,9.4,12.8,16.8,13
					c-3.2,1.7-6.9,2-10.5,0.6C95.2,376.8,108.7,356,112.3,343.4z"/>
				<path class="st1" d="M146,19c-3.3-1.4-5.1-3.2-6.2-4.9c28.4-10.8,58.6-15.4,88.5-13.8c-1.6,3.6-3.9,7.1-7.3,10.6
					c-8-1.3-18.4-2.2-32-2.4C176.1,8.3,161.3,12.3,146,19z"/>
				<path class="st1" d="M10.2,184.5c-3,2.1-5.9,3.1-8.3,3.4c3.2-23.7,10.3-46.9,21.2-68.6c1.4,0,2.7,0.2,4,0.5
					C16.2,142.9,11.8,170.5,10.2,184.5z"/>
				<path class="st1" d="M35.6,336.2c-19.3-29.3-30.7-62.3-34.3-95.9c2.8-0.9,5.7-1.2,8.8-0.7c-1.7,34.4,25.3,79,33.3,91.5
					C40.4,333.5,37.4,335.3,35.6,336.2z"/>
				<path class="st1" d="M63.6,370.5c-5.4-5.4-10.4-10.9-15.1-16.7c1.9-1.5,4.2-2.7,6.8-2.3c1.1,10.1,14.2,19,21.2,23.1
					c-0.8,2.5-2,4.3-2.8,5.5C70.2,376.9,66.9,373.8,63.6,370.5z"/>
			</g>
		</g>
	</g>
	
		<linearGradient id="SVGID_00000124157829191931110070000017789716056148232332_" gradientUnits="userSpaceOnUse" x1="392.1913" y1="614.0704" x2="228.7858" y2="163.4297" gradientTransform="matrix(-0.7071 0.7071 -0.7071 -0.7071 633.276 235.7949)">
		<stop  offset="0" style="stop-color:#494294"/>
		<stop  offset="1" style="stop-color:#6DBD93;stop-opacity:0.5"/>
	</linearGradient>
	<path style="opacity:0.35;fill:url(#SVGID_00000124157829191931110070000017789716056148232332_);" d="M63.6,370.5
		c-5.4-5.4-10.4-10.9-15.1-16.7c-4.6-5.7-8.9-11.6-12.9-17.6c-19.3-29.3-30.7-62.3-34.3-95.9c-1.9-17.4-1.6-35,0.7-52.4
		c3.2-23.7,10.3-46.9,21.2-68.6c10.1-20.1,23.6-38.9,40.4-55.7C86,41.2,112,24.7,139.9,14.1c28.4-10.8,58.6-15.4,88.5-13.8
		c48,2.5,95.3,20.8,133.4,55C189-32.1-50.2,250.4,153,424.4c-28.6-8.8-55.6-23.6-79.3-44.4C70.2,376.9,66.9,373.8,63.6,370.5z"/>
	
		<linearGradient id="SVGID_00000163049554105492564810000016767077351638757767_" gradientUnits="userSpaceOnUse" x1="289.3279" y1="570.7932" x2="259.5408" y2="230.3659" gradientTransform="matrix(-0.7071 0.7071 -0.7071 -0.7071 633.276 235.7949)">
		<stop  offset="0" style="stop-color:#3C3789"/>
		<stop  offset="1" style="stop-color:#58B35E;stop-opacity:0.2"/>
	</linearGradient>
	<path style="opacity:0.55;fill:url(#SVGID_00000163049554105492564810000016767077351638757767_);" d="M12.8,290.6
		c-5.9-16.3-9.7-33.2-11.6-50.3c-1.9-17.4-1.6-35,0.7-52.4c3.2-23.7,10.3-46.9,21.2-68.6c10.1-20.1,23.6-38.9,40.4-55.7
		C86,41.2,112,24.7,139.9,14.1c28.4-10.8,58.6-15.4,88.5-13.8c48,2.5,95.3,20.8,133.4,55c3,2.7,5.9,5.4,8.7,8.3
		c13.5,13.5,24.9,28.4,34.1,44.2C309.1,74.8,102.1,37.8,12.8,290.6z"/>
	
		<linearGradient id="SVGID_00000154402102960864189920000001609399802979061376_" gradientUnits="userSpaceOnUse" x1="269.7507" y1="57.2821" x2="270.3832" y2="178.0843" gradientTransform="matrix(-0.7071 0.7071 -0.7071 -0.7071 633.276 235.7949)">
		<stop  offset="0" style="stop-color:#CAE8EF"/>
		<stop  offset="1" style="stop-color:#D5ECF3;stop-opacity:0"/>
	</linearGradient>
	<path style="fill:url(#SVGID_00000154402102960864189920000001609399802979061376_);" d="M184.4,431.6c30.9-0.8,108.7-2.1,181.5-90
		c66-79.7,61.8-161,55.7-197.1c27,76.4,10,164.8-51.1,226C319.8,421.2,250.2,441.5,184.4,431.6z"/>
</g>
<g>
	<path class="st8" d="M135.8,180.1c0.8,1.6,0.9,3.1,0.4,4.4c-0.5,1.3-1.1,1.9-1.9,1.8c-1.5-0.3-2.6,0.6-3.2,2.7
		c-0.4,1.1-2,1.4-4.8,0.9c-0.8-0.1-1.3,0.2-1.6,0.9c-0.2,0.7-0.9,1.5-1.9,2.3c-1,0.9-2.1,0.8-3.1-0.2c-1-1.1-2.5-1.6-4.4-1.4
		c-2,0.1-2.3,3-0.9,8.6c1.4,5.6,2.5,8.9,3.4,10c2.8,3.1,5.4,3.8,7.8,2.1c1.4-1,2.3-1.9,2.8-2.8c0.4-0.8,1.1-1.5,1.8-2
		c0.7-0.4,1.6,1.1,2.7,4.4c1,3.3,1.7,5.9,1.9,7.6c0.1,1.8-0.8,2.6-2.7,2.2c-1.9-0.4-3.4-0.2-4.5,0.5c-1.5,1-3.3,1-5.4,0.1
		c-1.7-0.7-3-0.2-4,1.5c-0.9,1.5-0.9,5.1,0,10.9c0.9,5.8,2.3,8.8,4.1,8.9c1.7,0.2,3.3,0.2,4.6,0c1.4-0.1,2.6-1.6,3.6-4.2
		c1.4-3.8,4.7-5.1,9.9-3.8c2.4,0.6,3.1,2.9,2.2,6.9c-0.9,4-1.5,7-1.8,9c-0.5,2.6-2.4,3.9-5.9,3.9c-3.6,0.1-5.3,0.6-5.2,1.7
		c0.1,0.7-0.9,1.2-3.1,1.5c-2.2,0.3-3.7-0.2-4.5-1.5c-1.3-1.6-2.4-0.9-3.5,2c-1,2.9-2.4,2.8-4.1-0.5c-1.1-1.7-2.1-1.9-3-0.6
		c-1,1.3-1.8,2.2-2.5,2.8c-0.8,0.6-2.1,1-3.9,1.2c-1.8,0.2-2.7-1.4-2.6-4.7c-0.1-3.2-0.2-8.3-0.5-15.2c-0.3-6.9,0-12.1,1-15.6
		c1-3.3,0.1-10.4-2.7-21.4c-2.8-10.9-4.1-17.5-4.1-19.8c0-2.2,1-3.6,2.9-4.2c2-0.7,4.1-0.9,6.5-0.8c4.6,0.3,8.7,0.2,12.5-0.3
		c2.3-0.2,3.7-0.6,4.2-1.2c0.5-0.6,1.6-2,3.3-4.1c1.6-2,3.9-1.4,7,1.8C133.9,177.2,134.9,178.5,135.8,180.1"/>
	<path class="st8" d="M176.3,158.6c1.2,0.3,2.1,2.5,2.8,6.7c0.2,1.6-0.3,3.2-1.6,4.7c-1,1.1-1.3,1.9-0.8,2.5
		c0.5,0.6,0.8,1.7,0.8,3.4c0,1.7-0.2,2.6-0.6,2.7c-0.4,0.1-1,0.3-1.7,0.7c-0.9,0.4-1.9,1.1-3.1,2.2c-0.8,0.7-1.6,1.1-2.5,1
		c-0.8,0-1.4,0.3-1.8,0.9c-0.4,0.6-0.6,1.2-0.6,1.6c-0.1,0.5-0.3,1-0.7,1.8c-0.4,0.8-0.3,4.3,0.2,10.5c0.5,6.2,0.9,10.2,1,12
		c0,1.9-0.3,3.3-0.8,4.3c-0.5,1-1,2.2-1.4,3.5c-0.5,1.4-0.5,2.7,0,3.9c0.4,1.2,0.9,2.5,1.3,3.9c0.4,1.5,0.4,3.3,0.2,5.6
		c-0.2,2.3-0.2,4.1,0.1,5.4c0.3,1.4,0.1,2.2-0.5,2.5c-0.6,0.3-1.2,1.1-1.6,2.6c-0.4,1.5-0.5,2.3-0.2,2.5c0.3,0.2,0.2,0.9-0.4,2.2
		c-0.6,1.3-1.1,1.9-1.5,1.8c-0.4-0.1-0.8,0.2-1.3,0.9c-0.6,0.8-0.9,1.5-1.1,2c-0.2,0.5-0.6,0.9-1.4,1.3c-0.8,0.4-1.6,0.9-2.3,1.6
		c-0.8,0.7-1.8,1.4-3.1,2.1c-1.8,0.9-3.1-0.5-4.2-4.1c-0.6-2.1-0.4-4.8,0.9-7.9c0.4-1,0.1-2.1-0.9-3.5s-1.6-2.5-1.9-3.4
		c-0.3-0.7,0.2-2.5,1.6-5.5c0.7-1.6,0.8-4.2,0.4-7.9c-0.3-2-0.1-4,0.7-6.3c0.6-1.6,1.1-6.6,1.5-14.9c0.5-8.3,0.8-13.2,1-14.5
		c0.1-1.3-0.1-2.2-0.7-2.8c-2,0.9-3.4,1.6-4.3,1.9c-0.5,0.3-1.4,1.2-2.7,2.7c-1.6,1.8-2.7,0.9-3.4-2.5c-0.3-0.9-0.3-2.7-0.2-5.4
		c0.1-2.7,0-4.8-0.3-6.4c-0.4-1.9,0.2-4.6,1.6-7.9c0.8-1.8,1.7-2.7,2.9-2.5c1.2,0.2,2.6,0,4.5-0.6c1.8-0.5,7.9-2.1,18.3-4.9
		C172.4,158.5,175,158.4,176.3,158.6"/>
	<path class="st8" d="M193.3,233.6c-1.7-3.4-2.4-5.6-2-6.7c0.3-0.9,1.2-3.4,2.8-7.3c1.5-3.9,2.1-6.4,1.7-7.3
		c-0.5-0.9-0.8-1.3-0.9-1.4c-0.1-0.1-0.1-0.8-0.1-2.3c0-1.4,0-3.1,0-4.9c0.1-1.8,0-3.2-0.2-4.2c-0.2-0.9-0.1-1.5,0.3-1.7
		c0.4-0.2,0.6-0.9,0.7-2.1c0.2-2.1,0.9-4.5,2.1-7.2c0.4-0.8,0.7-2.6,1-5.4c0.1-1.5,0.1-3,0-4.6c-0.1-1.6,0.2-3,0.8-4.4
		c0.5-1.3,0.9-2.1,1.3-2.5c0.4-0.4,0.7-1,1-2.1c0.7-2.9,1-4.7,1-5.4c-0.1-0.9-0.1-2.3,0-4.2c0.1-1.9,0.5-3.3,1.4-4.2
		c1.6-1.3,3.8-2.2,6.6-2.5c1.7-0.2,2.6-0.2,3-0.2c0.3,0,0.9-0.1,1.9-0.4c0.9-0.2,2.1-0.1,3.6,0.2c1.5,0.3,2.6,1.1,3.2,2.5
		c0.5,1.4,0.6,2.3,0.5,3c-0.2,0.6-0.1,1.5,0.2,2.5c0.4,1.1,0.7,1.5,1.1,1.4c0.3-0.1,0.5,0.9,0.4,3.1c-0.1,2.3,0,3.8,0.4,4.5
		c0.4,0.7,0.6,1.7,0.5,2.8c-0.1,1.2-0.3,2.1-0.6,2.8c-0.3,0.6-0.3,1.5,0,2.5c0.2,1.2,0.5,2.1,1,2.8c0.4,0.7,0.5,1.9,0.4,3.4
		c-0.2,1.7,0.1,4.9,0.8,9.6c0.7,4.7,1.2,8,1.5,9.8c0.3,2,0.4,3.5,0.4,4.8c0,1.2,0,2.7,0,4.3c0.1,1.8,0.4,3.5,1,5.1
		c0.6,1.7,1,3.2,1.2,4.6c0.8,4,0.8,6.6,0.2,7.8c-0.5,1.1-1.1,1.4-1.7,1c-0.6-0.4-1.2-0.1-1.8,0.7c-1.3,1.5-2.7,1.8-4,0.9
		c-2.1-1.4-3.7-1.9-4.7-1.8c-2.4,0.6-3.4-0.3-2.7-2.9c0.1-0.9,0.2-2.7,0.2-5.4c0-2.7-0.4-4-1.1-3.8c-0.9,0.2-2.2,0.5-4.1,1.1
		c-1.9,0.6-3,1.4-3.2,2.4c-0.3,1.1-0.4,3.7-0.4,7.9c0,4.2-0.4,6.7-1.2,7.5c-0.8,0.9-1.4,1.3-2,1.4c-0.5,0.1-1,0.6-1.5,1.7
		c-0.7,1.1-1,1.7-0.9,1.9c0.1,0.1-0.6,0.4-2.1,0.6c-1.6,0.3-2.4,0.7-2.3,1c0.1,0.4-0.3,0.9-1.2,1.4c-1.6,1-2.6,1.4-3.1,1.2
		c-0.5-0.1-0.7-0.5-0.6-1.2C193.9,239.3,194,235.1,193.3,233.6 M209.1,197.8c0,1.3,0.1,2.7,0.4,4.1c1.6,0.2,2.6,0,3.2-0.5
		c0.5-0.5,0.7-1.6,0.6-3.2c-0.1-0.9-0.5-3.6-1.3-8C210,194,209,196.6,209.1,197.8"/>
	<path class="st8" d="M257.2,142.9c-0.5,0.1,0.8-0.2,3.7-0.9c1.8-0.4,3.5,1.3,5.1,5.1c0.5,1.6,1.2,2.8,2,3.7c0.8,0.9,1.5,2,2.3,3.5
		c0.8,1.5,0.9,4.3,0.4,8.4c-0.5,4-0.6,7-0.3,9c0.2,2,1.7,6.1,4.6,12.1c2.8,6.1,4.3,7.6,4.5,4.7c0.2-2.8,0.2-6.9-0.1-12.2
		c-0.2-5.3-0.1-9.1,0.4-11.3c0.5-2.2,0.2-5-0.7-8.4c-0.9-3.4-1.3-7.1-1-11c0.2-3.8,0.4-5.8,0.5-5.8c0.1-0.1,1-0.4,2.6-1.2
		c1.6-0.5,4.6-1.3,9-2.3c4.4-1,6.8-0.6,7.2,1c0.3,1.6,0.3,2.7,0.1,3.2c-0.3,0.5,0.1,1.3,1,2.5c0.9,1.3,0.7,4.1-0.5,8.5
		c-1.2,4.4-2,7.6-2.3,9.6c-0.3,2-0.3,3,0,2.9c0.3-0.1,0.8,1.3,1.3,4c0.5,2.7,0.6,4.9,0.1,6.4c-0.4,1.6-0.7,3.4-0.8,5.4
		c-0.2,2.1-0.1,3.7,0.2,4.8c0.3,1.1,0.4,2.8,0.4,5.2c-0.1,2.5-0.2,4.1-0.3,4.8c-0.1,0.7-0.2,3.3-0.3,7.8c-0.2,4.6,0,9.3,0.5,14.1
		c0.5,4.8,0.8,7.6,1,8.6c0.4,2.2-0.3,2.6-2.3,1.3c-0.3-0.1-0.7-0.3-1.3-0.5c-0.6-0.2-1.7,0.3-3.4,1.6c-1.3,1-2.1,1-2.7,0
		c-0.5-1-1-1.4-1.6-1.3c-1.2,0.4-2.3,1.6-3.3,3.8c-0.6,1-1.7,0.2-3.2-2.5c-1.5-2.6-2.6-5.6-3.2-8.9c-0.6-3.2-1.1-4.8-1.4-4.9
		c-0.3-0.1-1,0-2.1,0.2c-1.1,0.4-1.7-1.6-2-5.9c-0.3-4.3-0.6-7.2-1-8.7c-0.3-1.4-0.8-1.8-1.5-1.3s-1.1,0.1-1.5-1.3
		c-0.3-1.4-1.4-5.2-3.3-11.4c-1.8-6.2-2.9-10.1-3.1-11.8c-0.5-3.7-1.5-3.9-3-0.7c-1,2.2-1.2,5.4-0.6,9.7c0.7,4.3,1,7.8,1.1,10.6
		c0,4.8-0.6,10.5-1.6,16.9c-0.3,2.8-0.3,5.4,0,7.7c0.4,2.3,0.7,5.6,0.9,9.9c0.1,4.3-0.2,6.9-0.8,7.8c-0.6,0.8-1.6,1.2-2.9,1.2
		c-1.3-0.2-1.9-0.3-1.7-0.2c0.2,0.1,0,0.8-0.5,2.2c-0.6,1.4-1.1,1.9-1.5,1.4c-0.4-0.5-1.1-0.9-2.2-1.1c-1.7-0.3-3.4,0.3-5,1.7
		c-1.3,1.2-1.8-0.8-1.6-6.1c0.2-5.3,0.6-8.4,1-9.5c0.4-1,0.5-3.9,0.2-8.6c-0.3-4.7-0.6-8.4-0.9-11.2c-0.4-2.7-0.7-5.7-0.7-8.8
		c0-3.2,0.6-5.6,1.9-7.3c1.2-1.7,1.4-4.2,0.6-7.5c-0.8-3.3-1.6-5.6-2.5-6.7c-1.2-1.5-0.6-3.9,1.6-7.2c1.3-1.8,1.8-4.5,1.6-8
		c-0.2-3.5-0.5-5.9-1-7.3c-1.7-4,0.1-6.8,5.6-8.3c3.1-0.8,5.4-1.2,6.7-1C256.9,142.8,257.5,142.9,257.2,142.9"/>
	<path class="st8" d="M135.8,271.7c0.5-1.1,1.2-1.9,2.1-2.3c0.9-0.4,1.9-1,2.9-1.8c0.7-0.5,1.4-1.5,2.2-3c0.7-1.5,1.6-2.4,2.5-2.6
		c0.9-0.2,3.2,0.5,6.9,2.2c0.9,0.4,1.7,0.7,2.6,0.8c0.8,0.2,1.7,0.5,2.5,1.1c1.5,0.1,1.7,1.4,0.6,4c-1.1,2.5-1.7,5.8-1.9,9.7
		c-0.3,4-0.4,8.1-0.4,12.4c0,4.3,0.5,7.8,1.4,10.5c0.5,1.9,2.4,2.7,5.5,2.3c2.4-0.7,4.3-1.8,5.6-3.3c3-3.2,3.7-8.9,2.2-17.1
		c-1.5-8.2-2.2-14.3-1.9-18.4c0.2-3.1,1.5-4.7,3.8-4.8c0.9-0.4,3.6-0.1,8.1,1c2.6,0.7,3.3,2.2,2,4.4c-1.3,2.2-1.5,5.3-0.8,9.3
		c0.8,4,1.1,8.4,1.2,13.3c0,4.9,0,10.6,0,17.1c-0.1,6.5,0.1,12.5,0.7,17.9c0.6,5.4,1.1,10,1.7,13.7c0.6,3.8,0.9,6,0.9,6.6
		c0,0.6-0.2,1.5-0.7,2.6c-0.4,0.6-1.1,0.9-2.2,0.9c-1.1,0-2.1,0.5-2.8,1.6c-1.8,2.4-3.7,3.9-5.8,4.5c-2,0.7-3.1,0.2-3.2-1.4
		c-0.1-1.7-0.3-3.3-0.6-4.8s-0.6-3.3-1-5.4c-0.4-1.9-0.4-4-0.2-6.2c0.2-2.2,0.4-4.4,0.4-6.5c0.1-2,0-4.6-0.4-7.8
		c-0.3-3.2-0.7-5.2-1-6.1c-0.1-0.3-0.2-0.6-0.5-0.7c-0.1,0.2-0.3,0.6-0.5,1.3c-0.1,0.8-0.8,1.3-2.1,1.5c-1.3,0.2-2.2,0.2-2.8,0.1
		c-0.4,0.9-0.5,1.8-0.3,2.8c0.3,1.4-0.5,2.2-2.4,2.5c-1.9,0.2-2.8-0.7-2.6-2.9c0.2-2.4-0.7-3.8-2.8-4.4l-0.1,0.1
		c-0.7,0.7-0.7,3.3,0.1,7.7c0.8,4.4,1.1,8.2,0.9,11.2c-0.3,3-0.1,6.6,0.6,10.6c0.7,4,1,7.2,1,9.6c-0.2,2.9-1,4-2.6,3.1
		c-1.6-0.8-2.6-0.6-3,0.8c-0.5,1.2-1.5,1.7-2.9,1.6c-1.5-0.2-2.6-0.5-3.4-1c-1,1.4-1.7,2.2-2.1,2.4c-0.4,0.2-0.7,0.3-0.9,0.2
		c-0.2-0.1-0.5-0.1-0.9,0.2c-1.9,1-2.1-1.5-0.5-7.6c0.6-2.5,0.8-5.8,0.4-9.9c-0.4-4.1-0.6-7.6-0.7-10.5c-0.1-3-0.4-6.7-0.8-11.3
		c-0.5-4.6-0.7-8.8-0.7-12.6s0-8.4,0-13.7c0-5.3-0.3-9.6-0.8-13.1c-0.5-3.4-1.2-5.9-2.2-7.4C135,275.2,134.9,273.5,135.8,271.7"/>
	<path class="st8" d="M230.3,263.5c0.8,1.6,0.9,3.1,0.4,4.4c-0.5,1.3-1.1,1.9-1.9,1.8c-1.5-0.3-2.6,0.6-3.2,2.7
		c-0.4,1.1-2,1.4-4.8,0.9c-0.8-0.1-1.3,0.2-1.6,0.9c-0.2,0.7-0.9,1.5-1.9,2.3c-1,0.9-2.1,0.8-3.1-0.2c-1-1.1-2.5-1.6-4.4-1.4
		c-2,0.1-2.3,3-0.9,8.6c1.4,5.6,2.5,8.9,3.4,10c2.8,3.1,5.4,3.8,7.8,2.1c1.4-1,2.3-1.9,2.8-2.8c0.4-0.8,1.1-1.5,1.8-2
		c0.7-0.4,1.6,1.1,2.7,4.4c1,3.3,1.7,5.9,1.9,7.6c0.1,1.8-0.8,2.6-2.7,2.2c-1.9-0.4-3.4-0.2-4.5,0.5c-1.5,1-3.3,1-5.4,0.1
		c-1.7-0.7-3-0.2-4,1.5c-0.9,1.5-0.9,5.1,0,10.9c0.9,5.8,2.3,8.8,4.1,8.9c1.7,0.2,3.3,0.2,4.6,0c1.4-0.1,2.6-1.6,3.6-4.2
		c1.4-3.8,4.7-5.1,9.9-3.8c2.4,0.6,3.1,2.9,2.2,6.9c-0.9,4-1.5,7-1.8,9c-0.5,2.6-2.4,3.9-5.9,3.9c-3.6,0.1-5.3,0.6-5.2,1.7
		c0.1,0.7-0.9,1.2-3.1,1.5c-2.2,0.3-3.7-0.2-4.5-1.5c-1.3-1.6-2.4-0.9-3.5,2c-1,2.9-2.4,2.8-4.1-0.5c-1.1-1.7-2.1-1.9-3-0.6
		c-1,1.3-1.8,2.2-2.5,2.8c-0.8,0.6-2.1,1-3.9,1.2c-1.8,0.2-2.7-1.4-2.6-4.7c-0.1-3.2-0.2-8.3-0.5-15.2c-0.3-6.9,0-12.1,1-15.6
		c1-3.3,0.1-10.4-2.7-21.4c-2.8-10.9-4.1-17.5-4.1-19.8c0-2.2,1-3.6,2.9-4.2c2-0.7,4.1-0.9,6.5-0.8c4.6,0.3,8.7,0.2,12.5-0.3
		c2.3-0.2,3.7-0.6,4.2-1.2c0.5-0.6,1.6-2,3.3-4.1c1.6-2,3.9-1.4,7,1.8C228.4,260.6,229.4,261.9,230.3,263.5"/>
	<path class="st8" d="M248.9,248c4.6,0.3,7.2,1.4,7.8,3.2c0.7,1.8,1.9,7.6,3.8,17.4c0.2,1.2,0.4,2.8,0.5,4.6
		c0.1,1.8,0.2,3.1,0.3,3.8c0.1,0.8,0.1,1.2-0.2,1.4c-0.3,0.1-0.6,0.7-0.9,1.7c-0.4,1.1-0.3,3.5,0.3,7.3c0.5,3.8,0.9,6.3,1.2,7.7
		c0.3,1.5,0.3,2.2-0.1,2.1c-0.3-0.1-0.7,0.5-1,1.6c-0.3,1.3,0,4.6,1,10.1c1,5.4,1.7,8.6,2.1,9.5c0.2,0.5-0.2,1.9-1.2,4.2
		c-0.5,1.3-0.6,2.1-0.3,2.3c0.2,0.2,0,0.7-0.8,1.3c-0.9,0.9-1.6,2.4-2.2,4.7c-0.6,1.6-1.7,2.9-3.2,4c-1.4,1-2.5,1.5-3.3,1.6
		c-0.8,0.1-1.5,0.5-2.3,1.4c-0.7,0.8-1.1,1.4-1.2,1.7c0,0.4-0.5,0.8-1.4,1.3c-1.6,0.7-2.7,0.1-3.1-1.8c-0.4-1.1-0.5-2.1-0.5-3.3
		c0-0.9-0.2-3-0.5-6.4c-0.3-3.4-0.6-5.8-0.8-7.3c-0.3-1.5,0-3.7,1-6.6c0.9-3,1.4-5.4,1.4-7.3c0.1-1.8-0.1-3-0.4-3.5
		c-0.4-0.6-0.7-1.7-1-3.3c-0.4-1.6-0.4-5.9,0-13s0.7-10.9,1-11.7c0.1-0.7,0.1-1.8,0-3.3c-0.1-1.5-0.5-2.4-1-2.8
		c-0.6-0.2-1.4-3.2-2.3-9c-0.9-5.8-1.2-9.9-0.8-12.2c0.3-2.2,0.6-3,1-2.5C241.9,247.4,244.3,247.7,248.9,248"/>
	<path class="st8" d="M299.2,236.5c1.2,0.3,2.1,2.5,2.8,6.7c0.2,1.6-0.3,3.2-1.6,4.7c-1,1.1-1.3,1.9-0.8,2.5
		c0.5,0.6,0.8,1.7,0.8,3.4c0,1.7-0.2,2.6-0.6,2.7c-0.4,0.1-1,0.3-1.7,0.7c-0.9,0.4-1.9,1.1-3.1,2.2c-0.8,0.7-1.6,1.1-2.5,1
		c-0.8,0-1.4,0.3-1.8,0.9c-0.4,0.6-0.6,1.2-0.6,1.6c-0.1,0.5-0.3,1-0.7,1.8c-0.4,0.8-0.3,4.3,0.2,10.5c0.5,6.2,0.9,10.2,1,12
		c0,1.9-0.3,3.3-0.8,4.3c-0.5,1-1,2.2-1.4,3.5c-0.5,1.4-0.5,2.7,0,3.9c0.4,1.2,0.9,2.5,1.3,3.9c0.4,1.5,0.4,3.3,0.2,5.6
		c-0.2,2.3-0.2,4.1,0.1,5.4c0.3,1.4,0.1,2.2-0.5,2.5c-0.6,0.3-1.2,1.1-1.6,2.6c-0.4,1.5-0.5,2.3-0.2,2.5c0.3,0.2,0.2,0.9-0.4,2.2
		c-0.6,1.3-1.1,1.9-1.5,1.8c-0.4-0.1-0.8,0.2-1.3,0.9c-0.6,0.8-0.9,1.5-1.1,2c-0.2,0.5-0.6,0.9-1.4,1.3c-0.8,0.4-1.6,0.9-2.3,1.6
		c-0.8,0.7-1.8,1.4-3.1,2.1c-1.8,0.9-3.1-0.5-4.2-4.1c-0.6-2.1-0.4-4.8,0.9-7.9c0.4-1,0.1-2.1-0.9-3.5c-1-1.4-1.6-2.5-1.9-3.4
		c-0.3-0.7,0.2-2.5,1.6-5.5c0.7-1.6,0.8-4.2,0.4-7.9c-0.3-2-0.1-4,0.7-6.3c0.6-1.6,1.1-6.6,1.5-14.9c0.5-8.3,0.8-13.2,1-14.5
		c0.1-1.3-0.1-2.2-0.7-2.8c-2,0.9-3.4,1.6-4.3,1.9c-0.5,0.3-1.4,1.2-2.7,2.7c-1.6,1.8-2.7,0.9-3.4-2.5c-0.3-0.9-0.3-2.7-0.2-5.4
		c0.1-2.7,0-4.8-0.3-6.4c-0.4-1.9,0.2-4.6,1.6-7.9c0.8-1.8,1.7-2.7,2.9-2.5c1.2,0.2,2.6,0,4.5-0.6c1.8-0.5,7.9-2.1,18.3-4.9
		C295.2,236.5,297.9,236.4,299.2,236.5"/>
	<path class="st8" d="M311.7,234.7c3.2,0.5,5.8,0.2,7.8-0.9c2-1.1,3.7-1.6,5.1-1.6c1.5,0,3,0,4.7-0.1c1.6,0,3.2-0.2,4.9-0.6
		c1.6-0.4,3-0.6,3.9-0.5c1,0.1,3,0.1,6.1-0.1c3.1-0.2,4.7,0.6,4.8,2.5c0,1.9,0.6,3.6,1.5,5.1c1,1.5,1.1,3,0.4,4.7
		c-0.7,1.8-1.7,3.8-3,5.9c-1.3,2.1-2.2,4.4-2.9,6.9c-0.7,2.6-1.3,4.6-1.7,6c-0.4,1.4-1.1,3.5-2,6.2c-0.9,2.8-2,8.2-3.4,16.1
		c-1.4,7.9-2.3,12.9-2.9,15c-0.6,2.1-0.4,3.5,0.6,4.2c1,0.7,2,0.6,3-0.3c1.1-0.7,1.5-1,1.2-0.9c-0.3,0.1,0.6-0.1,2.6-0.4
		c4.3-0.8,7-1.6,8.4-2.2c0.4-0.2,1.2-1.4,2.2-3.5c1-2.1,1.8-1.6,2.3,1.4c0.4,3.1,0.7,6.3,0.9,9.8c0.1,3.5-0.2,5.9-1.1,7.1
		c-0.9,1.4-1.8,2.9-2.9,4.6c-1.1,1.7-1.7,1.8-1.9,0.4c-0.5-3.8-1.4-4.8-2.6-2.8c-0.9,1.6-2.1,2.3-3.6,2c-1.2-0.3-2.2-0.1-3.1,0.6
		c-2.1,1.7-3.4,2.4-4,2.2c-1.6-0.5-3.6-0.2-5.9,0.9c-2.3,1.2-3.7,1.8-4.5,1.8c-0.9,0.1-2,0.2-3.5,0.4c-1.5,0.2-2.6,0.4-3.4,0.8
		c-2.2,1.1-3.5,1-3.9-0.4c-0.5-1.1-1.2-1.4-2.1-0.8c-1,0.6-1.3-0.4-0.8-2.9c0.4-2.5,0.8-6,1.1-10.5c0.3-4.5,1-9.7,2-15.7
		c1-5.9,3-10.8,6-14.5c3-3.8,4.9-8.3,5.8-13.5c0.9-5.1,1.5-9.7,2-13.7c0.5-4-0.6-6-3.3-6.2c-2.7-0.1-4,0.3-4,1.2
		c0,0.9-0.4,1.4-1.2,1.5c-0.9,0.1-1.4-0.2-1.4-0.9c0-0.7-0.5-0.8-1.4-0.3c-0.9,0.5-1.6,1.1-1.8,1.8c-0.3,0.7-0.9,0.9-1.9,0.6
		c-2.2-0.4-4.5-0.2-7,0.5c-1.6,0.5-2.1-1.8-1.5-6.8c0.6-5.7,1.4-8.8,2.6-9.2c0.2,0,0.5-0.2,1.1-0.6C310.4,235,311,234.8,311.7,234.7
		"/>
	<path class="st8" d="M382.9,224.9c0,0.2,0.3,0.3,0.9,0.1c0.6-0.2,0.9,0.7,1.2,2.6c0.2,2.1-0.2,3.8-0.9,5.2c-0.8,1.4-1.3,4-1.5,7.8
		c-0.4,3.9-0.8,11.4-1.1,22.8c-0.4,11.3-0.6,18.3-0.6,21c-0.1,2.7,0.3,5.3,1.1,7.9c0.8,2.6,2.8,3.2,6,1.9c3.1-1.2,5.8-1.3,8.1-0.1
		c2.3,1.2,4.1,0.4,5.4-2.5c1.3-2.9,3.3-4.5,6-4.9c2.7-0.4,4.5,0.4,5.3,2.4c0.9,2,0.8,4.5-0.2,7.5c-1,3-2.5,5.7-4.4,8
		c-1.1,1.3-2.3,1.8-3.5,1.3c-1.3-0.5-1.9-0.2-1.9,0.9c-1,8.7-2.8,9.1-5.4,1.3c-0.5-1.6-1.4-1.7-2.7-0.3c-1.3,1.4-2.2,1.7-3,0.9
		c-0.4-0.3-1.3,0.6-2.8,2.8c-1.9,2.3-3.6,2.5-5.2,0.5c-1.7-2-3-2.4-3.7-1.3c-1.6,2.2-3,3.1-4.1,2.8c-1.8-0.1-3.4,0.7-5,2.4
		c-1.5,1.7-3,3.1-4.4,4.1c-1.4,0.9-1.9-1.2-1.5-6.4c0.5-5.2,0.8-8.8,1.2-11c0.3-2,0.3-6.9,0-14.8c-0.3-7.9-0.5-12.8-0.4-14.8
		c0.1-1.9,0.1-3.5,0.1-4.5c0-1.1,0.5-2.7,1.7-4.7c1.2-1.9,1.5-5.5,0.8-10.7c-0.7-5.2-1.5-8.9-2.4-11.2c-2-4.4-1-9.3,2.9-14.8
		c1.8-2.5,4.7-3.5,8.4-3.1C381,224.3,382.9,224.6,382.9,224.9"/>
	<path class="st8" d="M450.6,221.2c0.8,1.6,0.9,3.1,0.4,4.4c-0.5,1.3-1.1,1.9-1.9,1.8c-1.5-0.3-2.6,0.6-3.2,2.7
		c-0.4,1.1-2,1.4-4.8,0.9c-0.8-0.1-1.3,0.2-1.6,0.9c-0.2,0.7-0.9,1.5-1.9,2.3c-1,0.9-2.1,0.8-3.1-0.2c-1-1.1-2.5-1.6-4.4-1.4
		c-2,0.1-2.3,3-0.9,8.6c1.4,5.6,2.5,8.9,3.4,10c2.8,3.1,5.4,3.8,7.8,2.1c1.4-1,2.3-1.9,2.8-2.8c0.4-0.8,1.1-1.5,1.8-2
		c0.7-0.4,1.6,1.1,2.7,4.4c1,3.3,1.7,5.9,1.9,7.6c0.1,1.8-0.8,2.6-2.7,2.2c-1.9-0.4-3.4-0.2-4.5,0.5c-1.5,1-3.3,1-5.4,0.1
		c-1.7-0.7-3-0.2-4,1.5c-0.9,1.5-0.9,5.1,0,10.9c0.9,5.8,2.3,8.8,4.1,8.9c1.7,0.2,3.3,0.2,4.6,0c1.4-0.1,2.6-1.6,3.6-4.2
		c1.4-3.8,4.7-5.1,9.9-3.8c2.4,0.6,3.1,2.9,2.2,6.9c-0.9,4-1.5,7-1.8,9c-0.5,2.6-2.4,3.9-5.9,3.9c-3.6,0.1-5.3,0.6-5.2,1.7
		c0.1,0.7-0.9,1.2-3.1,1.5c-2.2,0.3-3.7-0.2-4.5-1.5c-1.3-1.6-2.4-0.9-3.5,2c-1,2.9-2.4,2.8-4.1-0.5c-1.1-1.7-2.1-1.9-3-0.6
		c-1,1.3-1.8,2.2-2.5,2.8c-0.8,0.6-2.1,1-3.9,1.2c-1.8,0.2-2.7-1.4-2.6-4.7c-0.1-3.2-0.2-8.3-0.5-15.2c-0.3-6.9,0-12.1,1-15.6
		c1-3.3,0.1-10.4-2.7-21.4c-2.8-10.9-4.1-17.5-4.1-19.8c0-2.2,1-3.6,2.9-4.2c2-0.7,4.1-0.9,6.5-0.8c4.6,0.3,8.7,0.2,12.5-0.3
		c2.3-0.2,3.7-0.6,4.2-1.2c0.5-0.6,1.6-2,3.3-4.1c1.6-2,3.9-1.4,7,1.8C448.7,218.3,449.7,219.6,450.6,221.2"/>
	<path class="st8" d="M482.1,198.1c5.1-0.4,8.9,1.5,11.2,5.9c0.8,1.6,1.3,2.6,1.4,2.9c0.1,0.3,0.9,1.6,2.2,3.9
		c1.3,2.3,2.2,5.6,2.5,9.9c0.3,4.3,0.5,7.4,0.4,9.4c-0.2,2-0.4,3.3-0.7,3.7c-0.3,0.5-0.5,1.4-0.6,2.9c-0.2,1.5-0.3,2.2-0.2,2.1
		c0.1-0.1-0.1,0.5-0.6,1.7c-0.8,1.9-1.1,3.6-0.9,5.4c0.1,1.3-0.5,2.1-1.8,2.3c-1.3,0.2-2.5,0.5-3.7,0.9c-1.3,0.6-1.6,2.1-0.9,4.6
		c0.3,1.4,2.1,5,5.1,10.8c3.1,5.8,4.6,9.5,4.7,10.9c0,1.4-0.1,2.2-0.4,2.3c-0.3,0.1-0.8,0.5-1.5,1.1c-0.8,0.7-1,1.3-0.5,1.8
		c0.5,0.5,0.6,1.3,0.3,2.4c-0.4,1.9-1.2,3.1-2.6,3.5c-1,0.4-2,1.3-3,2.7c-0.5,0.9-1.7,1.2-3.6,0.9c-1.1,0-1.6-0.9-1.4-2.6
		c0.2-1.7,0.1-3.3-0.2-4.7c-0.4-1.4-1.2-3.3-2.2-5.9c-1.1-2.6-1.8-4.4-2.4-5.5c-1.4-2.9-2.4-4-3.1-3.4c-0.7,0.7-1,3.1-0.8,7.2
		c0.2,4.1,0.2,6.7-0.1,7.7c-0.3,1-1,1.8-2.2,2.3c-1.2,0.5-2.1,1.2-2.8,1.9c-0.8,0.9-1.1,1.4-1,1.7c0.1,0.3-0.5,0.6-1.9,1
		c-1.6,0.6-2.4,1.3-2.3,2c0.3,1.6-0.7,2.5-2.9,3c-0.9,0.2-1.8-2.1-2.7-6.7c-0.4-2.1-0.7-4.2-0.9-6.5c-0.2-2.2-0.3-4.2-0.4-5.9
		c-0.2-1.7,0-5.1,0.6-10.3c0.5-5.2,0.8-8.6,0.7-10.1c-0.1-1.5-0.5-2.7-1.3-3.5c-0.8-0.8-0.8-2.5,0.2-5.1c2.1-6,2.2-10.1,0-12.3
		c-1.3-1.2-0.8-3.9,1.3-8.1c0.7-1.6,0.9-3.4,0.4-5.4c-0.5-2-1-3.9-1.4-5.7c-0.6-1.7-0.6-3.4-0.1-4.9c0.5-1.5,1.1-3.3,1.8-5.4
		c0.7-2,3.9-3.8,9.6-5.3C476.9,198.9,479.8,198.3,482.1,198.1 M482.3,217.5c-0.5-0.3-1.4-0.5-2.9-0.5c-1.5,0-2,0.5-1.7,1.6
		c0.3,1.1,0.6,4.4,0.8,9.7c0.2,5.3,0.5,7.8,0.7,7.5c0.2-0.3,0.6-0.8,1.3-1.7c0.7-0.9,1.2-1.9,1.6-3.2c0.2-1.3,0.4-3.7,0.6-7.3
		C482.8,219.9,482.7,217.9,482.3,217.5"/>
</g>
<g>
	<path class="st9" d="M474.7,143l-3.1-2.5l-7.2-5.8l-5.7-4.6l1.6-2l2.7-3.3l19.8-24.4c3.6-4.4,10.1-5.1,14.5-1.4
		c1,0.9,1.8,1.9,2.4,3c0.4,0.8,0.7,1.6,0.9,2.4c0.5,1.9,0.4,3.8-0.2,5.7c-0.4,1.1-1,2.2-1.8,3.2L474.7,143z"/>
	<path class="st10" d="M518.1,161.5l-0.2-0.2c1.4,0.6,3,0.3,4.1-0.8l9.8-11c1.1-1.2,1.2-3,0.3-4.3l0.2,0.2c1.5,1.3,1.7,3.5,0.4,5
		l-9.7,10.9C521.7,162.6,519.5,162.8,518.1,161.5"/>
	<path class="st11" d="M517.9,161.3l-33.9-29.7l12.7-15.7l35.5,29.2c0.9,1.3,0.8,3.1-0.3,4.3l-9.8,11
		C520.9,161.6,519.2,161.9,517.9,161.3"/>
	<path class="st11" d="M517.9,161.3l-33.9-29.7l12.7-15.7l35.5,29.2c0.9,1.3,0.8,3.1-0.3,4.3l-9.8,11
		C520.9,161.6,519.2,161.9,517.9,161.3"/>
	<path class="st9" d="M485.6,128.7c0-0.2,0-0.4,0.1-0.5c0.2-0.2,0.6-0.3,0.8-0.1l32.9,28.9c0.2,0.2,0.3,0.6,0.1,0.8
		c-0.2,0.2-0.6,0.3-0.8,0.1L485.7,129C485.6,128.9,485.6,128.8,485.6,128.7"/>
	<path class="st9" d="M487.7,126.3c0-0.2,0-0.4,0.1-0.5c0.2-0.2,0.6-0.3,0.8-0.1l33.2,28.8c0.2,0.2,0.3,0.6,0.1,0.8
		c-0.2,0.2-0.6,0.3-0.8,0.1l-33.2-28.8C487.8,126.5,487.7,126.4,487.7,126.3"/>
	<path class="st9" d="M489.8,123.8c0-0.2,0-0.4,0.1-0.5c0.2-0.2,0.6-0.3,0.8-0.1l33.5,28.8c0.2,0.2,0.3,0.6,0.1,0.8
		c-0.2,0.2-0.6,0.3-0.8,0.1L490,124.1C489.9,124,489.9,123.9,489.8,123.8"/>
	<path class="st9" d="M492,121.3c0-0.2,0-0.4,0.1-0.5c0.2-0.2,0.6-0.3,0.8-0.1l33.7,28.7c0.2,0.2,0.3,0.6,0.1,0.8
		c-0.2,0.2-0.6,0.3-0.8,0.1l-33.7-28.7C492.1,121.6,492,121.5,492,121.3"/>
	<path class="st9" d="M494.1,118.9c0-0.2,0-0.4,0.1-0.5c0.2-0.2,0.6-0.3,0.8-0.1l34,28.6c0.2,0.2,0.3,0.6,0.1,0.8
		c-0.2,0.2-0.6,0.3-0.8,0.1l-34-28.6C494.2,119.1,494.1,119,494.1,118.9"/>
	<path class="st11" d="M475.6,164.8l-33.6-27.4l-4.7-3.8c0,0,16.4-19,35.2-3.3c0.8,0.7,1.6,1.4,2.2,2
		C490.2,147.6,475.6,164.8,475.6,164.8"/>
	<path class="st10" d="M480,148.3c-0.4-2-1.9-4.6-3.9-3.1c-1.9,1.4-0.9,4.9-0.6,7c0.1,1,0.9,4.2,2,3.9
		C480.2,155.5,480.4,150.2,480,148.3"/>
	<path class="st9" d="M464.4,134.8c-0.3,0-0.5,0.1-0.8,0.1c-2.3,0.1-4.4-1-6.6-1.5c-4.1-1-8.7-0.2-12.2,2.2
		c-0.9,0.6-1.8,1.3-2.7,1.9l-4.1-3.3l-0.6-0.5c0,0,11.2-13,25.6-8.7c1.6,0.5,3.2,1.1,4.8,2c1.6,0.9,3.2,2,4.8,3.3
		c0.8,0.7,1.6,1.4,2.2,2c-1.3-0.1-2.5,0.1-3.7,0.4C468.8,133.3,466.7,134.5,464.4,134.8"/>
	<path class="st12" d="M438,134.1l-0.6-0.5c0,0,11.2-13,25.6-8.7l19.8-24.4c3.6-4.4,10.1-5.1,14.5-1.4c1,0.9,1.8,1.9,2.4,3l-0.2,0
		c-2.1-2.1-5.6-2.4-8.4-1.3c-2.8,1.1-5,3.2-7.1,5.4c-6.1,6.3-11.6,13.3-16.2,20.7c-0.3,0.5-0.6,1-0.9,1.5c-2.2-0.2-4.4-0.3-6.5-0.2
		C452.6,128.5,444.9,130.5,438,134.1"/>
	<path class="st13" d="M454.4,159c-1.4-1-2.8-2.1-4.1-3.2c-9.4-7.8-16.7-17.7-12.9-22.3c3.4-4.2,14.2,0.9,23.5,8.3
		c1.4,1.1,2.7,2.2,4,3.4c8.1,7.3,13.9,15.7,10.8,19.6C472.3,168.8,463.1,165.2,454.4,159"/>
	<path class="st12" d="M469.5,164.3c-3.5-0.6-7.9-2.8-12.3-5.7c-0.6-0.4-1.1-0.8-1.7-1.2c-0.6-0.4-1.2-0.9-1.9-1.4
		c-0.8-0.6-1.5-1.2-2.3-1.8c-0.1-0.1-0.3-0.2-0.4-0.3c-0.5-0.4-0.9-0.8-1.4-1.2c-5.3-4.6-9.6-9.9-11-13.9v0c-0.6-1.8-0.6-3.1,0.1-4
		c0.8-1,2.5-0.9,3.9-0.7c3.1,0.6,7.1,2.5,11.2,5.1c1.4,0.9,2.8,1.8,4.1,2.9c0.5,0.3,0.9,0.7,1.4,1.1c0.1,0.1,0.1,0.1,0.2,0.2
		c0.8,0.7,1.7,1.3,2.5,2c0.5,0.4,1,0.9,1.5,1.3c5.1,4.6,9.2,9.6,10.5,13.4c0.5,1.5,0.5,2.7-0.1,3.3
		C473.3,164.4,471.8,164.7,469.5,164.3"/>
	<path class="st9" d="M469.5,164.3c-3.5-0.6-7.9-2.8-12.3-5.7c-4.1-4.1-7.9-8.6-9.8-14.2c0,0,0-0.1,0-0.2c-0.1-0.7-0.8-3.5,0.4-4.4
		c1.4-1.1,2.6-1.2,4.5-0.9c0.5,0.1,1,0.2,1.5,0.3c1.4,0.9,2.8,1.8,4.1,2.9c0.5,0.3,0.9,0.7,1.4,1.1c0.1,0.1,0.1,0.1,0.2,0.2
		c0.8,0.7,1.7,1.3,2.5,2c0.5,0.4,1,0.9,1.5,1.3c5.1,4.6,9.2,9.6,10.5,13.4c0.5,1.5,0.5,2.7-0.1,3.3
		C473.3,164.4,471.8,164.7,469.5,164.3"/>
	<path class="st11" d="M474.7,143l-3.1-2.5c0.1-1.8,0.7-3.6,1.5-5.3c1.4-2.9,3.5-5.3,5.5-7.8c4.9-5.9,9.8-11.7,14.8-17.6
		c1.1-1.3,2.4-2.6,4-2.5c0.8,0,1.4,0.4,2,1c0,0,0,0,0,0c0.8,0.8,1,2.1,0.5,3.2c-0.3,0.6-0.7,1.3-1.2,1.8L474.7,143z"/>
	<path class="st10" d="M446.2,165.6l-4.2-3.1l0.6-0.8l0.6-0.8l1.6-2l4-5l0.9-1.1l0.3-0.4l8-10.2c0.5,0.3,0.9,0.7,1.4,1.1
		c0.1,0.1,0.1,0.1,0.2,0.2c0.8,0.7,1.7,1.3,2.5,2l-8,10.2l-0.4,0.5l-0.9,1.1l-4,5L446.2,165.6z"/>
	<path class="st10" d="M438.6,166.3c0-0.1-0.1-0.2-0.1-0.3c-0.3-0.8-0.3-1.7-0.2-2.5c0.3-2,1.7-3.7,3.8-4.4c0.9-0.3,1.8-0.3,2.7-0.2
		c0.6,0.1,1.1,0.3,1.6,0.6c1,0.6,1.9,1.5,2.4,2.7c0.1,0.2,0.1,0.3,0.2,0.5c0.6,1.9,0.1,3.8-1,5.2c-0.6,0.8-1.5,1.4-2.6,1.7
		C442.7,170.5,439.7,169,438.6,166.3"/>
	<path class="st14" d="M438.6,166.3c1.3-1.6,3.7-2.1,5.7-1.4c1.3,0.4,2.9,1.6,3.7,3.1c-0.6,0.8-1.5,1.4-2.6,1.7
		C442.7,170.5,439.7,169,438.6,166.3"/>
	<path class="st13" d="M438.4,163.5c0.3-2,1.7-3.8,3.8-4.4c0.9-0.3,1.8-0.3,2.7-0.2l4-5l0.9-1.1l0.3-0.4l8-10.2
		c0.5,0.3,0.9,0.7,1.4,1.1c-0.1,0.2-0.3,0.3-0.4,0.5c-1.4,1.8-2.8,3.6-4.3,5.5c-1.2,1.6-2.5,3.2-3.7,4.8c-0.4,0.5-0.8,1.1-1.3,1.6
		c-0.5,0.6-1.8,2.5-3.3,4c-1.1,1.1-2.1,1.3-3.2,1.4c-0.1,0-0.1,0-0.2,0c-0.1,0-0.2,0-0.3,0C441.3,161.1,439.6,161.9,438.4,163.5"/>
	<path class="st12" d="M472.7,122.3l-39.5-32.6c-1.5-1.3-1.7-3.5-0.4-5l9.7-10.9c1.3-1.4,3.4-1.6,4.9-0.3l0.6,0.5l37.3,32.7
		L472.7,122.3L472.7,122.3z"/>
	<path class="st11" d="M472.7,122.3l-37.7-31c-1.5-1.3-1.7-3.6-0.4-5.1l9.8-11c0.9-1,2.3-1.4,3.5-1.1l37.3,32.7L472.7,122.3z"/>
	<path class="st9" d="M446.9,78.4c0-0.2,0-0.4,0.1-0.5c0.2-0.2,0.6-0.3,0.8-0.1l32.4,28.5c0.2,0.2,0.3,0.6,0.1,0.8
		c-0.2,0.2-0.6,0.3-0.8,0.1L447,78.7C446.9,78.6,446.9,78.5,446.9,78.4"/>
	<path class="st9" d="M444.5,80.9c0-0.2,0-0.4,0.1-0.5c0.2-0.2,0.6-0.3,0.8-0.1l32.7,28.4c0.2,0.2,0.3,0.6,0.1,0.8
		c-0.2,0.2-0.6,0.3-0.8,0.1l-32.7-28.4C444.5,81.1,444.5,81,444.5,80.9"/>
	<path class="st9" d="M442,83.4c0-0.2,0-0.4,0.1-0.5c0.2-0.2,0.6-0.3,0.8-0.1l33,28.3c0.2,0.2,0.3,0.6,0.1,0.8
		c-0.2,0.2-0.6,0.3-0.8,0.1l-33-28.3C442.1,83.7,442.1,83.6,442,83.4"/>
	<path class="st9" d="M439.6,86c0-0.2,0-0.4,0.1-0.5c0.2-0.2,0.6-0.3,0.8-0.1l33.2,28.2c0.2,0.2,0.3,0.6,0.1,0.8
		c-0.2,0.2-0.6,0.3-0.8,0.1l-33.2-28.2C439.7,86.2,439.7,86.1,439.6,86"/>
	<path class="st9" d="M437.2,88.5c0-0.2,0-0.4,0.1-0.5c0.2-0.2,0.6-0.3,0.8-0.1l33.5,28.2c0.2,0.2,0.3,0.6,0.1,0.8
		c-0.2,0.2-0.6,0.3-0.8,0.1l-33.5-28.2C437.3,88.7,437.3,88.6,437.2,88.5"/>
</g>
</svg>
