<?xml version="1.0" encoding="utf-8"?>
<!-- Generator: Adobe Illustrator 28.1.0, SVG Export Plug-In . SVG Version: 6.00 Build 0)  -->
<svg version="1.1" id="Calque_1" xmlns="http://www.w3.org/2000/svg" xmlns:xlink="http://www.w3.org/1999/xlink" x="0px" y="0px"
	 viewBox="0 0 595.3 841.9" style="enable-background:new 0 0 595.3 841.9;" xml:space="preserve">
<style type="text/css">
	.st0{fill:url(#SVGID_1_);}
	.st1{fill:#3C3789;}
	.st2{fill:#494294;}
	.st3{opacity:0.75;}
	.st4{opacity:0.7;}
	.st5{opacity:0.35;fill:url(#SVGID_00000139293158590105720890000001694065557580568449_);}
	.st6{opacity:0.55;fill:url(#SVGID_00000016791764078778421290000002903440042563700907_);}
	.st7{fill:url(#SVGID_00000054986106395550409390000007213783854225098373_);}
	.st8{fill:#ECE543;}
	.st9{fill:#6E8B9E;}
	.st10{fill:#BCCBD7;}
	.st11{fill:#839BB3;}
	.st12{fill:#396174;}
	.st13{fill:#90A9BD;}
	.st14{fill:#FFFFFF;}
</style>
<g>
	
		<radialGradient id="SVGID_1_" cx="280.1216" cy="364.1661" r="382.5768" gradientTransform="matrix(-0.7071 0.7071 -0.7071 -0.7071 805.2027 507.4741)" gradientUnits="userSpaceOnUse">
		<stop  offset="0" style="stop-color:#67BFB0"/>
		<stop  offset="1" style="stop-color:#593D91"/>
	</radialGradient>
	<path class="st0" d="M93.3,541.9c-5.4-5.4-10.4-10.9-15.1-16.7c-4.6-5.7-8.9-11.6-12.9-17.6c-9.5-14.4-17.1-29.8-22.8-45.6
		c-5.9-16.3-9.7-33.2-11.6-50.3c-1.9-17.4-1.6-35,0.7-52.4c3.2-23.7,10.3-46.9,21.2-68.6C63,270.6,76.5,251.8,93.3,235
		c22.4-22.4,48.5-38.9,76.3-49.4c28.4-10.8,58.6-15.4,88.5-13.8c48,2.5,95.3,20.8,133.4,55c3,2.7,5.9,5.4,8.7,8.3
		c13.5,13.5,24.9,28.4,34.1,44.2c6.9,11.8,12.6,24.1,17,36.7c27,76.4,10,164.8-51.1,226C349.5,592.6,279.9,613,214.1,603
		c-10.6-1.6-21.1-4-31.5-7.2c-28.6-8.8-55.6-23.6-79.3-44.4C99.9,548.4,96.6,545.2,93.3,541.9z"/>
	<g>
		<path class="st1" d="M232.7,243.9c0.2-0.3,0.3-0.5,0.5-0.7c4.5-6.3,12.6,0,17.2,8.1c3.5,6.2,4.9,13.9,2.1,16.8
			c-0.9,0.9-2.1,1.4-3.9,1.2C227.6,267.6,228.6,250.7,232.7,243.9z"/>
		<path class="st2" d="M169.6,185.6c28.4-10.8,58.6-15.4,88.5-13.8c-1.6,3.6-3.9,7.1-7.3,10.6c-1,1-2,2-3.1,3
			c-28.9,25.3-46.9,9-63.2,7.2c-3.7-0.4-6.5-1.2-8.7-2.1C172.5,189,170.6,187.2,169.6,185.6z"/>
		<g class="st3">
			<path class="st2" d="M150.1,232.3c24.6-0.8,42.8-11.3,51.7-1.3c0.6,0.6,1.1,1.4,1.6,2.2c8.1,13.5-28.4,31.3-41.5,41.5
				c-16.2,12.6-28.9,25.3-50.6,9C89.6,267.5,123.9,233.2,150.1,232.3z"/>
			<path class="st2" d="M97.8,349.7C105,336,120,326,129,329.6c1.1,0.5,2.2,1.1,3.1,2c8.1,8.1-10.2,28.1-11.7,40.6
				c-1.5,12.2-3.7,22.1-8,27.2c-3.7,4.4-8.9,5.2-16.4,0.8C78.8,390.3,89.6,365,97.8,349.7z"/>
			<path class="st2" d="M142,514.8c2.5-8.9,6.9-18.7,13.3-15.2c2.7,1.5,5.8,5.3,9.3,12.5c9,18.7,2.2,38.3-8.5,43.7
				c-3.2,1.7-6.9,2-10.5,0.6C124.9,548.2,138.4,527.5,142,514.8z"/>
			<path class="st2" d="M293.6,255.2c0-0.1,0-0.2,0.1-0.3c7.7-26,51.5-28,57.8-18.1c1.1,1.7,1.7,3.1,1.9,4.4
				c1.1,6.5-7.6,9.7-22.7,21.8C312.7,277.3,289.5,270.3,293.6,255.2z"/>
			<path class="st2" d="M380.3,265.7c0.2-1,0.5-1.9,0.9-2.6c4-7.6,15.4,0.4,25.2,5.3c9.1,4.6,9.3,9.1,5.9,11.5
				c-0.6,0.5-1.4,0.8-2.2,1.1C396.6,285.6,377.6,277.4,380.3,265.7z"/>
			<path class="st2" d="M31.7,359.3c3.2-23.7,10.3-46.9,21.2-68.6c1.4,0,2.7,0.2,4,0.5c5.2,1.1,10,4.8,12,13.4
				c4.5,19.4-8.1,24.4-18.1,39.7c-3.7,5.7-7.4,9.4-10.9,11.7C36.9,358,34.1,358.9,31.7,359.3z"/>
			<path class="st2" d="M65.3,507.7c-19.3-29.3-30.7-62.3-34.3-95.9c2.8-0.9,5.7-1.2,8.8-0.7c0.1,0,0.2,0,0.3,0
				c21.7,3.6,19.9,28.9,37,56.9c10.4,16.9,3.2,28.2-4,34.5C70.1,505,67.1,506.7,65.3,507.7z"/>
			<path class="st2" d="M93.3,541.9c-5.4-5.4-10.4-10.9-15.1-16.7c1.9-1.5,4.2-2.7,6.8-2.3c0.9,0.1,1.8,0.4,2.8,1
				c8.1,4.5,12.1-4.3,16.2,3.6c4.1,7.7,3.6,14.1,2.1,18.5c-0.8,2.5-2,4.3-2.8,5.5C99.9,548.4,96.6,545.2,93.3,541.9z"/>
			<path class="st2" d="M161.9,325.3C161.8,325.2,161.8,325.2,161.9,325.3c-6.2-10,15-25.6,21.7-28.9c7.2-3.6,28.4-7.6,33.4,4.5
				c1.8,4.3,0.9,7.3-1.5,9.4c-6,5.5-21.8,5.6-28.3,9.5C174.9,327.2,166.7,332.9,161.9,325.3z"/>
			<path class="st2" d="M287.3,207c-0.5-1.7-0.6-3.2-0.3-4.6c1-6.8,9.6-10,19.3-10.8c8.1-0.6,16.2,3.9,16,7.7
				c-0.1,1.7-1.9,3.2-6.1,4.1C302.7,206.1,290,217,287.3,207z"/>
			<path class="st2" d="M91.1,414.7c0.5-5.5,6.3-6.6,11.1-5.3c1.7,0.4,3.2,1.1,4.3,2c4.5,3.4,4.8,6.2-4,9.1
				c-3.8,1.2-6.6,1.7-8.4,1.2C91.6,421,90.7,418.8,91.1,414.7z"/>
			<path class="st2" d="M122.1,449.9c0.2,0,0.3,0.1,0.5,0.1c9.2,2.9,0.5,13.5,1.3,21.5c0.8,7-0.2,19.1-7.1,19.1
				c-1.1,0-2.4-0.3-3.8-1C95.1,480.5,112.2,447.1,122.1,449.9z"/>
			<path class="st2" d="M90.5,282.9c1.9-1.3,5.6-2.5,11.7,1.4c0.6,0.4,1.2,0.8,1.9,1.3c7.2,5.4,14.4,12.6,10.8,16.2
				c-1.8,1.8-8.1-4.5-20.8-4.5c-1.4,0-2.5-0.4-3.5-1C86.5,293.5,86.2,285.8,90.5,282.9z"/>
			<path class="st2" d="M150.4,389.5c1.8-1.3,3.9-2.3,6-2.9c14-3.5,22.8,25.3,6.9,27c-0.5,0.1-1,0.1-1.5,0.1
				C137.3,413.7,140.1,396.8,150.4,389.5z"/>
			<path class="st2" d="M232.7,243.9c2.1,0.1,4.5,0.7,6.8,2c6.5,3.6,11.2,17,12.9,22.3c-0.9,0.9-2.1,1.4-3.9,1.2
				C227.6,267.6,228.6,250.7,232.7,243.9z"/>
		</g>
		<g class="st4">
			<path class="st1" d="M227.8,266.6c1.8-1.8-4.5-9.9-7.2-9C217.8,258.5,220.5,273.8,227.8,266.6z"/>
			<path class="st1" d="M179,572.7c8.6-7.1-1.8-15.6-11.1-10.3C158.7,567.8,163.8,585.2,179,572.7z"/>
			<path class="st1" d="M62.6,375.8c4.9-4.9,0.9-8.1-7.2-7.2C47.2,369.5,45.4,393,62.6,375.8z"/>
			<path class="st1" d="M368.6,275.6c3.6-8.5-5.4-9-11.7-6.3C350.5,272,363.2,288.3,368.6,275.6z"/>
			<path class="st1" d="M430,304.5c2.9-4.4-4.5-8.1-10.8-3.6C412.8,305.4,422.7,315.3,430,304.5z"/>
			<path class="st1" d="M194.4,587.1c3.6-5.4-10.8-9-10.8-1.8S190.7,592.5,194.4,587.1z"/>
			<path class="st1" d="M240.4,319c1.8-6.3-10.8-9-15.3-0.9C220.5,326.2,236.8,331.6,240.4,319z"/>
		</g>
		<g>
			<path class="st1" d="M90.7,296.3c-4.2-2.8-4.5-10.5-0.1-13.4c1.9-1.3,5.6-2.5,11.7,1.4C95.2,286.5,92.1,291.6,90.7,296.3z"/>
			<g>
				<path class="st1" d="M406.5,268.4c9.1,4.6,9.3,9.1,5.9,11.5c-3.4-9.1-22.3-14.7-31.1-16.8C385.2,255.5,396.6,263.5,406.5,268.4z
					"/>
				<path class="st1" d="M287,202.4c1-6.8,9.6-10,19.3-10.8c8.1-0.6,16.2,3.9,16,7.7C310.4,191.8,295.2,197.9,287,202.4z"/>
				<path class="st1" d="M293.6,255.2c0-0.1,0-0.2,0.1-0.3c7.7-26,51.5-28,57.8-18.1c1.1,1.7,1.7,3.1,1.9,4.4
					c-5.9-0.9-14.4-1.1-26.3,0.1C308.5,243.3,298.7,249.7,293.6,255.2z"/>
				<path class="st1" d="M216.9,300.9c1.8,4.3,0.9,7.3-1.5,9.4c-1.1-7.6-5.6-14.3-18.4-13c-19.9,1.9-30.7,18.5-35.3,27.9
					c-6.1-9.9,15.1-25.5,21.7-28.8C190.7,292.8,211.9,288.8,216.9,300.9z"/>
				<path class="st1" d="M111.3,283.8c-21.7-16.2,12.6-50.6,38.8-51.5c24.6-0.8,42.8-11.3,51.7-1.3c-13.7,3.5-38.8,6.7-65.2,13
					C98.7,253.1,111.3,283.8,111.3,283.8z"/>
				<path class="st1" d="M150.4,389.5c-6.1,10,5.8,19.6,13,24.1c-0.5,0.1-1,0.1-1.5,0.1C137.3,413.7,140.1,396.8,150.4,389.5z"/>
				<path class="st1" d="M96,400.2c-17.2-9.9-6.3-35.2,1.8-50.6C105,336,120,326,129,329.6c-4.4,1.3-10.2,3.6-15,7.5
					c-9,7.2-24.4,29.8-18.1,48.7c3.6,10.9,10.9,13.5,16.4,13.6C108.7,403.8,103.5,404.6,96,400.2z"/>
				<path class="st1" d="M94,421.7c-2.4-0.6-3.3-2.8-3-7c0.5-5.5,6.3-6.6,11.1-5.3C95.7,411.7,94.2,417.7,94,421.7z"/>
				<path class="st1" d="M113.1,489.6c-18.1-9-0.9-42.4,9-39.7c0.2,0,0.3,0.1,0.5,0.1c-18.1,21.6-12.4,34.2-5.7,40.6
					C115.8,490.6,114.5,490.3,113.1,489.6z"/>
				<path class="st1" d="M142,514.8c2.5-8.9,6.9-18.7,13.3-15.2c-0.7,12.7-14.5,29.8-16,43.2c-1.2,10.7,9.4,12.8,16.8,13
					c-3.2,1.7-6.9,2-10.5,0.6C124.9,548.2,138.4,527.5,142,514.8z"/>
				<path class="st1" d="M175.7,190.4c-3.3-1.4-5.1-3.2-6.2-4.9c28.4-10.8,58.6-15.4,88.5-13.8c-1.6,3.6-3.9,7.1-7.3,10.6
					c-8-1.3-18.4-2.2-32-2.4C205.8,179.7,191,183.7,175.7,190.4z"/>
				<path class="st1" d="M39.9,355.9c-3,2.1-5.9,3.1-8.3,3.4c3.2-23.7,10.3-46.9,21.2-68.6c1.4,0,2.7,0.2,4,0.5
					C45.9,314.4,41.5,341.9,39.9,355.9z"/>
				<path class="st1" d="M65.3,507.7c-19.3-29.3-30.7-62.3-34.3-95.9c2.8-0.9,5.7-1.2,8.8-0.7C38,445.4,65,490,73,502.5
					C70.1,505,67.1,506.7,65.3,507.7z"/>
				<path class="st1" d="M93.3,541.9c-5.4-5.4-10.4-10.9-15.1-16.7c1.9-1.5,4.2-2.7,6.8-2.3c1.1,10.1,14.2,19,21.2,23.1
					c-0.8,2.5-2,4.3-2.8,5.5C99.9,548.4,96.6,545.2,93.3,541.9z"/>
			</g>
		</g>
	</g>
	
		<linearGradient id="SVGID_00000023269961111472431340000007779269433581540770_" gradientUnits="userSpaceOnUse" x1="421.888" y1="785.5173" x2="258.4825" y2="334.8765" gradientTransform="matrix(-0.7071 0.7071 -0.7071 -0.7071 805.2027 507.4741)">
		<stop  offset="0" style="stop-color:#494294"/>
		<stop  offset="1" style="stop-color:#6DBD93;stop-opacity:0.5"/>
	</linearGradient>
	<path style="opacity:0.35;fill:url(#SVGID_00000023269961111472431340000007779269433581540770_);" d="M93.3,541.9
		c-5.4-5.4-10.4-10.9-15.1-16.7c-4.6-5.7-8.9-11.6-12.9-17.6c-19.3-29.3-30.7-62.3-34.3-95.9c-1.9-17.4-1.6-35,0.7-52.4
		c3.2-23.7,10.3-46.9,21.2-68.6C63,270.6,76.5,251.8,93.3,235c22.4-22.4,48.5-38.9,76.3-49.4c28.4-10.8,58.6-15.4,88.5-13.8
		c48,2.5,95.3,20.8,133.4,55C218.7,139.3-20.5,421.9,182.7,595.9c-28.6-8.8-55.6-23.6-79.3-44.4C99.9,548.4,96.6,545.2,93.3,541.9z"
		/>
	
		<linearGradient id="SVGID_00000094606497736411459160000009449501628596772276_" gradientUnits="userSpaceOnUse" x1="319.0246" y1="742.24" x2="289.2375" y2="401.8127" gradientTransform="matrix(-0.7071 0.7071 -0.7071 -0.7071 805.2027 507.4741)">
		<stop  offset="0" style="stop-color:#3C3789"/>
		<stop  offset="1" style="stop-color:#58B35E;stop-opacity:0.2"/>
	</linearGradient>
	<path style="opacity:0.55;fill:url(#SVGID_00000094606497736411459160000009449501628596772276_);" d="M42.5,462
		c-5.9-16.3-9.7-33.2-11.6-50.3c-1.9-17.4-1.6-35,0.7-52.4c3.2-23.7,10.3-46.9,21.2-68.6C63,270.6,76.5,251.8,93.3,235
		c22.4-22.4,48.5-38.9,76.3-49.4c28.4-10.8,58.6-15.4,88.5-13.8c48,2.5,95.3,20.8,133.4,55c3,2.7,5.9,5.4,8.7,8.3
		c13.5,13.5,24.9,28.4,34.1,44.2C338.8,246.2,131.8,209.2,42.5,462z"/>
	
		<linearGradient id="SVGID_00000018197137359221829480000006061026060506795657_" gradientUnits="userSpaceOnUse" x1="299.4474" y1="228.7289" x2="300.08" y2="349.5311" gradientTransform="matrix(-0.7071 0.7071 -0.7071 -0.7071 805.2027 507.4741)">
		<stop  offset="0" style="stop-color:#CAE8EF"/>
		<stop  offset="1" style="stop-color:#D5ECF3;stop-opacity:0"/>
	</linearGradient>
	<path style="fill:url(#SVGID_00000018197137359221829480000006061026060506795657_);" d="M214.1,603c30.9-0.8,108.7-2.1,181.5-90
		c66-79.7,61.8-161,55.7-197.1c27,76.4,10,164.8-51.1,226C349.5,592.6,279.9,613,214.1,603z"/>
</g>
<g>
	<path class="st8" d="M165.5,351.6c0.8,1.6,0.9,3.1,0.4,4.4c-0.5,1.3-1.1,1.9-1.9,1.8c-1.5-0.3-2.6,0.6-3.2,2.7
		c-0.4,1.1-2,1.4-4.8,0.9c-0.8-0.1-1.3,0.2-1.6,0.9c-0.2,0.7-0.9,1.5-1.9,2.3c-1,0.9-2.1,0.8-3.1-0.2c-1-1.1-2.5-1.6-4.4-1.4
		c-2,0.1-2.3,3-0.9,8.6c1.4,5.6,2.5,8.9,3.4,10c2.8,3.1,5.4,3.8,7.8,2.1c1.4-1,2.3-1.9,2.8-2.8c0.4-0.8,1.1-1.5,1.8-2
		c0.7-0.4,1.6,1.1,2.7,4.4c1,3.3,1.7,5.9,1.9,7.6c0.1,1.8-0.8,2.6-2.7,2.2c-1.9-0.4-3.4-0.2-4.5,0.5c-1.5,1-3.3,1-5.4,0.1
		c-1.7-0.7-3-0.2-4,1.5c-0.9,1.5-0.9,5.1,0,10.9c0.9,5.8,2.3,8.8,4.1,8.9c1.7,0.2,3.3,0.2,4.6,0c1.4-0.1,2.6-1.6,3.6-4.2
		c1.4-3.8,4.7-5.1,9.9-3.8c2.4,0.6,3.1,2.9,2.2,6.9c-0.9,4-1.5,7-1.8,9c-0.5,2.6-2.4,3.9-5.9,3.9c-3.6,0.1-5.3,0.6-5.2,1.7
		c0.1,0.7-0.9,1.2-3.1,1.5c-2.2,0.3-3.7-0.2-4.5-1.5c-1.3-1.6-2.4-0.9-3.5,2c-1,2.9-2.4,2.8-4.1-0.5c-1.1-1.7-2.1-1.9-3-0.6
		c-1,1.3-1.8,2.2-2.5,2.8c-0.8,0.6-2.1,1-3.9,1.2c-1.8,0.2-2.7-1.4-2.6-4.7c-0.1-3.2-0.2-8.3-0.5-15.2c-0.3-6.9,0-12.1,1-15.6
		c1-3.3,0.1-10.4-2.7-21.4c-2.8-10.9-4.1-17.5-4.1-19.8c0-2.2,1-3.6,2.9-4.2c2-0.7,4.1-0.9,6.5-0.8c4.6,0.3,8.7,0.2,12.5-0.3
		c2.3-0.2,3.7-0.6,4.2-1.2c0.5-0.6,1.6-2,3.3-4.1c1.6-2,3.9-1.4,7,1.8C163.6,348.7,164.6,350,165.5,351.6"/>
	<path class="st8" d="M206,330c1.2,0.3,2.1,2.5,2.8,6.7c0.2,1.6-0.3,3.2-1.6,4.7c-1,1.1-1.3,1.9-0.8,2.5c0.5,0.6,0.8,1.7,0.8,3.4
		c0,1.7-0.2,2.6-0.6,2.7c-0.4,0.1-1,0.3-1.7,0.7c-0.9,0.4-1.9,1.1-3.1,2.2c-0.8,0.7-1.6,1.1-2.5,1c-0.8,0-1.4,0.3-1.8,0.9
		c-0.4,0.6-0.6,1.2-0.6,1.6c-0.1,0.5-0.3,1-0.7,1.8c-0.4,0.8-0.3,4.3,0.2,10.5c0.5,6.2,0.9,10.2,1,12c0,1.9-0.3,3.3-0.8,4.3
		c-0.5,1-1,2.2-1.4,3.5c-0.5,1.4-0.5,2.7,0,3.9c0.4,1.2,0.9,2.5,1.3,3.9c0.4,1.5,0.4,3.3,0.2,5.6c-0.2,2.3-0.2,4.1,0.1,5.4
		c0.3,1.4,0.1,2.2-0.5,2.5c-0.6,0.3-1.2,1.1-1.6,2.6c-0.4,1.5-0.5,2.3-0.2,2.5c0.3,0.2,0.2,0.9-0.4,2.2c-0.6,1.3-1.1,1.9-1.5,1.8
		c-0.4-0.1-0.8,0.2-1.3,0.9c-0.6,0.8-0.9,1.5-1.1,2c-0.2,0.5-0.6,0.9-1.4,1.3c-0.8,0.4-1.6,0.9-2.3,1.6c-0.8,0.7-1.8,1.4-3.1,2.1
		c-1.8,0.9-3.1-0.5-4.2-4.1c-0.6-2.1-0.4-4.8,0.9-7.9c0.4-1,0.1-2.1-0.9-3.5c-1-1.4-1.6-2.5-1.9-3.4c-0.3-0.7,0.2-2.5,1.6-5.5
		c0.7-1.6,0.8-4.2,0.4-7.9c-0.3-2-0.1-4,0.7-6.3c0.6-1.6,1.1-6.6,1.5-14.9c0.5-8.3,0.8-13.2,1-14.5c0.1-1.3-0.1-2.2-0.7-2.8
		c-2,0.9-3.4,1.6-4.3,1.9c-0.5,0.3-1.4,1.2-2.7,2.7c-1.6,1.8-2.7,0.9-3.4-2.5c-0.3-0.9-0.3-2.7-0.2-5.4c0.1-2.7,0-4.8-0.3-6.4
		c-0.4-1.9,0.2-4.6,1.6-7.9c0.8-1.8,1.7-2.7,2.9-2.5c1.2,0.2,2.6,0,4.5-0.6c1.8-0.5,7.9-2.1,18.3-4.9C202.1,330,204.7,329.9,206,330
		"/>
	<path class="st8" d="M223,405c-1.7-3.4-2.4-5.6-2-6.7c0.3-0.9,1.2-3.4,2.8-7.3c1.5-3.9,2.1-6.4,1.7-7.3c-0.5-0.9-0.8-1.3-0.9-1.4
		c-0.1-0.1-0.1-0.8-0.1-2.3c0-1.4,0-3.1,0-4.9c0.1-1.8,0-3.2-0.2-4.2c-0.2-0.9-0.1-1.5,0.3-1.7c0.4-0.2,0.6-0.9,0.7-2.1
		c0.2-2.1,0.9-4.5,2.1-7.2c0.4-0.8,0.7-2.6,1-5.4c0.1-1.5,0.1-3,0-4.6c-0.1-1.6,0.2-3,0.8-4.4c0.5-1.3,0.9-2.1,1.3-2.5
		c0.4-0.4,0.7-1,1-2.1c0.7-2.9,1-4.7,1-5.4c-0.1-0.9-0.1-2.3,0-4.2c0.1-1.9,0.5-3.3,1.4-4.2c1.6-1.3,3.8-2.2,6.6-2.5
		c1.7-0.2,2.6-0.2,3-0.2c0.3,0,0.9-0.1,1.9-0.4c0.9-0.2,2.1-0.1,3.6,0.2c1.5,0.3,2.6,1.1,3.2,2.5c0.5,1.4,0.6,2.3,0.5,3
		c-0.2,0.6-0.1,1.5,0.2,2.5c0.4,1.1,0.7,1.5,1.1,1.4c0.3-0.1,0.5,0.9,0.4,3.1c-0.1,2.3,0,3.8,0.4,4.5c0.4,0.7,0.6,1.7,0.5,2.8
		c-0.1,1.2-0.3,2.1-0.6,2.8c-0.3,0.6-0.3,1.5,0,2.5c0.2,1.2,0.5,2.1,1,2.8c0.4,0.7,0.5,1.9,0.4,3.4c-0.2,1.7,0.1,4.9,0.8,9.6
		c0.7,4.7,1.2,8,1.5,9.8c0.3,2,0.4,3.5,0.4,4.8c0,1.2,0,2.7,0,4.3c0.1,1.8,0.4,3.5,1,5.1c0.6,1.7,1,3.2,1.2,4.6
		c0.8,4,0.8,6.6,0.2,7.8c-0.5,1.1-1.1,1.4-1.7,1c-0.6-0.4-1.2-0.1-1.8,0.7c-1.3,1.5-2.7,1.8-4,0.9c-2.1-1.4-3.7-1.9-4.7-1.8
		c-2.4,0.6-3.4-0.3-2.7-2.9c0.1-0.9,0.2-2.7,0.2-5.4c0-2.7-0.4-4-1.1-3.8c-0.9,0.2-2.2,0.5-4.1,1.1c-1.9,0.6-3,1.4-3.2,2.4
		c-0.3,1.1-0.4,3.7-0.4,7.9c0,4.2-0.4,6.7-1.2,7.5c-0.8,0.9-1.4,1.3-2,1.4c-0.5,0.1-1,0.6-1.5,1.7c-0.7,1.1-1,1.7-0.9,1.9
		c0.1,0.1-0.6,0.4-2.1,0.6c-1.6,0.3-2.4,0.7-2.3,1c0.1,0.4-0.3,0.9-1.2,1.4c-1.6,1-2.6,1.4-3.1,1.2c-0.5-0.1-0.7-0.5-0.6-1.2
		C223.6,410.8,223.7,406.6,223,405 M238.8,369.2c0,1.3,0.1,2.7,0.4,4.1c1.6,0.2,2.6,0,3.2-0.5c0.5-0.5,0.7-1.6,0.6-3.2
		c-0.1-0.9-0.5-3.6-1.3-8C239.7,365.5,238.7,368,238.8,369.2"/>
	<path class="st8" d="M286.9,314.4c-0.5,0.1,0.8-0.2,3.7-0.9c1.8-0.4,3.5,1.3,5.1,5.1c0.5,1.6,1.2,2.8,2,3.7c0.8,0.9,1.5,2,2.3,3.5
		c0.8,1.5,0.9,4.3,0.4,8.4c-0.5,4-0.6,7-0.3,9c0.2,2,1.7,6.1,4.6,12.1c2.8,6.1,4.3,7.6,4.5,4.7c0.2-2.8,0.2-6.9-0.1-12.2
		c-0.2-5.3-0.1-9.1,0.4-11.3c0.5-2.2,0.2-5-0.7-8.4c-0.9-3.4-1.3-7.1-1-11c0.2-3.8,0.4-5.8,0.5-5.8c0.1-0.1,1-0.4,2.6-1.2
		c1.6-0.5,4.6-1.3,9-2.3c4.4-1,6.8-0.6,7.2,1c0.3,1.6,0.3,2.7,0.1,3.2c-0.3,0.5,0.1,1.3,1,2.5c0.9,1.3,0.7,4.1-0.5,8.5
		c-1.2,4.4-2,7.6-2.3,9.6c-0.3,2-0.3,3,0,2.9c0.3-0.1,0.8,1.3,1.3,4c0.5,2.7,0.6,4.9,0.1,6.4c-0.4,1.6-0.7,3.4-0.8,5.4
		c-0.2,2.1-0.1,3.7,0.2,4.8c0.3,1.1,0.4,2.8,0.4,5.2c-0.1,2.5-0.2,4.1-0.3,4.8c-0.1,0.7-0.2,3.3-0.3,7.8c-0.2,4.6,0,9.3,0.5,14.1
		c0.5,4.8,0.8,7.6,1,8.6c0.4,2.2-0.3,2.6-2.3,1.3c-0.3-0.1-0.7-0.3-1.3-0.5c-0.6-0.2-1.7,0.3-3.4,1.6c-1.3,1-2.1,1-2.7,0
		c-0.5-1-1-1.4-1.6-1.3c-1.2,0.4-2.3,1.6-3.3,3.8c-0.6,1-1.7,0.2-3.2-2.5c-1.5-2.6-2.6-5.6-3.2-8.9c-0.6-3.2-1.1-4.8-1.4-4.9
		c-0.3-0.1-1,0-2.1,0.2c-1.1,0.4-1.7-1.6-2-5.9c-0.3-4.3-0.6-7.2-1-8.7c-0.3-1.4-0.8-1.8-1.5-1.3c-0.6,0.5-1.1,0.1-1.5-1.3
		c-0.3-1.4-1.4-5.2-3.3-11.4c-1.8-6.2-2.9-10.1-3.1-11.8c-0.5-3.7-1.5-3.9-3-0.7c-1,2.2-1.2,5.4-0.6,9.7c0.7,4.3,1,7.8,1.1,10.6
		c0,4.8-0.6,10.5-1.6,16.9c-0.3,2.8-0.3,5.4,0,7.7c0.4,2.3,0.7,5.6,0.9,9.9c0.1,4.3-0.2,6.9-0.8,7.8c-0.6,0.8-1.6,1.2-2.9,1.2
		c-1.3-0.2-1.9-0.3-1.7-0.2c0.2,0.1,0,0.8-0.5,2.2c-0.6,1.4-1.1,1.9-1.5,1.4c-0.4-0.5-1.1-0.9-2.2-1.1c-1.7-0.3-3.4,0.3-5,1.7
		c-1.3,1.2-1.8-0.8-1.6-6.1c0.2-5.3,0.6-8.4,1-9.5c0.4-1,0.5-3.9,0.2-8.6s-0.6-8.4-0.9-11.2c-0.4-2.7-0.7-5.7-0.7-8.8
		c0-3.2,0.6-5.6,1.9-7.3c1.2-1.7,1.4-4.2,0.6-7.5c-0.8-3.3-1.6-5.6-2.5-6.7c-1.2-1.5-0.6-3.9,1.6-7.2c1.3-1.8,1.8-4.5,1.6-8
		c-0.2-3.5-0.5-5.9-1-7.3c-1.7-4,0.1-6.8,5.6-8.3c3.1-0.8,5.4-1.2,6.7-1C286.6,314.2,287.2,314.3,286.9,314.4"/>
	<path class="st8" d="M165.5,443.1c0.5-1.1,1.2-1.9,2.1-2.3c0.9-0.4,1.9-1,2.9-1.8c0.7-0.5,1.4-1.5,2.2-3c0.7-1.5,1.6-2.4,2.5-2.6
		c0.9-0.2,3.2,0.5,6.9,2.2c0.9,0.4,1.7,0.7,2.6,0.8c0.8,0.2,1.7,0.5,2.5,1.1c1.5,0.1,1.7,1.4,0.6,4c-1.1,2.5-1.7,5.8-1.9,9.7
		c-0.3,4-0.4,8.1-0.4,12.4c0,4.3,0.5,7.8,1.4,10.5c0.5,1.9,2.4,2.7,5.5,2.3c2.4-0.7,4.3-1.8,5.6-3.3c3-3.2,3.7-8.9,2.2-17.1
		c-1.5-8.2-2.2-14.3-1.9-18.4c0.2-3.1,1.5-4.7,3.8-4.8c0.9-0.4,3.6-0.1,8.1,1c2.6,0.7,3.3,2.2,2,4.4c-1.3,2.2-1.5,5.3-0.8,9.3
		c0.8,4,1.1,8.4,1.2,13.3c0,4.9,0,10.6,0,17.1c-0.1,6.5,0.1,12.5,0.7,17.9c0.6,5.4,1.1,10,1.7,13.7c0.6,3.8,0.9,6,0.9,6.6
		c0,0.6-0.2,1.5-0.7,2.6c-0.4,0.6-1.1,0.9-2.2,0.9c-1.1,0-2.1,0.5-2.8,1.6c-1.8,2.4-3.7,3.9-5.8,4.5c-2,0.7-3.1,0.2-3.2-1.4
		c-0.1-1.7-0.3-3.3-0.6-4.8c-0.3-1.5-0.6-3.3-1-5.4c-0.4-1.9-0.4-4-0.2-6.2c0.2-2.2,0.4-4.4,0.4-6.5c0.1-2,0-4.6-0.4-7.8
		c-0.3-3.2-0.7-5.2-1-6.1c-0.1-0.3-0.2-0.6-0.5-0.7c-0.1,0.2-0.3,0.6-0.5,1.3c-0.1,0.8-0.8,1.3-2.1,1.5c-1.3,0.2-2.2,0.2-2.8,0.1
		c-0.4,0.9-0.5,1.8-0.3,2.8c0.3,1.4-0.5,2.2-2.4,2.5c-1.9,0.2-2.8-0.7-2.6-2.9c0.2-2.4-0.7-3.8-2.8-4.4l-0.1,0.1
		c-0.7,0.7-0.7,3.3,0.1,7.7c0.8,4.4,1.1,8.2,0.9,11.2c-0.3,3-0.1,6.6,0.6,10.6c0.7,4,1,7.2,1,9.6c-0.2,2.9-1,4-2.6,3.1
		c-1.6-0.8-2.6-0.6-3,0.8c-0.5,1.2-1.5,1.7-2.9,1.6c-1.5-0.2-2.6-0.5-3.4-1c-1,1.4-1.7,2.2-2.1,2.4c-0.4,0.2-0.7,0.3-0.9,0.2
		c-0.2-0.1-0.5-0.1-0.9,0.2c-1.9,1-2.1-1.5-0.5-7.6c0.6-2.5,0.8-5.8,0.4-9.9c-0.4-4.1-0.6-7.6-0.7-10.5c-0.1-3-0.4-6.7-0.8-11.3
		c-0.5-4.6-0.7-8.8-0.7-12.6c0-3.9,0-8.4,0-13.7c0-5.3-0.3-9.6-0.8-13.1c-0.5-3.4-1.2-5.9-2.2-7.4
		C164.7,446.6,164.6,445,165.5,443.1"/>
	<path class="st8" d="M260,434.9c0.8,1.6,0.9,3.1,0.4,4.4c-0.5,1.3-1.1,1.9-1.9,1.8c-1.5-0.3-2.6,0.6-3.2,2.7
		c-0.4,1.1-2,1.4-4.8,0.9c-0.8-0.1-1.3,0.2-1.6,0.9c-0.2,0.7-0.9,1.5-1.9,2.3c-1,0.9-2.1,0.8-3.1-0.2c-1-1.1-2.5-1.6-4.4-1.4
		c-2,0.1-2.3,3-0.9,8.6c1.4,5.6,2.5,8.9,3.4,10c2.8,3.1,5.4,3.8,7.8,2.1c1.4-1,2.3-1.9,2.8-2.8c0.4-0.8,1.1-1.5,1.8-2
		c0.7-0.4,1.6,1.1,2.7,4.4c1,3.3,1.7,5.9,1.9,7.6c0.1,1.8-0.8,2.6-2.7,2.2c-1.9-0.4-3.4-0.2-4.5,0.5c-1.5,1-3.3,1-5.4,0.1
		c-1.7-0.7-3-0.2-4,1.5c-0.9,1.5-0.9,5.1,0,10.9c0.9,5.8,2.3,8.8,4.1,8.9c1.7,0.2,3.3,0.2,4.6,0c1.4-0.1,2.6-1.6,3.6-4.2
		c1.4-3.8,4.7-5.1,9.9-3.8c2.4,0.6,3.1,2.9,2.2,6.9c-0.9,4-1.5,7-1.8,9c-0.5,2.6-2.4,3.9-5.9,3.9c-3.6,0.1-5.3,0.6-5.2,1.7
		c0.1,0.7-0.9,1.2-3.1,1.5c-2.2,0.3-3.7-0.2-4.5-1.5c-1.3-1.6-2.4-0.9-3.5,2c-1,2.9-2.4,2.8-4.1-0.5c-1.1-1.7-2.1-1.9-3-0.6
		c-1,1.3-1.8,2.2-2.5,2.8c-0.8,0.6-2.1,1-3.9,1.2c-1.8,0.2-2.7-1.4-2.6-4.7c-0.1-3.2-0.2-8.3-0.5-15.2c-0.3-6.9,0-12.1,1-15.6
		c1-3.3,0.1-10.4-2.7-21.4c-2.8-10.9-4.1-17.5-4.1-19.8c0-2.2,1-3.6,2.9-4.2c2-0.7,4.1-0.9,6.5-0.8c4.6,0.3,8.7,0.2,12.5-0.3
		c2.3-0.2,3.7-0.6,4.2-1.2c0.5-0.6,1.6-2,3.3-4.1c1.6-2,3.9-1.4,7,1.8C258.1,432.1,259.1,433.3,260,434.9"/>
	<path class="st8" d="M278.6,419.4c4.6,0.3,7.2,1.4,7.8,3.2c0.7,1.8,1.9,7.6,3.8,17.4c0.2,1.2,0.4,2.8,0.5,4.6
		c0.1,1.8,0.2,3.1,0.3,3.8c0.1,0.8,0.1,1.2-0.2,1.4c-0.3,0.1-0.6,0.7-0.9,1.7c-0.4,1.1-0.3,3.5,0.3,7.3c0.5,3.8,0.9,6.3,1.2,7.7
		c0.3,1.5,0.3,2.2-0.1,2.1c-0.3-0.1-0.7,0.5-1,1.6c-0.3,1.3,0,4.6,1,10.1c1,5.4,1.7,8.6,2.1,9.5c0.2,0.5-0.2,1.9-1.2,4.2
		c-0.5,1.3-0.6,2.1-0.3,2.3c0.2,0.2,0,0.7-0.8,1.3c-0.9,0.9-1.6,2.4-2.2,4.7c-0.6,1.6-1.7,2.9-3.2,4c-1.4,1-2.5,1.5-3.3,1.6
		c-0.8,0.1-1.5,0.5-2.3,1.4c-0.7,0.8-1.1,1.4-1.2,1.7c0,0.4-0.5,0.8-1.4,1.3c-1.6,0.7-2.7,0.1-3.1-1.8c-0.4-1.1-0.5-2.1-0.5-3.3
		c0-0.9-0.2-3-0.5-6.4c-0.3-3.4-0.6-5.8-0.8-7.3c-0.3-1.5,0-3.7,1-6.6c0.9-3,1.4-5.4,1.4-7.3c0.1-1.8-0.1-3-0.4-3.5
		c-0.4-0.6-0.7-1.7-1-3.3c-0.4-1.6-0.4-5.9,0-13c0.4-7,0.7-10.9,1-11.7c0.1-0.7,0.1-1.8,0-3.3c-0.1-1.5-0.5-2.4-1-2.8
		c-0.6-0.2-1.4-3.2-2.3-9c-0.9-5.8-1.2-9.9-0.8-12.2c0.3-2.2,0.6-3,1-2.5C271.6,418.8,274,419.2,278.6,419.4"/>
	<path class="st8" d="M328.9,408c1.2,0.3,2.1,2.5,2.8,6.7c0.2,1.6-0.3,3.2-1.6,4.7c-1,1.1-1.3,1.9-0.8,2.5c0.5,0.6,0.8,1.7,0.8,3.4
		c0,1.7-0.2,2.6-0.6,2.7c-0.4,0.1-1,0.3-1.7,0.7c-0.9,0.4-1.9,1.1-3.1,2.2c-0.8,0.7-1.6,1.1-2.5,1c-0.8,0-1.4,0.3-1.8,0.9
		c-0.4,0.6-0.6,1.2-0.6,1.6c-0.1,0.5-0.3,1-0.7,1.8c-0.4,0.8-0.3,4.3,0.2,10.5c0.5,6.2,0.9,10.2,1,12c0,1.9-0.3,3.3-0.8,4.3
		c-0.5,1-1,2.2-1.4,3.5c-0.5,1.4-0.5,2.7,0,3.9c0.4,1.2,0.9,2.5,1.3,3.9c0.4,1.5,0.4,3.3,0.2,5.6c-0.2,2.3-0.2,4.1,0.1,5.4
		c0.3,1.4,0.1,2.2-0.5,2.5c-0.6,0.3-1.2,1.1-1.6,2.6c-0.4,1.5-0.5,2.3-0.2,2.5c0.3,0.2,0.2,0.9-0.4,2.2c-0.6,1.3-1.1,1.9-1.5,1.8
		c-0.4-0.1-0.8,0.2-1.3,0.9c-0.6,0.8-0.9,1.5-1.1,2c-0.2,0.5-0.6,0.9-1.4,1.3c-0.8,0.4-1.6,0.9-2.3,1.6c-0.8,0.7-1.8,1.4-3.1,2.1
		c-1.8,0.9-3.1-0.5-4.2-4.1c-0.6-2.1-0.4-4.8,0.9-7.9c0.4-1,0.1-2.1-0.9-3.5c-1-1.4-1.6-2.5-1.9-3.4c-0.3-0.7,0.2-2.5,1.6-5.5
		c0.7-1.6,0.8-4.2,0.4-7.9c-0.3-2-0.1-4,0.7-6.3c0.6-1.6,1.1-6.6,1.5-14.9c0.5-8.3,0.8-13.2,1-14.5c0.1-1.3-0.1-2.2-0.7-2.8
		c-2,0.9-3.4,1.6-4.3,1.9c-0.5,0.3-1.4,1.2-2.7,2.7c-1.6,1.8-2.7,0.9-3.4-2.5c-0.3-0.9-0.3-2.7-0.2-5.4c0.1-2.7,0-4.8-0.3-6.4
		c-0.4-1.9,0.2-4.6,1.6-7.9c0.8-1.8,1.7-2.7,2.9-2.5c1.2,0.2,2.6,0,4.5-0.6c1.8-0.5,7.9-2.1,18.3-4.9
		C324.9,407.9,327.6,407.8,328.9,408"/>
	<path class="st8" d="M341.4,406.2c3.2,0.5,5.8,0.2,7.8-0.9c2-1.1,3.7-1.6,5.1-1.6c1.5,0,3,0,4.7-0.1c1.6,0,3.2-0.2,4.9-0.6
		c1.6-0.4,3-0.6,3.9-0.5c1,0.1,3,0.1,6.1-0.1c3.1-0.2,4.7,0.6,4.8,2.5c0,1.9,0.6,3.6,1.5,5.1c1,1.5,1.1,3,0.4,4.7
		c-0.7,1.8-1.7,3.8-3,5.9c-1.3,2.1-2.2,4.4-2.9,6.9c-0.7,2.6-1.3,4.6-1.7,6c-0.4,1.4-1.1,3.5-2,6.2c-0.9,2.8-2,8.2-3.4,16.1
		c-1.4,7.9-2.3,12.9-2.9,15c-0.6,2.1-0.4,3.5,0.6,4.2c1,0.7,2,0.6,3-0.3c1.1-0.7,1.5-1,1.2-0.9c-0.3,0.1,0.6-0.1,2.6-0.4
		c4.3-0.8,7-1.6,8.4-2.2c0.4-0.2,1.2-1.4,2.2-3.5c1-2.1,1.8-1.6,2.3,1.4c0.4,3.1,0.7,6.3,0.9,9.8c0.1,3.5-0.2,5.9-1.1,7.1
		c-0.9,1.4-1.8,2.9-2.9,4.6c-1.1,1.7-1.7,1.8-1.9,0.4c-0.5-3.8-1.4-4.8-2.6-2.8c-0.9,1.6-2.1,2.3-3.6,2c-1.2-0.3-2.2-0.1-3.1,0.6
		c-2.1,1.7-3.4,2.4-4,2.2c-1.6-0.5-3.6-0.2-5.9,0.9c-2.3,1.2-3.7,1.8-4.5,1.8c-0.9,0.1-2,0.2-3.5,0.4c-1.5,0.2-2.6,0.4-3.4,0.8
		c-2.2,1.1-3.5,1-3.9-0.4c-0.5-1.1-1.2-1.4-2.1-0.8c-1,0.6-1.3-0.4-0.8-2.9c0.4-2.5,0.8-6,1.1-10.5c0.3-4.5,1-9.7,2-15.7
		c1-5.9,3-10.8,6-14.5c3-3.8,4.9-8.3,5.8-13.5c0.9-5.1,1.5-9.7,2-13.7c0.5-4-0.6-6-3.3-6.2c-2.7-0.1-4,0.3-4,1.2
		c0,0.9-0.4,1.4-1.2,1.5c-0.9,0.1-1.4-0.2-1.4-0.9c0-0.7-0.5-0.8-1.4-0.3c-0.9,0.5-1.6,1.1-1.8,1.8c-0.3,0.7-0.9,0.9-1.9,0.6
		c-2.2-0.4-4.5-0.2-7,0.5c-1.6,0.5-2.1-1.8-1.5-6.8c0.6-5.7,1.4-8.8,2.6-9.2c0.2,0,0.5-0.2,1.1-0.6
		C340.1,406.4,340.7,406.2,341.4,406.2"/>
	<path class="st8" d="M412.6,396.3c0,0.2,0.3,0.3,0.9,0.1c0.6-0.2,0.9,0.7,1.2,2.6c0.2,2.1-0.2,3.8-0.9,5.2c-0.8,1.4-1.3,4-1.5,7.8
		c-0.4,3.9-0.8,11.4-1.1,22.8c-0.4,11.3-0.6,18.3-0.6,21c-0.1,2.7,0.3,5.3,1.1,7.9c0.8,2.6,2.8,3.2,6,1.9c3.1-1.2,5.8-1.3,8.1-0.1
		c2.3,1.2,4.1,0.4,5.4-2.5c1.3-2.9,3.3-4.5,6-4.9c2.7-0.4,4.5,0.4,5.3,2.4c0.9,2,0.8,4.5-0.2,7.5c-1,3-2.5,5.7-4.4,8
		c-1.1,1.3-2.3,1.8-3.5,1.3c-1.3-0.5-1.9-0.2-1.9,0.9c-1,8.7-2.8,9.1-5.4,1.3c-0.5-1.6-1.4-1.7-2.7-0.3c-1.3,1.4-2.2,1.7-3,0.9
		c-0.4-0.3-1.3,0.6-2.8,2.8c-1.9,2.3-3.6,2.5-5.2,0.5c-1.7-2-3-2.4-3.7-1.3c-1.6,2.2-3,3.1-4.1,2.8c-1.8-0.1-3.4,0.7-5,2.4
		c-1.5,1.7-3,3.1-4.4,4.1c-1.4,0.9-1.9-1.2-1.5-6.4c0.5-5.2,0.8-8.8,1.2-11c0.3-2,0.3-6.9,0-14.8c-0.3-7.9-0.5-12.8-0.4-14.8
		c0.1-1.9,0.1-3.5,0.1-4.5c0-1.1,0.5-2.7,1.7-4.7c1.2-1.9,1.5-5.5,0.8-10.7c-0.7-5.2-1.5-8.9-2.4-11.2c-2-4.4-1-9.3,2.9-14.8
		c1.8-2.5,4.7-3.5,8.4-3.1C410.7,395.7,412.6,396.1,412.6,396.3"/>
	<path class="st8" d="M480.3,392.6c0.8,1.6,0.9,3.1,0.4,4.4c-0.5,1.3-1.1,1.9-1.9,1.8c-1.5-0.3-2.6,0.6-3.2,2.7
		c-0.4,1.1-2,1.4-4.8,0.9c-0.8-0.1-1.3,0.2-1.6,0.9c-0.2,0.7-0.9,1.5-1.9,2.3c-1,0.9-2.1,0.8-3.1-0.2c-1-1.1-2.5-1.6-4.4-1.4
		c-2,0.1-2.3,3-0.9,8.6c1.4,5.6,2.5,8.9,3.4,10c2.8,3.1,5.4,3.8,7.8,2.1c1.4-1,2.3-1.9,2.8-2.8c0.4-0.8,1.1-1.5,1.8-2
		c0.7-0.4,1.6,1.1,2.7,4.4c1,3.3,1.7,5.9,1.9,7.6c0.1,1.8-0.8,2.6-2.7,2.2c-1.9-0.4-3.4-0.2-4.5,0.5c-1.5,1-3.3,1-5.4,0.1
		c-1.7-0.7-3-0.2-4,1.5c-0.9,1.5-0.9,5.1,0,10.9c0.9,5.8,2.3,8.8,4.1,8.9c1.7,0.2,3.3,0.2,4.6,0c1.4-0.1,2.6-1.6,3.6-4.2
		c1.4-3.8,4.7-5.1,9.9-3.8c2.4,0.6,3.1,2.9,2.2,6.9c-0.9,4-1.5,7-1.8,9c-0.5,2.6-2.4,3.9-5.9,3.9c-3.6,0.1-5.3,0.6-5.2,1.7
		c0.1,0.7-0.9,1.2-3.1,1.5c-2.2,0.3-3.7-0.2-4.5-1.5c-1.3-1.6-2.4-0.9-3.5,2c-1,2.9-2.4,2.8-4.1-0.5c-1.1-1.7-2.1-1.9-3-0.6
		c-1,1.3-1.8,2.2-2.5,2.8c-0.8,0.6-2.1,1-3.9,1.2c-1.8,0.2-2.7-1.4-2.6-4.7c-0.1-3.2-0.2-8.3-0.5-15.2c-0.3-6.9,0-12.1,1-15.6
		c1-3.3,0.1-10.4-2.7-21.4c-2.8-10.9-4.1-17.5-4.1-19.8c0-2.2,1-3.6,2.9-4.2c2-0.7,4.1-0.9,6.5-0.8c4.6,0.3,8.7,0.2,12.5-0.3
		c2.3-0.2,3.7-0.6,4.2-1.2c0.5-0.6,1.6-2,3.3-4.1c1.6-2,3.9-1.4,7,1.8C478.4,389.7,479.4,391,480.3,392.6"/>
	<path class="st8" d="M511.8,369.6c5.1-0.4,8.9,1.5,11.2,5.9c0.8,1.6,1.3,2.6,1.4,2.9c0.1,0.3,0.9,1.6,2.2,3.9
		c1.3,2.3,2.2,5.6,2.5,9.9c0.3,4.3,0.5,7.4,0.4,9.4c-0.2,2-0.4,3.3-0.7,3.7c-0.3,0.5-0.5,1.4-0.6,2.9c-0.2,1.5-0.3,2.2-0.2,2.1
		c0.1-0.1-0.1,0.5-0.6,1.7c-0.8,1.9-1.1,3.6-0.9,5.4c0.1,1.3-0.5,2.1-1.8,2.3c-1.3,0.2-2.5,0.5-3.7,0.9c-1.3,0.6-1.6,2.1-0.9,4.6
		c0.3,1.4,2.1,5,5.1,10.8c3.1,5.8,4.6,9.5,4.7,10.9c0,1.4-0.1,2.2-0.4,2.3c-0.3,0.1-0.8,0.5-1.5,1.1c-0.8,0.7-1,1.3-0.5,1.8
		c0.5,0.5,0.6,1.3,0.3,2.4c-0.4,1.9-1.2,3.1-2.6,3.5c-1,0.4-2,1.3-3,2.7c-0.5,0.9-1.7,1.2-3.6,0.9c-1.1,0-1.6-0.9-1.4-2.6
		c0.2-1.7,0.1-3.3-0.2-4.7c-0.4-1.4-1.2-3.3-2.2-5.9c-1.1-2.6-1.8-4.4-2.4-5.5c-1.4-2.9-2.4-4-3.1-3.4c-0.7,0.7-1,3.1-0.8,7.2
		c0.2,4.1,0.2,6.7-0.1,7.7c-0.3,1-1,1.8-2.2,2.3c-1.2,0.5-2.1,1.2-2.8,1.9c-0.8,0.9-1.1,1.4-1,1.7c0.1,0.3-0.5,0.6-1.9,1
		c-1.6,0.6-2.4,1.3-2.3,2c0.3,1.6-0.7,2.5-2.9,3c-0.9,0.2-1.8-2.1-2.7-6.7c-0.4-2.1-0.7-4.2-0.9-6.5c-0.2-2.2-0.3-4.2-0.4-5.9
		c-0.2-1.7,0-5.1,0.6-10.3c0.5-5.2,0.8-8.6,0.7-10.1c-0.1-1.5-0.5-2.7-1.3-3.5c-0.8-0.8-0.8-2.5,0.2-5.1c2.1-6,2.2-10.1,0-12.3
		c-1.3-1.2-0.8-3.9,1.3-8.1c0.7-1.6,0.9-3.4,0.4-5.4c-0.5-2-1-3.9-1.4-5.7c-0.6-1.7-0.6-3.4-0.1-4.9c0.5-1.5,1.1-3.3,1.8-5.4
		c0.7-2,3.9-3.8,9.6-5.3C506.6,370.4,509.5,369.8,511.8,369.6 M512,388.9c-0.5-0.3-1.4-0.5-2.9-0.5c-1.5,0-2,0.5-1.7,1.6
		c0.3,1.1,0.6,4.4,0.8,9.7c0.2,5.3,0.5,7.8,0.7,7.5c0.2-0.3,0.6-0.8,1.3-1.7c0.7-0.9,1.2-1.9,1.6-3.2c0.2-1.3,0.4-3.7,0.6-7.3
		C512.5,391.4,512.4,389.3,512,388.9"/>
</g>
<g>
	<path class="st9" d="M504.4,314.5l-3.1-2.5l-7.2-5.8l-5.7-4.6l1.6-2l2.7-3.3l19.8-24.4c3.6-4.4,10.1-5.1,14.5-1.4
		c1,0.9,1.8,1.9,2.4,3c0.4,0.8,0.7,1.6,0.9,2.4c0.5,1.9,0.4,3.8-0.2,5.7c-0.4,1.1-1,2.2-1.8,3.2L504.4,314.5z"/>
	<path class="st10" d="M547.8,333l-0.2-0.2c1.4,0.6,3,0.3,4.1-0.8l9.8-11c1.1-1.2,1.2-3,0.3-4.3l0.2,0.2c1.5,1.3,1.7,3.5,0.4,5
		l-9.7,10.9C551.4,334.1,549.2,334.2,547.8,333"/>
	<path class="st11" d="M547.6,332.8l-33.9-29.7l12.7-15.7l35.5,29.2c0.9,1.3,0.8,3.1-0.3,4.3l-9.8,11
		C550.6,333.1,548.9,333.4,547.6,332.8"/>
	<path class="st11" d="M547.6,332.8l-33.9-29.7l12.7-15.7l35.5,29.2c0.9,1.3,0.8,3.1-0.3,4.3l-9.8,11
		C550.6,333.1,548.9,333.4,547.6,332.8"/>
	<path class="st9" d="M515.3,300.2c0-0.2,0-0.4,0.1-0.5c0.2-0.2,0.6-0.3,0.8-0.1l32.9,28.9c0.2,0.2,0.3,0.6,0.1,0.8
		c-0.2,0.2-0.6,0.3-0.8,0.1l-32.9-28.9C515.3,300.4,515.3,300.3,515.3,300.2"/>
	<path class="st9" d="M517.4,297.7c0-0.2,0-0.4,0.1-0.5c0.2-0.2,0.6-0.3,0.8-0.1l33.2,28.8c0.2,0.2,0.3,0.6,0.1,0.8
		c-0.2,0.2-0.6,0.3-0.8,0.1L517.6,298C517.5,297.9,517.4,297.8,517.4,297.7"/>
	<path class="st9" d="M519.5,295.2c0-0.2,0-0.4,0.1-0.5c0.2-0.2,0.6-0.3,0.8-0.1l33.5,28.8c0.2,0.2,0.3,0.6,0.1,0.8
		c-0.2,0.2-0.6,0.3-0.8,0.1l-33.5-28.8C519.6,295.5,519.6,295.4,519.5,295.2"/>
	<path class="st9" d="M521.7,292.8c0-0.2,0-0.4,0.1-0.5c0.2-0.2,0.6-0.3,0.8-0.1l33.7,28.7c0.2,0.2,0.3,0.6,0.1,0.8
		c-0.2,0.2-0.6,0.3-0.8,0.1l-33.7-28.7C521.7,293,521.7,292.9,521.7,292.8"/>
	<path class="st9" d="M523.8,290.3c0-0.2,0-0.4,0.1-0.5c0.2-0.2,0.6-0.3,0.8-0.1l34,28.6c0.2,0.2,0.3,0.6,0.1,0.8
		c-0.2,0.2-0.6,0.3-0.8,0.1l-34-28.6C523.9,290.5,523.8,290.4,523.8,290.3"/>
	<path class="st11" d="M505.3,336.2l-33.6-27.4l-4.7-3.8c0,0,16.4-19,35.2-3.3c0.8,0.7,1.6,1.4,2.2,2
		C519.9,319,505.3,336.2,505.3,336.2"/>
	<path class="st10" d="M509.7,319.8c-0.4-2-1.9-4.6-3.9-3.1c-1.9,1.4-0.9,4.9-0.6,7c0.1,1,0.9,4.2,2,3.9
		C509.9,327,510.1,321.6,509.7,319.8"/>
	<path class="st9" d="M494.1,306.2c-0.3,0-0.5,0.1-0.8,0.1c-2.3,0.1-4.4-1-6.6-1.5c-4.1-1-8.7-0.2-12.2,2.2
		c-0.9,0.6-1.8,1.3-2.7,1.9l-4.1-3.3l-0.6-0.5c0,0,11.2-13,25.6-8.7c1.6,0.5,3.2,1.1,4.8,2c1.6,0.9,3.2,2,4.8,3.3
		c0.8,0.7,1.6,1.4,2.2,2c-1.3-0.1-2.5,0.1-3.7,0.4C498.5,304.7,496.4,305.9,494.1,306.2"/>
	<path class="st12" d="M467.7,305.5l-0.6-0.5c0,0,11.2-13,25.6-8.7l19.8-24.4c3.6-4.4,10.1-5.1,14.5-1.4c1,0.9,1.8,1.9,2.4,3l-0.2,0
		c-2.1-2.1-5.6-2.4-8.4-1.3c-2.8,1.1-5,3.2-7.1,5.4c-6.1,6.3-11.6,13.3-16.2,20.7c-0.3,0.5-0.6,1-0.9,1.5c-2.2-0.2-4.4-0.3-6.5-0.2
		C482.3,299.9,474.6,302,467.7,305.5"/>
	<path class="st13" d="M484.1,330.4c-1.4-1-2.8-2.1-4.1-3.2c-9.4-7.8-16.7-17.7-12.9-22.3c3.4-4.2,14.2,0.9,23.5,8.3
		c1.4,1.1,2.7,2.2,4,3.4c8.1,7.3,13.9,15.7,10.8,19.6C502,340.3,492.8,336.6,484.1,330.4"/>
	<path class="st12" d="M499.2,335.8c-3.5-0.6-7.9-2.8-12.3-5.7c-0.6-0.4-1.1-0.8-1.7-1.2c-0.6-0.4-1.2-0.9-1.9-1.4
		c-0.8-0.6-1.5-1.2-2.3-1.8c-0.1-0.1-0.3-0.2-0.4-0.3c-0.5-0.4-0.9-0.8-1.4-1.2c-5.3-4.6-9.6-9.9-11-13.9v0c-0.6-1.8-0.6-3.1,0.1-4
		c0.8-1,2.5-0.9,3.9-0.7c3.1,0.6,7.1,2.5,11.2,5.1c1.4,0.9,2.8,1.8,4.1,2.9c0.5,0.3,0.9,0.7,1.4,1.1c0.1,0.1,0.1,0.1,0.2,0.2
		c0.8,0.7,1.7,1.3,2.5,2c0.5,0.4,1,0.9,1.5,1.3c5.1,4.6,9.2,9.6,10.5,13.4c0.5,1.5,0.5,2.7-0.1,3.3
		C503,335.9,501.5,336.2,499.2,335.8"/>
	<path class="st9" d="M499.2,335.8c-3.5-0.6-7.9-2.8-12.3-5.7c-4.1-4.1-7.9-8.6-9.8-14.2c0,0,0-0.1,0-0.2c-0.1-0.7-0.8-3.5,0.4-4.4
		c1.4-1.1,2.6-1.2,4.5-0.9c0.5,0.1,1,0.2,1.5,0.3c1.4,0.9,2.8,1.8,4.1,2.9c0.5,0.3,0.9,0.7,1.4,1.1c0.1,0.1,0.1,0.1,0.2,0.2
		c0.8,0.7,1.7,1.3,2.5,2c0.5,0.4,1,0.9,1.5,1.3c5.1,4.6,9.2,9.6,10.5,13.4c0.5,1.5,0.5,2.7-0.1,3.3
		C503,335.9,501.5,336.2,499.2,335.8"/>
	<path class="st11" d="M504.4,314.5l-3.1-2.5c0.1-1.8,0.7-3.6,1.5-5.3c1.4-2.9,3.5-5.3,5.5-7.8c4.9-5.9,9.8-11.7,14.8-17.6
		c1.1-1.3,2.4-2.6,4-2.5c0.8,0,1.4,0.4,2,1c0,0,0,0,0,0c0.8,0.8,1,2.1,0.5,3.2c-0.3,0.6-0.7,1.3-1.2,1.8L504.4,314.5z"/>
	<path class="st10" d="M475.9,337l-4.2-3.1l0.6-0.8l0.6-0.8l1.6-2l4-5l0.9-1.1l0.3-0.4l8-10.2c0.5,0.3,0.9,0.7,1.4,1.1
		c0.1,0.1,0.1,0.1,0.2,0.2c0.8,0.7,1.7,1.3,2.5,2l-8,10.2l-0.4,0.5l-0.9,1.1l-4,5L475.9,337z"/>
	<path class="st10" d="M468.3,337.7c0-0.1-0.1-0.2-0.1-0.3c-0.3-0.8-0.3-1.7-0.2-2.5c0.3-2,1.7-3.7,3.8-4.4c0.9-0.3,1.8-0.3,2.7-0.2
		c0.6,0.1,1.1,0.3,1.6,0.6c1,0.6,1.9,1.5,2.4,2.7c0.1,0.2,0.1,0.3,0.2,0.5c0.6,1.9,0.1,3.8-1,5.2c-0.6,0.8-1.5,1.4-2.6,1.7
		C472.4,341.9,469.4,340.4,468.3,337.7"/>
	<path class="st14" d="M468.3,337.7c1.3-1.6,3.7-2.1,5.7-1.4c1.3,0.4,2.9,1.6,3.7,3.1c-0.6,0.8-1.5,1.4-2.6,1.7
		C472.4,341.9,469.4,340.4,468.3,337.7"/>
	<path class="st13" d="M468.1,334.9c0.3-2,1.7-3.8,3.8-4.4c0.9-0.3,1.8-0.3,2.7-0.2l4-5l0.9-1.1l0.3-0.4l8-10.2
		c0.5,0.3,0.9,0.7,1.4,1.1c-0.1,0.2-0.3,0.3-0.4,0.5c-1.4,1.8-2.8,3.6-4.3,5.5c-1.2,1.6-2.5,3.2-3.7,4.8c-0.4,0.5-0.8,1.1-1.3,1.6
		c-0.5,0.6-1.8,2.5-3.3,4c-1.1,1.1-2.1,1.3-3.2,1.4c-0.1,0-0.1,0-0.2,0c-0.1,0-0.2,0-0.3,0C471,332.6,469.3,333.4,468.1,334.9"/>
	<path class="st12" d="M502.4,293.8l-39.5-32.6c-1.5-1.3-1.7-3.5-0.4-5l9.7-10.9c1.3-1.4,3.4-1.6,4.9-0.3l0.6,0.5l37.3,32.7
		L502.4,293.8L502.4,293.8z"/>
	<path class="st11" d="M502.4,293.8l-37.7-31c-1.5-1.3-1.7-3.6-0.4-5.1l9.8-11c0.9-1,2.3-1.4,3.5-1.1l37.3,32.7L502.4,293.8z"/>
	<path class="st9" d="M476.6,249.8c0-0.2,0-0.4,0.1-0.5c0.2-0.2,0.6-0.3,0.8-0.1l32.4,28.5c0.2,0.2,0.3,0.6,0.1,0.8
		c-0.2,0.2-0.6,0.3-0.8,0.1l-32.4-28.5C476.6,250,476.6,249.9,476.6,249.8"/>
	<path class="st9" d="M474.2,252.4c0-0.2,0-0.4,0.1-0.5c0.2-0.2,0.6-0.3,0.8-0.1l32.7,28.4c0.2,0.2,0.3,0.6,0.1,0.8
		c-0.2,0.2-0.6,0.3-0.8,0.1l-32.7-28.4C474.2,252.6,474.2,252.5,474.2,252.4"/>
	<path class="st9" d="M471.7,254.9c0-0.2,0-0.4,0.1-0.5c0.2-0.2,0.6-0.3,0.8-0.1l33,28.3c0.2,0.2,0.3,0.6,0.1,0.8
		c-0.2,0.2-0.6,0.3-0.8,0.1l-33-28.3C471.8,255.1,471.8,255,471.7,254.9"/>
	<path class="st9" d="M469.3,257.4c0-0.2,0-0.4,0.1-0.5c0.2-0.2,0.6-0.3,0.8-0.1l33.2,28.2c0.2,0.2,0.3,0.6,0.1,0.8
		c-0.2,0.2-0.6,0.3-0.8,0.1l-33.2-28.2C469.4,257.6,469.4,257.5,469.3,257.4"/>
	<path class="st9" d="M466.9,260c0-0.2,0-0.4,0.1-0.5c0.2-0.2,0.6-0.3,0.8-0.1l33.5,28.2c0.2,0.2,0.3,0.6,0.1,0.8
		c-0.2,0.2-0.6,0.3-0.8,0.1l-33.5-28.2C467,260.2,467,260.1,466.9,260"/>
</g>
</svg>
