<?xml version="1.0" encoding="utf-8"?>
<!-- Generator: Adobe Illustrator 28.1.0, SVG Export Plug-In . SVG Version: 6.00 Build 0)  -->
<svg version="1.1" id="Calque_1" xmlns="http://www.w3.org/2000/svg" xmlns:xlink="http://www.w3.org/1999/xlink" x="0px" y="0px"
	 viewBox="0 0 284.1 286" style="enable-background:new 0 0 284.1 286;" xml:space="preserve">
<style type="text/css">
	.st0{fill:url(#SVGID_1_);}
	.st1{fill:url(#SVGID_00000000901406455207870260000016388541186901594536_);}
	.st2{fill:url(#SVGID_00000101820382547045268400000018398662771693025171_);}
	.st3{fill:url(#SVGID_00000049919571348037068780000013608196944329068195_);}
	.st4{fill:url(#SVGID_00000139255476830401831400000007426659398946194329_);}
	.st5{fill:url(#SVGID_00000065041940321190202340000015808547289353174940_);}
	.st6{fill:url(#SVGID_00000174572841354096032540000000002821383069683857_);}
	.st7{fill:url(#SVGID_00000082334221054766028000000007751213561492058265_);}
	.st8{fill:url(#SVGID_00000138560584670227150550000007776469320363333003_);}
	.st9{opacity:0.45;fill:url(#SVGID_00000003790263270990657270000004927090983444768432_);}
	.st10{opacity:0.55;fill:url(#SVGID_00000085214086473580914910000004492021461652107446_);}
	.st11{fill:url(#SVGID_00000173868811067082816370000008158273245515402942_);}
	.st12{fill:#1E1E1C;}
</style>
<g>
	<radialGradient id="SVGID_1_" cx="121.0735" cy="63.1722" r="233.274" gradientUnits="userSpaceOnUse">
		<stop  offset="0" style="stop-color:#F5A162"/>
		<stop  offset="1" style="stop-color:#E72E4C"/>
	</radialGradient>
	<path class="st0" d="M286.1,143.6c0,4.2-0.2,8.4-0.5,12.5c-0.3,3.8-0.8,7.6-1.4,11.4c-0.6,3.7-1.4,7.3-2.3,10.8
		c-2.6,10.3-6.3,20.2-11,29.5c-1.5,3-3.1,5.9-4.8,8.8c-3.2,5.3-6.7,10.4-10.5,15.2c-1.9,2.5-4,4.8-6,7.2
		c-13.5,15-30.2,27.1-48.9,35.3c-1.4,0.6-2.8,1.2-4.2,1.8c-4.2,1.7-8.4,3.1-12.8,4.4c-3.1,0.9-6.2,1.7-9.4,2.4
		c-9.8,2.1-20,3.3-30.5,3.3c-40.4,0-76.8-16.8-102.8-43.8c-3.1-3.2-6-6.6-8.8-10c-5.6-7.1-10.6-14.7-14.8-22.8
		c-1.1-2.1-2.1-4.2-3.1-6.3c-3.6-7.7-6.4-15.8-8.6-24.2c-2.9-11.3-4.4-23.1-4.4-35.3c0-7.5,0.6-14.9,1.7-22c0.4-2.8,0.9-5.5,1.5-8.2
		c0.7-3,1.4-6,2.2-8.9c1.5-5.4,3.4-10.7,5.6-15.8c3.9-9.3,8.8-18.1,14.5-26.3c3.5-5,7.3-9.8,11.4-14.3c7.7-8.5,16.4-16.1,26-22.5
		c0.3-0.2,0.6-0.4,0.9-0.6c6.4-4.2,13.1-7.9,20.1-11.1c13.9-6.3,29.1-10.4,45-11.9c4.5-0.4,9-0.6,13.6-0.6c13.7,0,26.9,1.9,39.5,5.5
		c5.3,1.5,10.5,3.4,15.6,5.5c1.9,0.8,3.8,1.6,5.6,2.5c7.7,3.6,15,7.9,21.9,12.8c7.4,5.3,14.3,11.3,20.6,17.9
		c12,12.6,21.8,27.5,28.5,43.9c0.9,2.1,1.7,4.1,2.4,6.2c2.4,6.7,4.3,13.7,5.7,20.8C285.2,125.2,286.1,134.3,286.1,143.6z"/>
	<g>
		
			<linearGradient id="SVGID_00000131368225442890102520000018062950805860819638_" gradientUnits="userSpaceOnUse" x1="118.688" y1="-30.5394" x2="175.3594" y2="364.1377">
			<stop  offset="0" style="stop-color:#F9BA72"/>
			<stop  offset="1" style="stop-color:#F9BA72;stop-opacity:0"/>
		</linearGradient>
		<path style="fill:url(#SVGID_00000131368225442890102520000018062950805860819638_);" d="M286.1,143.6c0,12-1.5,23.6-4.3,34.7
			c-71.1-30.5-193.4,25.6-276.1,0.7c-2.9-11.3-4.4-23.1-4.4-35.3c0-7.5,0.6-14.9,1.7-22c145.3,51.5,198.2-20.2,280.5-5.2
			C285.2,125.2,286.1,134.3,286.1,143.6z"/>
		
			<linearGradient id="SVGID_00000069360285071902234040000005309178271542715306_" gradientUnits="userSpaceOnUse" x1="123.4226" y1="-31.2195" x2="180.0936" y2="363.4555">
			<stop  offset="0" style="stop-color:#F9BA72"/>
			<stop  offset="1" style="stop-color:#F9BA72;stop-opacity:0"/>
		</linearGradient>
		<path style="fill:url(#SVGID_00000069360285071902234040000005309178271542715306_);" d="M277.8,95.5c-77.4-13-167.6,40.4-271,8.9
			c1.5-5.4,3.4-10.7,5.6-15.8c84,32.7,185.2-8.9,263,0.7C276.2,91.3,277,93.4,277.8,95.5z"/>
		
			<linearGradient id="SVGID_00000018926477156895384350000015197280199693197460_" gradientUnits="userSpaceOnUse" x1="124.5596" y1="-31.3828" x2="181.2307" y2="363.293">
			<stop  offset="0" style="stop-color:#F9BA72"/>
			<stop  offset="1" style="stop-color:#F9BA72;stop-opacity:0"/>
		</linearGradient>
		<path style="fill:url(#SVGID_00000018926477156895384350000015197280199693197460_);" d="M246.8,45.4
			c-81.4,50.2-184.3,27.3-220,16.9c3.5-5,7.3-9.8,11.4-14.3c101.7,25.9,165.2-5.5,188.1-20.5C233.6,32.8,240.5,38.8,246.8,45.4z"/>
		
			<linearGradient id="SVGID_00000052783003109658019180000008747619104848481941_" gradientUnits="userSpaceOnUse" x1="126.7802" y1="-31.7023" x2="183.4516" y2="362.9754">
			<stop  offset="0" style="stop-color:#F9BA72"/>
			<stop  offset="1" style="stop-color:#F9BA72;stop-opacity:0"/>
		</linearGradient>
		<path style="fill:url(#SVGID_00000052783003109658019180000008747619104848481941_);" d="M204.3,14.7
			C170.1,36.9,123.7,22,64.1,25.5c6.6-4.5,13.7-8.4,21-11.7c36.1,1.6,87.1,13.6,113.6-1.5C200.6,13,202.5,13.9,204.3,14.7z"/>
		
			<linearGradient id="SVGID_00000139972018340324581310000011251376924670869662_" gradientUnits="userSpaceOnUse" x1="150.9561" y1="-35.1739" x2="207.6279" y2="359.5063">
			<stop  offset="0" style="stop-color:#F9BA72"/>
			<stop  offset="1" style="stop-color:#F9BA72;stop-opacity:0"/>
		</linearGradient>
		<path style="fill:url(#SVGID_00000139972018340324581310000011251376924670869662_);" d="M183.2,6.7c-9.6,4.7-27.5,8.7-53.1-4.9
			c4.5-0.4,9-0.6,13.6-0.6C157.4,1.2,170.6,3.1,183.2,6.7z"/>
		
			<linearGradient id="SVGID_00000018227658467008901180000000983338245866285200_" gradientUnits="userSpaceOnUse" x1="108.8794" y1="-29.1312" x2="165.5507" y2="365.5453">
			<stop  offset="0" style="stop-color:#F9BA72"/>
			<stop  offset="1" style="stop-color:#F9BA72;stop-opacity:0"/>
		</linearGradient>
		<path style="fill:url(#SVGID_00000018227658467008901180000000983338245866285200_);" d="M270.8,207.8c-1.5,3-3.1,5.9-4.8,8.8
			c-61.2-27.7-174.1,3.1-248.6-7.2c-1.1-2.1-2.1-4.2-3.1-6.3C112,215.2,218,175.4,270.8,207.8z"/>
		
			<linearGradient id="SVGID_00000093868362190984207710000003372184457578846384_" gradientUnits="userSpaceOnUse" x1="67.7393" y1="-23.2249" x2="124.4107" y2="371.4527">
			<stop  offset="0" style="stop-color:#F9BA72"/>
			<stop  offset="1" style="stop-color:#F9BA72;stop-opacity:0"/>
		</linearGradient>
		<path style="fill:url(#SVGID_00000093868362190984207710000003372184457578846384_);" d="M183.6,280.3c-3.1,0.9-6.2,1.7-9.4,2.4
			c-26.3-4.3-107.5-50.3-133.2-40.5c-3.1-3.2-6-6.6-8.8-10C89.2,231.5,149.6,277.6,183.6,280.3z"/>
		
			<linearGradient id="SVGID_00000079455845004305471630000000137765075856783252_" gradientUnits="userSpaceOnUse" x1="155.2416" y1="-35.7875" x2="211.9128" y2="358.8882">
			<stop  offset="0" style="stop-color:#F9BA72"/>
			<stop  offset="1" style="stop-color:#F9BA72;stop-opacity:0"/>
		</linearGradient>
		<path style="fill:url(#SVGID_00000079455845004305471630000000137765075856783252_);" d="M249.5,238.9
			c-13.5,15-30.2,27.1-48.9,35.3c-26.9-8.1-42.4-24-51.7-28.5c-13.7-6.6-17.8-11.8,35-15.8C210.7,227.9,233.6,233.2,249.5,238.9z"/>
	</g>
	
		<linearGradient id="SVGID_00000161589337524130345860000005015930342071196034_" gradientUnits="userSpaceOnUse" x1="123.6819" y1="283.3641" x2="151.7729" y2="86.7273">
		<stop  offset="0" style="stop-color:#D8284E"/>
		<stop  offset="1" style="stop-color:#E72E4C;stop-opacity:0"/>
	</linearGradient>
	<path style="opacity:0.45;fill:url(#SVGID_00000161589337524130345860000005015930342071196034_);" d="M284.1,167.4
		c-9.4,56.3-52.7,102.7-109.9,115.3C72.5,304.8-17.4,214.3,4.5,113.4c11.8,22.3,38,46.1,95.2,54.9
		C186.3,181.7,242.7,157.8,284.1,167.4z"/>
	
		<linearGradient id="SVGID_00000135650014446550002090000015987442819070157194_" gradientUnits="userSpaceOnUse" x1="148.6253" y1="282.2678" x2="137.8604" y2="185.3836">
		<stop  offset="0" style="stop-color:#A9283F"/>
		<stop  offset="1" style="stop-color:#B72739;stop-opacity:0"/>
	</linearGradient>
	<path style="opacity:0.55;fill:url(#SVGID_00000135650014446550002090000015987442819070157194_);" d="M253.2,234.6
		c-1.2,1.5-2.5,2.9-3.7,4.3c-13.5,15-30.2,27.1-48.9,35.3c-1.4,0.6-2.8,1.2-4.2,1.8c-4.2,1.7-8.4,3.1-12.8,4.4
		c-3.1,0.9-6.2,1.7-9.4,2.4c-9.8,2.1-20,3.3-30.5,3.3c-40.4,0-76.8-16.8-102.8-43.8c-2.6-2.8-5.2-5.6-7.6-8.6
		c23.4,8.8,57.4,10.6,106.6-1.6C183.2,221.2,220.9,224.2,253.2,234.6z"/>
	
		<linearGradient id="SVGID_00000049912493646866312850000007240295261017794750_" gradientUnits="userSpaceOnUse" x1="276.0956" y1="-29.4522" x2="168.4463" y2="98.5939">
		<stop  offset="0" style="stop-color:#FFECB8"/>
		<stop  offset="1" style="stop-color:#FED372;stop-opacity:0.2"/>
	</linearGradient>
	<path style="fill:url(#SVGID_00000049912493646866312850000007240295261017794750_);" d="M286.1,143.6c0,4.2-0.2,8.4-0.5,12.5
		c-0.4-32.1-11.5-70.5-50.5-104C160.2-12.1,84.3,16,65,24.9c6.4-4.2,13.1-7.9,20.1-11.1c13.9-6.3,29.1-10.4,45-11.9
		c4.5-0.4,9-0.6,13.6-0.6c13.7,0,26.9,1.9,39.5,5.5c5.3,1.5,10.5,3.4,15.6,5.5c1.9,0.8,3.8,1.6,5.6,2.5c7.7,3.6,15,7.9,21.9,12.8
		c7.4,5.3,14.3,11.3,20.6,17.9c12,12.6,21.8,27.5,28.5,43.9c0.9,2.1,1.7,4.1,2.4,6.2c2.4,6.7,4.3,13.7,5.7,20.8
		C285.2,125.2,286.1,134.3,286.1,143.6z"/>
</g>
<path class="st12" d="M12.4,123.8L142,76.1l129.5,47.7L238,136.1v36.7c1.9,0.6,3.2,2.4,3.2,4.5c0,1.7-0.9,3.1-2.2,4l2.5,6.8h-10.1
	l2.5-6.8c-1.3-0.8-2.2-2.3-2.2-4c0-2.1,1.4-3.8,3.2-4.5v-51.5l-1.5,16.5l-17.6,6.5v57.1H68v-51.6l74,21.8L12.4,123.8z"/>
</svg>
