<?xml version="1.0" encoding="utf-8"?>
<!-- Generator: Adobe Illustrator 28.1.0, SVG Export Plug-In . SVG Version: 6.00 Build 0)  -->
<svg version="1.1" id="Calque_1" xmlns="http://www.w3.org/2000/svg" xmlns:xlink="http://www.w3.org/1999/xlink" x="0px" y="0px"
	 viewBox="0 0 457.1 455.7" style="enable-background:new 0 0 457.1 455.7;" xml:space="preserve">
<style type="text/css">
	.st0{fill:url(#SVGID_1_);}
	.st1{fill:url(#SVGID_00000170237297158112997990000018033409291842748087_);}
	.st2{fill:url(#SVGID_00000002381871348765643030000008066360474540220566_);}
	.st3{fill:url(#SVGID_00000094611089933658247240000011121859516802067356_);}
	.st4{fill:url(#SVGID_00000072262453388283720330000004280111597880035764_);}
	.st5{fill:url(#SVGID_00000097473079505335074850000010171085895112216223_);}
	.st6{fill:url(#SVGID_00000121257423471197034430000012044698560941700285_);}
	.st7{fill:url(#SVGID_00000019661244043314099260000007573267583539943851_);}
	.st8{fill:url(#SVGID_00000000192919939535540370000000788491808367637425_);}
	.st9{opacity:0.55;fill:url(#SVGID_00000154421779249537935780000007934886113826282655_);}
	
		.st10{opacity:0.5;fill:url(#SVGID_00000097464464342551684010000013070069388712225423_);stroke:url(#SVGID_00000042016380168670055690000003237213741093952930_);stroke-miterlimit:10;}
	.st11{fill:url(#SVGID_00000071561726278064909740000010751476795856092095_);}
	.st12{fill:#1E1E1C;}
</style>
<g>
	<radialGradient id="SVGID_1_" cx="253.715" cy="109.3573" r="269.1999" gradientUnits="userSpaceOnUse">
		<stop  offset="0" style="stop-color:#BFD88C"/>
		<stop  offset="1" style="stop-color:#49B7A1"/>
	</radialGradient>
	<path class="st0" d="M93.2,411.4c-127.7-93.2-123.7-286.2,9.1-373.8c90.1-59.6,212.3-47.8,289.3,32.3c35.4,36.8,58.4,85.4,62.8,139
		C470.8,403.5,249.7,526.1,93.2,411.4z"/>
	<g>
		
			<linearGradient id="SVGID_00000147219829591701004440000001554600306684724405_" gradientUnits="userSpaceOnUse" x1="118.3629" y1="492.6122" x2="309.5786" y2="-34.2071">
			<stop  offset="0" style="stop-color:#148778"/>
			<stop  offset="1" style="stop-color:#109B77;stop-opacity:0.1"/>
		</linearGradient>
		<path style="fill:url(#SVGID_00000147219829591701004440000001554600306684724405_);" d="M445.1,160
			c-36.1-0.1-104.9-6.4-184.9-44.2C171.7,74,98.5,67.1,67.2,66.2c10.7-10.7,22.5-20.3,35.2-28.6c20.8,3,60.1,11.6,131.8,35.3
			c85,28,133.8,11.7,157.5-3C415.9,95,434.4,125.8,445.1,160z"/>
		
			<linearGradient id="SVGID_00000062170029122973952700000003247716839198688640_" gradientUnits="userSpaceOnUse" x1="90.2685" y1="482.4182" x2="281.4857" y2="-44.4053">
			<stop  offset="0" style="stop-color:#148778"/>
			<stop  offset="1" style="stop-color:#109B77;stop-opacity:0.1"/>
		</linearGradient>
		<path style="fill:url(#SVGID_00000062170029122973952700000003247716839198688640_);" d="M371.9,51.6
			c-19.8,7.9-58.8,14.7-126.1-4.7c-58.9-17-93.7-23.6-113.3-26.1c11.7-5.4,23.9-9.8,36.6-13.2c17.2,4.6,40,11.6,70.2,22.3
			c60,21.2,98.5,18.4,120.2,12.2C363.8,45.1,367.9,48.3,371.9,51.6z"/>
		
			<linearGradient id="SVGID_00000090262855959691337940000016171450758208349322_" gradientUnits="userSpaceOnUse" x1="116.4089" y1="491.8991" x2="307.6233" y2="-34.9169">
			<stop  offset="0" style="stop-color:#148778"/>
			<stop  offset="1" style="stop-color:#109B77;stop-opacity:0.1"/>
		</linearGradient>
		<path style="fill:url(#SVGID_00000090262855959691337940000016171450758208349322_);" d="M337.6,28.3
			c-22.7,2.2-66.4,1.8-95.6-27.8C276.4,2.6,308.9,12.4,337.6,28.3z"/>
		
			<linearGradient id="SVGID_00000099628581459751675280000017821958057912807813_" gradientUnits="userSpaceOnUse" x1="125.9775" y1="495.377" x2="317.1938" y2="-31.4438">
			<stop  offset="0" style="stop-color:#148778"/>
			<stop  offset="1" style="stop-color:#109B77;stop-opacity:0.1"/>
		</linearGradient>
		<path style="fill:url(#SVGID_00000099628581459751675280000017821958057912807813_);" d="M455.3,227.6c0,3-0.1,6.1-0.2,9.1
			c-30.4,3.5-92.9,0.1-193.6-52C134,118.8,69.7,115.1,26.9,120.2c2.4-4.6,5-9,7.8-13.4c28.5-3.5,92.1-2.5,198.1,44.1
			c131.1,57.6,172.8,70.1,221.7,57.9C455,215,455.3,221.3,455.3,227.6z"/>
		
			<linearGradient id="SVGID_00000102506525754544362610000005572417698119543957_" gradientUnits="userSpaceOnUse" x1="130.3264" y1="496.9549" x2="321.5422" y2="-29.8649">
			<stop  offset="0" style="stop-color:#148778"/>
			<stop  offset="1" style="stop-color:#109B77;stop-opacity:0.1"/>
		</linearGradient>
		<path style="fill:url(#SVGID_00000102506525754544362610000005572417698119543957_);" d="M188.6,186
			c-79.8-36.8-153.1-24.6-180.8-17.7c-4.4,16.3-7,33.2-7.6,50.7c153.3-27.8,265.6,58.2,227.5,64.5c-39,6.5-55.9,11.7-117.1,31.2
			c-44.7,14.3-80.3,0.7-96.3-7.6c6.2,16.5,14.2,32.1,23.8,46.5c79.2,29.6,142.4-1.7,224.7-27.3c63.9-19.9,126.1,1,160.7,17.2
			c11.6-19.5,20.4-41,25.7-63.7C338.4,300.4,282.4,229.3,188.6,186z"/>
		
			<linearGradient id="SVGID_00000013879410729369183020000009954775834364687792_" gradientUnits="userSpaceOnUse" x1="3.1115" y1="450.7806" x2="194.3274" y2="-76.0393">
			<stop  offset="0" style="stop-color:#148778"/>
			<stop  offset="1" style="stop-color:#109B77;stop-opacity:0.1"/>
		</linearGradient>
		<path style="fill:url(#SVGID_00000013879410729369183020000009954775834364687792_);" d="M140.5,278.4c-23.4,1.3-36.4,7.8-72.8,13
			c-18,2.6-41.3-1.5-60.3-6.3c-3.6-14-6-28.5-6.9-43.4C108.6,224.2,162.5,277.2,140.5,278.4z"/>
		
			<linearGradient id="SVGID_00000039106458282681427420000010677231473148364965_" gradientUnits="userSpaceOnUse" x1="191.3241" y1="519.095" x2="382.5399" y2="-7.7246">
			<stop  offset="0" style="stop-color:#148778"/>
			<stop  offset="1" style="stop-color:#109B77;stop-opacity:0.1"/>
		</linearGradient>
		<path style="fill:url(#SVGID_00000039106458282681427420000010677231473148364965_);" d="M391.6,385.5
			c-5.3,5.5-10.9,10.7-16.7,15.7c-27.8-8.7-59.2-14.1-92.7-12.3c-77.2,4.2-123.4,30.8-189,22.4c-3.9-2.8-7.7-5.8-11.4-8.9
			c26.8,3.6,74.9,1.9,158.8-21.3C299.5,364.9,350.5,371.1,391.6,385.5z"/>
		
			<linearGradient id="SVGID_00000142856479726197986300000014650680608448015532_" gradientUnits="userSpaceOnUse" x1="228.146" y1="532.4602" x2="419.3621" y2="5.6395">
			<stop  offset="0" style="stop-color:#148778"/>
			<stop  offset="1" style="stop-color:#109B77;stop-opacity:0.1"/>
		</linearGradient>
		<path style="fill:url(#SVGID_00000142856479726197986300000014650680608448015532_);" d="M339.3,426.1
			c-33,18.6-71.1,29.2-111.7,29.2c-14.5,0-28.8-1.4-42.6-4C233.9,397.1,305.2,413.6,339.3,426.1z"/>
	</g>
	
		<linearGradient id="SVGID_00000103240152796781057940000017341570202207311011_" gradientUnits="userSpaceOnUse" x1="252.9364" y1="425.4899" x2="135.8712" y2="-1.7986">
		<stop  offset="0" style="stop-color:#127F6A"/>
		<stop  offset="1" style="stop-color:#5EB562;stop-opacity:0.1"/>
	</linearGradient>
	<path style="opacity:0.55;fill:url(#SVGID_00000103240152796781057940000017341570202207311011_);" d="M432.9,326.2
		c-2.9,6-6,11.9-9.4,17.6c-9,15.2-19.7,29.2-31.8,41.8c-5.3,5.5-10.9,10.7-16.7,15.7c-11,9.4-22.9,17.7-35.6,24.9
		c-33,18.6-71.1,29.2-111.7,29.2c-14.5,0-28.8-1.4-42.6-4c-33.9-6.4-65.1-20.3-91.8-39.9c-3.9-2.8-7.7-5.8-11.4-8.9
		c-16.8-14-31.6-30.4-43.7-48.7c-9.6-14.4-17.6-30-23.8-46.5c-2.7-7.2-5-14.6-7-22.1c-3.6-14-6-28.5-6.9-43.4
		c-0.2-2.6-0.3-5.1-0.3-7.7C0,231.8,0,229.7,0,227.6c0-2.9,0.1-5.7,0.2-8.6c0.7-17.5,3.3-34.5,7.6-50.7c4.6-16.9,11-33,19.1-48.2
		c2.4-4.6,5-9,7.8-13.4c2.6-4.2,5.4-8.3,8.3-12.3c32.1,14.8,65.1,46.3,89,109.1c34.4,90.2,96.2,144.3,166.2,154.8
		C341.5,364.9,387.9,354.7,432.9,326.2z"/>
	
		<linearGradient id="SVGID_00000089542182219382828290000006733123163252638630_" gradientUnits="userSpaceOnUse" x1="264.1986" y1="461.2299" x2="228.4505" y2="253.158">
		<stop  offset="0" style="stop-color:#116E6B"/>
		<stop  offset="1" style="stop-color:#12666B;stop-opacity:0"/>
	</linearGradient>
	
		<radialGradient id="SVGID_00000053512682054462674830000005124919375652865203_" cx="227.3653" cy="343.6147" r="179.5725" gradientUnits="userSpaceOnUse">
		<stop  offset="0" style="stop-color:#BFD88C"/>
		<stop  offset="1" style="stop-color:#49B7A1"/>
	</radialGradient>
	
		<path style="opacity:0.5;fill:url(#SVGID_00000089542182219382828290000006733123163252638630_);stroke:url(#SVGID_00000053512682054462674830000005124919375652865203_);stroke-miterlimit:10;" d="
		M454.6,245.6c-0.9,11.8-2.7,23.3-5.4,34.5c-3.8,16.1-9.3,31.6-16.3,46.1c-2.9,6-6,11.9-9.4,17.6c-9,15.2-19.7,29.2-31.8,41.8
		c-5.3,5.5-10.9,10.7-16.7,15.7c-11,9.4-22.9,17.7-35.6,24.9c-33,18.6-71.1,29.2-111.7,29.2c-14.5,0-28.8-1.4-42.6-4
		c-33.9-6.4-65.1-20.3-91.8-39.9c-3.9-2.8-7.7-5.8-11.4-8.9c-16.8-14-31.6-30.4-43.7-48.7c-9.6-14.4-17.6-30-23.8-46.5
		c-2.7-7.2-5-14.6-7-22.1c-3.6-14-6-28.5-6.9-43.4c-0.2-2.6-0.3-5.1-0.3-7.7c22,49.2,61.9,96.7,132.6,123.8
		c60.4,23.1,116.6,18.5,165.5,0.7C367.5,333.2,422.4,281.8,454.6,245.6z"/>
	
		<linearGradient id="SVGID_00000041274573081402921610000016901602907481817738_" gradientUnits="userSpaceOnUse" x1="424.5998" y1="-109.6841" x2="202.1423" y2="245.4679">
		<stop  offset="0" style="stop-color:#D3E3A8"/>
		<stop  offset="1" style="stop-color:#D3E3A8;stop-opacity:0"/>
	</linearGradient>
	<path style="fill:url(#SVGID_00000041274573081402921610000016901602907481817738_);" d="M454.6,245.1
		c-0.1-4.8-3-117.1-137.9-185.6C156.3-21.9,53.4,81.6,51.1,83.9c86-105.8,245.8-112.7,340.6-14.1
		C436.8,116.7,459.5,180.1,454.6,245.1z"/>
</g>
<path class="st12" d="M413.6,150.1C382.3,76.6,309.5,26,227.3,26C115.3,26,26.5,118.5,26.5,228.7c0,111.1,89.8,201.1,200.8,201.1
	c110.2,0,202.4-89.1,202.4-201.1C429.6,201.5,424.2,175.1,413.6,150.1 M356.7,216.8c-3.7-10.6-12.3-18.8-23.1-22.1
	c-1-11.9-2.7-23.5-4.8-34.7c28.2,9.6,65.7,28.8,75.1,56.8H356.7z M323.5,240.5c0,0-0.1,0-0.1,0c-0.2,0-0.4,0-0.6,0
	c-6.2-0.3-11.2-5.5-11.2-11.8v0v0c0-6.2,4.9-11.4,11-11.8c0,0,0.1,0,0.1,0c0.2,0,0.5,0,0.7,0c0,0,0.1,0,0.1,0
	c6.4,0.1,11.7,5.3,11.7,11.8S329.9,240.4,323.5,240.5 M310,195.8c-9.4,3.8-16.7,11.5-20.1,21.1h-50.9v-72.4c22.4,0.7,44,3.5,64,8.2
	C306.3,166.3,308.6,180.7,310,195.8 M149.5,167.6c11.9-1.7,21.9-9.3,27-19.7c12.7-1.8,25.7-2.9,39-3.4v72.3h-70.7
	C145.3,199.9,146.9,183,149.5,167.6 M239.1,120.8V51.6c22.6,7.5,43.3,35.9,56.7,75.3C277.7,123.5,258.6,121.4,239.1,120.8
	 M215.4,51.6v69.2c-12.4,0.4-24.6,1.3-36.5,2.8c-1.8-7.1-5.8-13.4-11.2-18.1C180.6,76.7,197.7,57.6,215.4,51.6 M144.6,120.6
	c6.5,0,11.8,5.3,11.8,11.8c0,6.5-5.3,11.8-11.8,11.8c-6.5,0-11.8-5.3-11.8-11.8C132.8,125.9,138.1,120.6,144.6,120.6 M123.1,160.6
	c1.1,0.8,2.2,1.6,3.3,2.3c-2.9,16.9-4.7,35.5-5.2,54H52C59.1,194.9,85.3,173.9,123.1,160.6 M121.1,240.5c0.6,19.6,2.6,38.4,5.8,55.9
	c-39.5-13-67.6-33.3-74.9-55.9H121.1z M144.8,240.5h70.7v49.4c-9.6,3.4-17.2,10.8-21,20.1c-14.7-1.3-28.7-3.6-41.9-6.5
	C148.1,283.8,145.5,262.5,144.8,240.5 M227.3,335.1c-6.5,0-11.7-5.2-11.8-11.7c0,0,0-0.1,0-0.1c0-0.2,0-0.4,0-0.6
	c0.3-6.3,5.5-11.3,11.8-11.3c6.3,0,11.5,5,11.8,11.3c0,0.2,0,0.4,0,0.6c0,0,0,0.1,0,0.1C239,329.9,233.7,335.1,227.3,335.1
	 M193.4,333.6c3.3,10.8,11.5,19.4,22.1,23.1v47.3c-28-9.4-46.7-47-55.9-75C170.5,331.1,181.8,332.6,193.4,333.6 M239.1,404.2v-47.4
	c10.5-3.7,18.8-12.3,22.1-23.1c12-1.1,23.7-2.7,35.1-4.8C286.7,357.1,267.4,395,239.1,404.2 M260.1,310c-3.8-9.4-11.5-16.8-21-20.1
	v-49.4h50.9c3.4,9.6,10.8,17.3,20.1,21.1c-1.3,14.4-3.5,28.4-6.6,41.7C289.7,306.3,275.1,308.6,260.1,310 M333.7,262.6
	c10.7-3.3,19.3-11.7,23.1-22.3H404c-9.3,27.6-47.1,46.5-74.9,55.8C331.1,285.2,332.6,274,333.7,262.6 M395.6,168.4
	c-20.7-16.4-47.4-27.8-73-35.1c-7.3-25.7-18.7-52.4-35.2-73.2C337.6,78.1,377.6,118.1,395.6,168.4 M167.1,60.3
	c-7.9,10.2-15.2,22.5-21.4,36.7c-0.4,0-0.7,0-1.1,0c-22.5,0-39.6,21-34.6,43.2c-19.5,7.4-36.1,16.7-49.3,27.2
	C78.7,117.8,117.8,78.3,167.1,60.3 M60.6,288.8c20.6,16.2,47,27.1,72.4,34.2c8.1,29.4,19.9,54.3,34.3,72.6
	C117.8,377.7,78.4,338.3,60.6,288.8 M287.8,395.6c16.6-20.8,27.8-47.5,35-72.9c25.3-7,52-18.1,72.7-34.3
	C377.6,338.1,337.9,377.6,287.8,395.6"/>
</svg>
