<?xml version="1.0" encoding="utf-8"?>
<!-- Generator: Adobe Illustrator 28.1.0, SVG Export Plug-In . SVG Version: 6.00 Build 0)  -->
<svg version="1.1" id="Calque_1" xmlns="http://www.w3.org/2000/svg" xmlns:xlink="http://www.w3.org/1999/xlink" x="0px" y="0px"
	 viewBox="0 0 240 239.8" style="enable-background:new 0 0 240 239.8;" xml:space="preserve">
<style type="text/css">
	.st0{fill:url(#SVGID_1_);}
	.st1{opacity:0.75;}
	.st2{fill:#198F38;}
	.st3{fill:url(#SVGID_00000111161069931740804910000002078056800975911871_);}
	.st4{fill:url(#SVGID_00000109741513852578825210000015006998770356663459_);}
	.st5{fill:url(#SVGID_00000039844971004695571970000010407585487320964225_);}
	.st6{fill:url(#SVGID_00000033348550025480866110000007268662465376192904_);}
	.st7{fill:url(#SVGID_00000131369747698930066020000005706978646943443635_);}
	.st8{opacity:0.5;fill:#198F38;}
	.st9{fill:url(#SVGID_00000090998316755669610110000005496065377210435465_);}
	.st10{opacity:0.45;fill:url(#SVGID_00000111871063453620374480000014297941123236288939_);}
	.st11{opacity:0.45;fill:url(#SVGID_00000152263826556575927780000017967235943698054842_);}
	.st12{fill:url(#SVGID_00000003100953566253481390000017955923377475049903_);}
	.st13{fill:#1E1E1C;}
</style>
<g>
	<radialGradient id="SVGID_1_" cx="126.0155" cy="72.949" r="145.5239" gradientUnits="userSpaceOnUse">
		<stop  offset="0" style="stop-color:#C1D23D"/>
		<stop  offset="1" style="stop-color:#4BAD33"/>
	</radialGradient>
	<path class="st0" d="M120.1,239.8c-45.2,0-84.6-25.1-105.1-62.1C-30,96.1,32.1-2.9,122.7,0c57.7,1.2,106.3,43.7,115.6,100.2
		C250.6,173.1,194.2,239.8,120.1,239.8z"/>
	<g class="st1">
		<path class="st2" d="M167.7,139.3c-5-1.2-6.3,4.9-3.5,6.3c2.8,1.4,9.9,5.6,11.3,2.8C176.9,145.6,173.3,140.7,167.7,139.3z"/>
		<path class="st2" d="M217.1,87.1c-4.8,1.1-10.6,3.5-5.6,7.1c4.9,3.5,12.7,2.1,13.4-2.1C225.5,87.8,226.2,85,217.1,87.1z"/>
		<path class="st2" d="M120.4,200.6c-10.4-6.2-25.4-8.5-26.8-2.1c-1.4,6.3,8.5,16.2,20.5,14.8C126.1,211.9,127.5,204.9,120.4,200.6z
			"/>
		<path class="st2" d="M154.2,234.9c-9.3,2.8-19.1,4.4-29.3,4.8c2.3-14.7,16.3-10.1,23.8-8C150.8,232.3,152.6,233.5,154.2,234.9z"/>
		<path class="st2" d="M54.8,199.9c4.6,2,7.8-7.8,1.4-16.2c-6.3-8.5-9.2-19-16.9-21.2C31.6,160.4,27.3,187.9,54.8,199.9z"/>
		<path class="st2" d="M23.8,165.4c-2.5,0.5-3.5,5.6,2.1,6.3C31.6,172.4,31.6,164,23.8,165.4z"/>
		<path class="st2" d="M86.6,136.4c-5-0.5-9.9,2.1-9.2,7.8c0.7,5.6,8.5,0,12,0C92.9,144.2,94.3,137.2,86.6,136.4z"/>
		<path class="st2" d="M135.2,70.9c-4.3-2-4.9,7.1-1.4,8.5C137.4,80.7,147.2,76.5,135.2,70.9z"/>
	</g>
	<g>
		
			<linearGradient id="SVGID_00000175299331575026346010000012544516547727649433_" gradientUnits="userSpaceOnUse" x1="41.2779" y1="-64.9982" x2="68.7852" y2="279.8968">
			<stop  offset="0" style="stop-color:#ECE541"/>
			<stop  offset="1" style="stop-color:#ECE541;stop-opacity:0"/>
		</linearGradient>
		<path style="fill:url(#SVGID_00000175299331575026346010000012544516547727649433_);" d="M90.1,116.7c-24,4.2-27.5,4.9-49.4,23.3
			c-14.5,12.1-29.6,8.2-38.1,4.2c-1.6-7.8-2.5-16-2.5-24.3c0-34.1,14.2-64.9,37.1-86.7c4.7,2.8,9.6,6.6,13.3,11.6
			c10.6,14.1,8.5,19.7,39.5,36C121.1,96.9,114.1,112.5,90.1,116.7z"/>
		
			<linearGradient id="SVGID_00000092418022918556644250000003513163913888890752_" gradientUnits="userSpaceOnUse" x1="175.8325" y1="-75.7296" x2="203.3398" y2="269.1655">
			<stop  offset="0" style="stop-color:#ECE541"/>
			<stop  offset="1" style="stop-color:#ECE541;stop-opacity:0"/>
		</linearGradient>
		<path style="fill:url(#SVGID_00000092418022918556644250000003513163913888890752_);" d="M228.4,68.5
			c-22.1-4.6-37.2,20.4-52.3,18.6c-17.6-2.1-12.7-28.2-27.5-55.7C141.2,17.6,140.7,8.1,142,2C180.3,9.1,212.2,34.3,228.4,68.5z"/>
		
			<linearGradient id="SVGID_00000058581130729413721620000012193242610099411584_" gradientUnits="userSpaceOnUse" x1="186.5161" y1="-76.5819" x2="214.0234" y2="268.313">
			<stop  offset="0" style="stop-color:#ECE541"/>
			<stop  offset="1" style="stop-color:#ECE541;stop-opacity:0"/>
		</linearGradient>
		<path style="fill:url(#SVGID_00000058581130729413721620000012193242610099411584_);" d="M240,119.9c0,46.5-26.5,86.9-65.2,106.7
			c-8.8-14,5.5-24.3,22.6-35.2c21.2-13.4,1.4-19,4.9-40.9c3.5-21.9-9.9-23.3-3.5-41.6c4.5-13.1,28.1-0.7,41.2,7.5
			C240,117.6,240,118.7,240,119.9z"/>
		
			<linearGradient id="SVGID_00000099651489629733961040000011044993236618108544_" gradientUnits="userSpaceOnUse" x1="102.4955" y1="-69.8806" x2="130.0028" y2="275.0151">
			<stop  offset="0" style="stop-color:#ECE541"/>
			<stop  offset="1" style="stop-color:#ECE541;stop-opacity:0"/>
		</linearGradient>
		<path style="fill:url(#SVGID_00000099651489629733961040000011044993236618108544_);" d="M127.5,156.2c-12.8,4-19.7-11.3-36-7.8
			c-16.2,3.5-29.6,32.4-7.8,31.7c21.9-0.7,27.5-3.5,43.7,7.8c16.2,11.3,35.3,3.5,40.9-14.1C174,156.2,170.5,142.8,127.5,156.2z"/>
		
			<linearGradient id="SVGID_00000163033970606636606150000017976044192178050706_" gradientUnits="userSpaceOnUse" x1="148.9257" y1="-73.5842" x2="176.433" y2="271.3122">
			<stop  offset="0" style="stop-color:#ECE541"/>
			<stop  offset="1" style="stop-color:#ECE541;stop-opacity:0"/>
		</linearGradient>
		<path style="fill:url(#SVGID_00000163033970606636606150000017976044192178050706_);" d="M154.3,103.3c-6.8,2.1-8.5,5.6-6.3,9.9
			c2.1,4.2,10.6,3.5,14.8,9.9c4.2,6.3,14.8,14.1,17.6,0C183.2,108.9,169.8,98.4,154.3,103.3z"/>
		<path class="st8" d="M129.6,66.6c-1.3,9.4-9.9,0-24-2.8C91.5,61,85.9,52.5,92.2,46.9c6.3-5.6,14.8-9.9,23.3-4.9S131,56,129.6,66.6
			z"/>
		
			<linearGradient id="SVGID_00000094576532397343452020000014328619004890960298_" gradientUnits="userSpaceOnUse" x1="80.4345" y1="-68.1214" x2="107.9418" y2="276.774">
			<stop  offset="0" style="stop-color:#ECE541"/>
			<stop  offset="1" style="stop-color:#ECE541;stop-opacity:0"/>
		</linearGradient>
		<path style="fill:url(#SVGID_00000094576532397343452020000014328619004890960298_);" d="M114.8,10.9c-17.6,0-26.1,9.9-42.3,15.5
			c-9.7,3.4-17.3-0.5-21.9-4.2C70.1,8.2,94.1,0,120.1,0c0.9,0,1.8,0,2.7,0C124,5.1,123.5,10.9,114.8,10.9z"/>
	</g>
	
		<linearGradient id="SVGID_00000008840015644575444900000006496089028986329497_" gradientUnits="userSpaceOnUse" x1="101.8361" y1="275.1139" x2="119.8214" y2="111.1297">
		<stop  offset="0" style="stop-color:#188F38"/>
		<stop  offset="1" style="stop-color:#188F38;stop-opacity:0.3"/>
	</linearGradient>
	<path style="opacity:0.45;fill:url(#SVGID_00000008840015644575444900000006496089028986329497_);" d="M234.3,156.6
		c-9.8,30.5-31.4,55.7-59.5,70.1c-6.5,3.4-13.4,6.1-20.6,8.2c-9.3,2.8-19.1,4.4-29.3,4.8c-1.6,0.1-3.2,0.1-4.8,0.1
		c-45.2,0-84.6-25.1-105.1-62.1c-5.7-10.4-9.9-21.6-12.4-33.6c-1.6-7.8-2.5-16-2.5-24.3c0-14.5,2.6-28.4,7.3-41.2
		C21,119.2,52,171.4,122.6,181.1c13.8,1.9,26.6,2.1,38.7,1.1C190.7,179.7,215,169.4,234.3,156.6z"/>
	
		<linearGradient id="SVGID_00000015346507420061312000000017609717541591925943_" gradientUnits="userSpaceOnUse" x1="113.9284" y1="268.0642" x2="134.0296" y2="96.6744">
		<stop  offset="0" style="stop-color:#176F38"/>
		<stop  offset="1" style="stop-color:#16663C;stop-opacity:0.3"/>
	</linearGradient>
	<path style="opacity:0.45;fill:url(#SVGID_00000015346507420061312000000017609717541591925943_);" d="M240,119.9
		c0,12.8-2,25.1-5.7,36.7c-9.8,30.5-31.4,55.7-59.5,70.1c-6.5,3.4-13.4,6.1-20.6,8.2c-9.3,2.8-19.1,4.4-29.3,4.8
		c-1.6,0.1-3.2,0.1-4.8,0.1c-45.2,0-84.6-25.1-105.1-62.1c20.7,8.5,45.4,14.3,74.7,15.5c28.4,1.1,52-3.3,71.5-11
		c42-16.6,65.4-48.7,78-75.2c0.3,3.1,0.5,6.2,0.6,9.4C240,117.6,240,118.7,240,119.9z"/>
	
		<linearGradient id="SVGID_00000060029954384292430050000017443224531892588421_" gradientUnits="userSpaceOnUse" x1="207.1485" y1="-66.0822" x2="131.6767" y2="82.7453">
		<stop  offset="0" style="stop-color:#E0E9B1"/>
		<stop  offset="1" style="stop-color:#FBF5B5;stop-opacity:0"/>
	</linearGradient>
	<path style="fill:url(#SVGID_00000060029954384292430050000017443224531892588421_);" d="M238.4,100.2c0,0-17.1-62.5-95.6-83.1
		c-47.1-12.4-79.7-1.2-98.3,9.7c59.4-48.5,150.3-29.2,184,41.7C236.3,85,237.8,98,238.4,100.2z"/>
</g>
<g>
	<path class="st13" d="M27.6,148.9l0.7,41.4l2.1-0.2l0,0.2l3.2-0.5l7.1-0.6l0-0.1l23.4-1.9l-2.8-37.7L27.6,148.9z M50.9,178.8
		c0-2.4,1.8-4.3,4-4.3s4,1.9,4,4.3c0,2.4-1.8,4.3-4,4.3S50.9,181.2,50.9,178.8"/>
	<polygon class="st13" points="93.3,140.7 108.8,140.2 130.5,144.1 156.1,144.1 160.7,144.1 162.5,145.5 162.3,145.8 164,147.3 
		163.3,152.1 153.4,155.6 139,159.3 111.9,158.4 106.2,161.7 111.8,162.7 139.3,163.6 154.4,159.7 166.5,155.4 168,145.3 
		165.6,143.3 168.9,142.1 193.9,125.9 201.3,124 203.8,131.5 194.4,143 161.6,173.9 138.4,188.1 123.8,189.8 102,186.9 87.6,182.2 
		76.6,184 67.4,185.1 65,152 75.9,152.8 	"/>
	<path class="st13" d="M181.3,126.7c1.4-1.5,1.4-3.9-0.1-5.4l-35.4-35.4c-0.7-0.7-1.7-1.1-2.7-1.1c-0.1,0-0.2,0-0.4,0l23.6-24
		l5.4,0.3l5.9-12.2l-4.8-4.9l-10.5,5.8l-1.2,5.3l-25.6,26l-18.8-18.9c1.4-1.5,1.4-3.9-0.1-5.4l-2.8-2.9c0.7-1.2,0.5-2.9-0.6-3.9
		l-1.8-1.8c1.6-1.2,3.9-1.8,6.7-1.8c2.9,0,5.3,0.7,5.4,0.7l0.1,0c0.5,0.1,0.9,0.1,1.3,0.1c0.3,0,1.2,0,1.6-0.7
		c0.3-0.7-0.3-1.6-0.9-2.2c0,0-0.1-0.1-0.1-0.1l0.3-0.2l-0.7-0.5c-3.6-2.5-7.5-3.8-11.6-3.8c-4.9,0-8.9,1.9-10.4,2.7
		c-0.3,0.1-0.7,0.3-0.9,0.6l-1.1,0.8l-0.1,0.5L90.4,54.9c-0.3,0.3-0.5,0.6-0.6,1L89.4,56l0,0.5c0,0.1-0.1,6.3-3.3,7.9
		c-2,1-3.8,1.7-4.9,2.1c-0.9,0-1.7,0.3-2.3,0.9l-1.8,1.9c-0.6,0.6-0.9,1.3-0.9,2.1c0,0.8,0.3,1.6,0.8,2.1l7.1,7.1
		c0.5,0.5,1.2,0.8,2,0.8c0.8,0,1.6-0.3,2.2-0.9l1.8-1.9c0.8-0.8,1.1-2,0.8-3.1c1.3-2.6,4.1-5.9,10.1-7.7c0.9-0.3,1.6-0.6,2.3-0.9
		l1.8,1.8c0.7,0.7,1.7,1.1,2.7,1.1c0.9,0,1.7-0.3,2.4-0.9l13.1,13.2l-34.3,34.9c-0.7,0.7-1.1,1.7-1.1,2.7c0,1,0.4,2,1.1,2.7
		l11.2,11.4c0.7,0.7,1.7,1.1,2.7,1.1c1,0,1.9-0.4,2.6-1.1l32.2-32.7l32,32.1c0.7,0.7,1.7,1.1,2.7,1.1c1,0,1.9-0.4,2.6-1.1
		L181.3,126.7z M103.9,127.1c-0.3,0-0.6-0.1-0.8-0.3c-0.2-0.2-0.3-0.5-0.3-0.8c0-0.3,0.1-0.6,0.3-0.8l27.5-28
		c0.2-0.2,0.5-0.3,0.7-0.3c0.3,0,0.6,0.1,0.8,0.3c0.4,0.4,0.5,1.2,0,1.6l-27.5,28C104.5,127,104.2,127.1,103.9,127.1 M125.2,91.4
		l-27.5,28c-0.2,0.2-0.5,0.3-0.7,0.3c-0.3,0-0.6-0.1-0.8-0.3c-0.2-0.2-0.3-0.5-0.3-0.8c0-0.3,0.1-0.6,0.3-0.8l27.5-28
		c0.2-0.2,0.5-0.3,0.7-0.3c0.3,0,0.6,0.1,0.8,0.3C125.6,90.3,125.6,91,125.2,91.4"/>
</g>
</svg>
