<?xml version="1.0" encoding="utf-8"?>
<!-- Generator: Adobe Illustrator 28.1.0, SVG Export Plug-In . SVG Version: 6.00 Build 0)  -->
<svg version="1.1" id="Calque_1" xmlns="http://www.w3.org/2000/svg" xmlns:xlink="http://www.w3.org/1999/xlink" x="0px" y="0px"
	 viewBox="0 0 306.7 304.3" style="enable-background:new 0 0 306.7 304.3;" xml:space="preserve">
<style type="text/css">
	.st0{fill:url(#SVGID_1_);}
	.st1{fill:url(#SVGID_00000025428495563055299510000002030280674254924446_);}
	.st2{fill:url(#SVGID_00000054978959980577644110000008339388348633385349_);}
	.st3{fill:url(#SVGID_00000161623980681037038330000006110408050558516403_);}
	.st4{fill:url(#SVGID_00000174593887566682082600000016649540829084968883_);}
	.st5{fill:url(#SVGID_00000029734008597006901400000005794343524174118055_);}
	.st6{fill:url(#SVGID_00000108291322768267586630000000123885587378831022_);}
	.st7{fill:url(#SVGID_00000171715401654045075000000014188070310644377746_);}
	.st8{fill:url(#SVGID_00000142895125309775911940000011760849104129741706_);}
	.st9{fill:url(#SVGID_00000079487779649290256350000001972037326267638669_);}
	.st10{fill:url(#SVGID_00000165196998794627733150000016842563132696853430_);}
	.st11{fill:url(#SVGID_00000047054843677837762020000003675862818857786284_);}
	.st12{fill:url(#SVGID_00000036933498431291357060000003357827485893264558_);}
	.st13{fill:url(#SVGID_00000003085376376288103180000000092703168111748502_);}
	.st14{fill:url(#SVGID_00000146490208884798516970000014641868832191973024_);}
	.st15{fill:url(#SVGID_00000008860366940746816530000011405837764325452726_);}
	.st16{fill:url(#SVGID_00000153682661319522822400000004424905611005173937_);}
	.st17{fill:url(#SVGID_00000123426597800302878970000017534187806184323251_);}
	.st18{fill:url(#SVGID_00000016073364221734750170000015959196236299993999_);}
	.st19{opacity:0.45;fill:url(#SVGID_00000035503855390862415010000011830869749956666520_);}
	.st20{opacity:0.55;fill:url(#SVGID_00000005960308427886417250000006284141074979769477_);}
	.st21{fill:url(#SVGID_00000056424380435658775500000008859369483225395075_);}
	.st22{fill:url(#SVGID_00000163068497504662809730000003505662322347678901_);}
	.st23{fill:#1E1E1C;}
</style>
<g>
	<radialGradient id="SVGID_1_" cx="164.1887" cy="87.0732" r="182.8478" gradientUnits="userSpaceOnUse">
		<stop  offset="0" style="stop-color:#F6B5B6"/>
		<stop  offset="1" style="stop-color:#E83859"/>
	</radialGradient>
	<path class="st0" d="M306.7,153.4C306.7,277,168.4,348.2,68,280.8c-88.6-59.4-91-189.3-4.2-251.9c0,0,0,0,0.1,0
		c0.1-0.1,0.1-0.1,0.1-0.1c0.1-0.1,0.1-0.1,0.2-0.1C164.1-43,306.7,27.6,306.7,153.4z"/>
	<g>
		
			<linearGradient id="SVGID_00000183244964660039167270000016665830919335735711_" gradientUnits="userSpaceOnUse" x1="16.2841" y1="343.6298" x2="73.1065" y2="-54.1268">
			<stop  offset="0" style="stop-color:#BE2C3B"/>
			<stop  offset="1" style="stop-color:#E32C58;stop-opacity:0"/>
		</linearGradient>
		<path style="fill:url(#SVGID_00000183244964660039167270000016665830919335735711_);" d="M88.4,153.4c0.9,9-30.7,0-50.5,0
			c-13.3,0-27.3,2.4-37.9-1.1c0.1-14.6,2.2-28.6,6.1-42c5.4-0.7,14.5,0.8,28.2,11.5C58.6,140.8,87.5,144.4,88.4,153.4z"/>
		
			<linearGradient id="SVGID_00000035526251469865136820000011140705387240532402_" gradientUnits="userSpaceOnUse" x1="182.0812" y1="367.315" x2="238.9035" y2="-30.4409">
			<stop  offset="0" style="stop-color:#BE2C3B"/>
			<stop  offset="1" style="stop-color:#E32C58;stop-opacity:0"/>
		</linearGradient>
		<path style="fill:url(#SVGID_00000035526251469865136820000011140705387240532402_);" d="M193.9,172.3
			c-22.5-1.8-47.8-8.1-52.3-3.6c-4.5,4.5,36.4,16,74,22.5c41.5,7.2,67.6,9.9,58.6-1.8c-9-11.7-23.5-26.2-46-18.9
			C205.7,177.7,206.5,173.3,193.9,172.3z"/>
		
			<linearGradient id="SVGID_00000035515683681202561700000004655966185691575174_" gradientUnits="userSpaceOnUse" x1="75.1749" y1="352.0435" x2="131.9972" y2="-45.7132">
			<stop  offset="0" style="stop-color:#BE2C3B"/>
			<stop  offset="1" style="stop-color:#E32C58;stop-opacity:0"/>
		</linearGradient>
		<path style="fill:url(#SVGID_00000035515683681202561700000004655966185691575174_);" d="M192.1,235.5c0,9.8-89.3-16.2-119.1-4.5
			c-22.2,8.8-29.4,15-42.8,13.8c-15.9-21.4-26.3-47-29.3-74.9c7.8,2.9,21.2,8.7,42.4,19.5C82.1,209.3,192.1,221.9,192.1,235.5z"/>
		
			<linearGradient id="SVGID_00000182503613681041682060000014262314215777102250_" gradientUnits="userSpaceOnUse" x1="195.5784" y1="369.2437" x2="252.401" y2="-28.5147">
			<stop  offset="0" style="stop-color:#BE2C3B"/>
			<stop  offset="1" style="stop-color:#E32C58;stop-opacity:0"/>
		</linearGradient>
		<path style="fill:url(#SVGID_00000182503613681041682060000014262314215777102250_);" d="M262.6,261
			c-11.7,11.8-25.2,21.8-40.2,29.3c-4-3.6-8-7.7-14-9.8c-15.3-5.4-55.9-15.3-47.8-20.7c8.1-5.4,34.3-1.8,64.9-3.6
			C244.1,255.1,256,258.3,262.6,261z"/>
		
			<linearGradient id="SVGID_00000073702669917099774310000015564624140648959382_" gradientUnits="userSpaceOnUse" x1="213.4325" y1="371.7944" x2="270.2549" y2="-25.9625">
			<stop  offset="0" style="stop-color:#BE2C3B"/>
			<stop  offset="1" style="stop-color:#E32C58;stop-opacity:0"/>
		</linearGradient>
		<path style="fill:url(#SVGID_00000073702669917099774310000015564624140648959382_);" d="M249.9,236.4c-10.8-11.5-41.5-9-37,1.8
			C215.3,244.1,264.3,251.7,249.9,236.4z"/>
		
			<linearGradient id="SVGID_00000042016319975450595830000005467220330190825656_" gradientUnits="userSpaceOnUse" x1="100.402" y1="355.6473" x2="157.2246" y2="-42.1113">
			<stop  offset="0" style="stop-color:#BE2C3B"/>
			<stop  offset="1" style="stop-color:#E32C58;stop-opacity:0"/>
		</linearGradient>
		<path style="fill:url(#SVGID_00000042016319975450595830000005467220330190825656_);" d="M119.1,252.6c-13.4-3-22.5,2.7-24.4,7.2
			c-1.8,4.5,37,10.8,37.9,6.3C133.5,261.6,127.2,254.4,119.1,252.6z"/>
		
			<linearGradient id="SVGID_00000002377449229249102810000001452464242662933947_" gradientUnits="userSpaceOnUse" x1="83.179" y1="353.1875" x2="140.0017" y2="-44.5713">
			<stop  offset="0" style="stop-color:#BE2C3B"/>
			<stop  offset="1" style="stop-color:#E32C58;stop-opacity:0"/>
		</linearGradient>
		<path style="fill:url(#SVGID_00000002377449229249102810000001452464242662933947_);" d="M113.7,175c-8.9-2.2-25.3,1.8-25.3,7.2
			c0,5.4,21.6,11.7,30.7,9C128.1,188.6,131.7,179.5,113.7,175z"/>
		
			<linearGradient id="SVGID_00000143604507538659623670000001492623616436418219_" gradientUnits="userSpaceOnUse" x1="105.5396" y1="356.381" x2="162.362" y2="-41.3757">
			<stop  offset="0" style="stop-color:#BE2C3B"/>
			<stop  offset="1" style="stop-color:#E32C58;stop-opacity:0"/>
		</linearGradient>
		<path style="fill:url(#SVGID_00000143604507538659623670000001492623616436418219_);" d="M129,192.2c-2.7-0.4-6.3,2.7-4.5,5.4
			C126.3,200.3,139.8,194,129,192.2z"/>
		
			<linearGradient id="SVGID_00000010274560337245408980000011163522427361496744_" gradientUnits="userSpaceOnUse" x1="198.3114" y1="369.6356" x2="255.1343" y2="-28.1246">
			<stop  offset="0" style="stop-color:#BE2C3B"/>
			<stop  offset="1" style="stop-color:#E32C58;stop-opacity:0"/>
		</linearGradient>
		<path style="fill:url(#SVGID_00000010274560337245408980000011163522427361496744_);" d="M220.1,217.4c-5.8-1.7-9.9,0.9-7.2,6.3
			C215.6,229.1,238.1,222.8,220.1,217.4z"/>
		
			<linearGradient id="SVGID_00000147906681055661013510000007127740512700377232_" gradientUnits="userSpaceOnUse" x1="243.5367" y1="376.093" x2="300.3582" y2="-21.6581">
			<stop  offset="0" style="stop-color:#BE2C3B"/>
			<stop  offset="1" style="stop-color:#E32C58;stop-opacity:0"/>
		</linearGradient>
		<path style="fill:url(#SVGID_00000147906681055661013510000007127740512700377232_);" d="M262.5,245.4c-3.2-3.2-5.4,2.7-3.6,4.5
			C260.7,251.7,269.7,252.6,262.5,245.4z"/>
		
			<linearGradient id="SVGID_00000101063606945003882900000016896575303718067880_" gradientUnits="userSpaceOnUse" x1="114.8598" y1="357.7123" x2="171.6821" y2="-40.0437">
			<stop  offset="0" style="stop-color:#BE2C3B"/>
			<stop  offset="1" style="stop-color:#E32C58;stop-opacity:0"/>
		</linearGradient>
		<path style="fill:url(#SVGID_00000101063606945003882900000016896575303718067880_);" d="M180.4,304.3c-8.8,1.6-17.8,2.4-27,2.4
			c-31.6,0-61-9.6-85.4-25.9c18.1-5.2,48.1-1,78.1,13.3C160.1,300.7,171.6,303.5,180.4,304.3z"/>
		
			<linearGradient id="SVGID_00000045593896902633697580000005947610581219797676_" gradientUnits="userSpaceOnUse" x1="175.6838" y1="366.4005" x2="232.5054" y2="-31.3509">
			<stop  offset="0" style="stop-color:#BE2C3B"/>
			<stop  offset="1" style="stop-color:#E32C58;stop-opacity:0"/>
		</linearGradient>
		<path style="fill:url(#SVGID_00000045593896902633697580000005947610581219797676_);" d="M186.7,287.8c-4.6,0-4.5,2.7-4.5,5.4
			c0,2.7,4.5,3.6,7.2,0C192.1,289.6,190.3,287.8,186.7,287.8z"/>
		
			<linearGradient id="SVGID_00000093146689983655476120000015359799430803207050_" gradientUnits="userSpaceOnUse" x1="165.4375" y1="364.9379" x2="222.26" y2="-32.8197">
			<stop  offset="0" style="stop-color:#BE2C3B"/>
			<stop  offset="1" style="stop-color:#E32C58;stop-opacity:0"/>
		</linearGradient>
		<path style="fill:url(#SVGID_00000093146689983655476120000015359799430803207050_);" d="M175,290.5c-1.8-0.3-2.7,4.5,0,5.4
			C177.7,296.8,180.4,291.4,175,290.5z"/>
		
			<linearGradient id="SVGID_00000049932929700915886080000016406597857990824376_" gradientUnits="userSpaceOnUse" x1="56.0599" y1="349.3112" x2="112.8817" y2="-48.4414">
			<stop  offset="0" style="stop-color:#BE2C3B"/>
			<stop  offset="1" style="stop-color:#E32C58;stop-opacity:0"/>
		</linearGradient>
		<path style="fill:url(#SVGID_00000049932929700915886080000016406597857990824376_);" d="M72.2,240.9c-6.3,1.3-15.3,5.4-7.2,10.8
			C73.1,257.1,90.2,237.3,72.2,240.9z"/>
		
			<linearGradient id="SVGID_00000077314753150149923570000012837273043023942825_" gradientUnits="userSpaceOnUse" x1="15.9828" y1="343.5876" x2="72.8052" y2="-54.1694">
			<stop  offset="0" style="stop-color:#BE2C3B"/>
			<stop  offset="1" style="stop-color:#E32C58;stop-opacity:0"/>
		</linearGradient>
		<path style="fill:url(#SVGID_00000077314753150149923570000012837273043023942825_);" d="M42.4,166c-3.3-3.3-5.4,5.4-3.6,6.3
			C40.6,173.2,46,169.6,42.4,166z"/>
		
			<linearGradient id="SVGID_00000170992294590696738090000017945133844052810924_" gradientUnits="userSpaceOnUse" x1="36.7771" y1="346.5565" x2="93.5994" y2="-51.1997">
			<stop  offset="0" style="stop-color:#BE2C3B"/>
			<stop  offset="1" style="stop-color:#E32C58;stop-opacity:0"/>
		</linearGradient>
		<path style="fill:url(#SVGID_00000170992294590696738090000017945133844052810924_);" d="M68.6,114.6c-8-4-18.9-7.2-20.7-3.6
			c-1.8,3.6,32.5,28,40.6,22.5C96.5,128.1,75.8,118.2,68.6,114.6z"/>
		
			<linearGradient id="SVGID_00000001647457667015748670000009258475601048258437_" gradientUnits="userSpaceOnUse" x1="173.1027" y1="366.0345" x2="229.9255" y2="-31.7252">
			<stop  offset="0" style="stop-color:#BE2C3B"/>
			<stop  offset="1" style="stop-color:#E32C58;stop-opacity:0"/>
		</linearGradient>
		<path style="fill:url(#SVGID_00000001647457667015748670000009258475601048258437_);" d="M201.1,153.4c-5.7-2.9-5.4,9.9,2.7,13.5
			C212,170.5,204.8,155.2,201.1,153.4z"/>
		
			<linearGradient id="SVGID_00000012465489391566501930000011823193785197471621_" gradientUnits="userSpaceOnUse" x1="262.2789" y1="378.7733" x2="319.1017" y2="-18.9862">
			<stop  offset="0" style="stop-color:#BE2C3B"/>
			<stop  offset="1" style="stop-color:#E32C58;stop-opacity:0"/>
		</linearGradient>
		<path style="fill:url(#SVGID_00000012465489391566501930000011823193785197471621_);" d="M289.5,168.7c-10.9-0.5-7.2,17.1,0,18.9
			C296.8,189.5,308.5,169.6,289.5,168.7z"/>
	</g>
	
		<linearGradient id="SVGID_00000012470280205320589970000001245323134338968734_" gradientUnits="userSpaceOnUse" x1="104.4685" y1="299.0054" x2="127.9202" y2="162.8054">
		<stop  offset="0" style="stop-color:#BE2C3B"/>
		<stop  offset="1" style="stop-color:#E32C58;stop-opacity:0"/>
	</linearGradient>
	<path style="opacity:0.45;fill:url(#SVGID_00000012470280205320589970000001245323134338968734_);" d="M239.5,280.2
		c-5.5,3.7-11.2,7.1-17.2,10.1c-13,6.6-27.1,11.4-42,14c-8.8,1.6-17.8,2.4-27,2.4c-31.6,0-61-9.6-85.4-25.9
		c-14.5-9.8-27.3-22-37.8-36c-2.3-3-4.4-6.2-6.5-9.4c-12.3-19.3-20.3-41.6-22.9-65.5C0.3,164.5,0,159,0,153.4c0-0.4,0-0.7,0-1.1
		c0.1-12,1.5-23.7,4.2-34.9C23.4,168,60,226,129.8,257.2c8.7,3.9,17.9,7.3,27.6,10.3C186.5,276.4,214,280.1,239.5,280.2z"/>
	
		<linearGradient id="SVGID_00000066496949832830199800000003726046533069060997_" gradientUnits="userSpaceOnUse" x1="184.4391" y1="313.7088" x2="156.9039" y2="204.2391">
		<stop  offset="0" style="stop-color:#A72B56"/>
		<stop  offset="1" style="stop-color:#AE2C58;stop-opacity:0"/>
	</linearGradient>
	<path style="opacity:0.55;fill:url(#SVGID_00000066496949832830199800000003726046533069060997_);" d="M297.9,204.5
		c-7.6,21.4-19.8,40.7-35.4,56.5c-7,7.1-14.7,13.6-23,19.2c-5.5,3.7-11.2,7.1-17.2,10.1c-13,6.6-27.1,11.4-42,14
		c-8.8,1.6-17.8,2.4-27,2.4c-31.6,0-61-9.6-85.4-25.9c-14.5-9.8-27.3-22-37.8-36c-2.3-3-4.4-6.2-6.5-9.4
		c39.2,13.7,74.5,20.3,106.1,21.8C206.9,260.7,261.8,233.5,297.9,204.5z"/>
	
		<linearGradient id="SVGID_00000025422753470259522520000000306887267395570068_" gradientUnits="userSpaceOnUse" x1="64.1798" y1="28.5332" x2="63.9226" y2="28.8939">
		<stop  offset="0" style="stop-color:#F9D1E2"/>
		<stop  offset="1" style="stop-color:#F4DDED;stop-opacity:0"/>
	</linearGradient>
	<path style="fill:url(#SVGID_00000025422753470259522520000000306887267395570068_);" d="M64.2,28.6c-0.1,0.1-0.2,0.1-0.3,0.2
		C64,28.8,64.1,28.7,64.2,28.6z"/>
	
		<linearGradient id="SVGID_00000183210857837267040850000012097718447924155801_" gradientUnits="userSpaceOnUse" x1="274.304" y1="-25.1405" x2="207.3791" y2="68.7228">
		<stop  offset="0" style="stop-color:#F9D1E2"/>
		<stop  offset="1" style="stop-color:#F4DDED;stop-opacity:0"/>
	</linearGradient>
	<path style="fill:url(#SVGID_00000183210857837267040850000012097718447924155801_);" d="M305.5,172c0.7-6.8,6.2-82.8-85.9-133.6
		c-91.8-50.6-150-13.5-155.5-9.8C89.3,10.6,120.1,0,153.3,0C245.6,0,316.7,80.9,305.5,172z"/>
</g>
<path class="st23" d="M262.4,69.4c-25.9-26-67.9-26-93.8,0l-15.2,15.2l-15.2-15.2c-25.9-26-67.9-26-93.8,0c-25.9,25.9-25.9,68,0,94
	l15.2,15.2l93.8,94l93.8-94l15.2-15.2C288.3,137.4,288.3,95.3,262.4,69.4 M244.1,142.8l-90.7,90.9l-90.7-90.9
	c-15.8-15.8-15.8-41.5,0-57.3c7.6-7.6,17.8-11.9,28.6-11.9c10.8,0,21,4.2,28.6,11.9l33.5,33.6l33.5-33.6
	c7.6-7.6,17.8-11.9,28.6-11.9c10.8,0,21,4.2,28.6,11.9C259.9,101.3,259.9,127,244.1,142.8"/>
</svg>
