<?xml version="1.0" encoding="utf-8"?>
<!-- Generator: Adobe Illustrator 28.1.0, SVG Export Plug-In . SVG Version: 6.00 Build 0)  -->
<svg version="1.1" id="Calque_1" xmlns="http://www.w3.org/2000/svg" xmlns:xlink="http://www.w3.org/1999/xlink" x="0px" y="0px"
	 viewBox="0 0 287.7 287.7" style="enable-background:new 0 0 287.7 287.7;" xml:space="preserve">
<style type="text/css">
	.st0{fill:url(#SVGID_1_);}
	.st1{fill:#F59B43;}
	.st2{fill:#EF903A;}
	.st3{fill:#E37C37;}
	.st4{opacity:0.35;fill:url(#SVGID_00000108289388513407575030000015990163502257445800_);}
	.st5{opacity:0.45;fill:url(#SVGID_00000111873552261573872330000014517097661980947348_);}
	.st6{fill:url(#SVGID_00000178196259632305685800000012661092575253788062_);}
	.st7{fill:#1E1E1C;}
</style>
<g>
	<radialGradient id="SVGID_1_" cx="137.4946" cy="67.6932" r="219.6462" gradientUnits="userSpaceOnUse">
		<stop  offset="0" style="stop-color:#FFE46A"/>
		<stop  offset="1" style="stop-color:#F6A24E"/>
	</radialGradient>
	<path class="st0" d="M287.7,143.8c0,8.4-0.7,16.6-2.1,24.6c-0.7,4.3-1.7,8.5-2.8,12.7c-6.1,22.9-17.8,43.5-33.4,60.3
		c-5.7,6.1-11.9,11.7-18.5,16.8c-6.1,4.7-12.7,8.9-19.5,12.5c-9.3,5-19.2,8.9-29.6,11.7c-12.1,3.3-24.8,5.1-38,5.1
		c-6,0-12-0.4-17.8-1.1c-48.7-6-89.9-36.4-111-78.6c-8.2-16.4-13.4-34.6-14.7-53.9c-0.2-3.4-0.4-6.8-0.4-10.3
		c0-21.7,4.8-42.3,13.4-60.7c7.7-16.5,18.4-31.3,31.5-43.6c12-11.4,26.1-20.8,41.5-27.5C104,4.3,123.4,0,143.8,0
		c62,0,114.9,39.3,135.1,94.3c5,13.7,8,28.4,8.7,43.7C287.6,139.9,287.7,141.9,287.7,143.8z"/>
	<g>
		<g>
			<path class="st1" d="M15.1,208c-1-2-1.9-4-2.8-6c-6.5-14.7-10.7-30.8-11.9-47.6c0-0.1,0-0.2,0-0.2c2.9-0.4,6.9,0.9,9.8,9.1
				C13.9,173.9,31.4,199.9,15.1,208z"/>
			<path class="st1" d="M128.1,183.5c-0.2,1.2-0.6,2.3-1.2,3.3c-4.6,8.2-20.5,12.3-38.3,9.2c-15.5-2.7-27.8-10-31.8-18
				c-1.2-2.3-1.6-4.7-1.2-7.1c1.8-10.4,19.2-12.8,39.2-9.4C114.8,165.1,129.9,173.2,128.1,183.5z"/>
			<path class="st1" d="M85.5,115.1C85.4,115.1,85.4,115.1,85.5,115.1c-4,6-16.4,0.5-30.9-8.9c-11.8-7.7-20.2-15.4-20.8-21.2
				c-0.1-1.3,0.1-2.6,0.9-3.7c4-6.1,19.8-6.5,34.3,3C83.4,93.7,89.4,109,85.5,115.1z"/>
			<path class="st1" d="M244.8,203.7c-11.7,9.7-25.6,12.2-31.1,5.6c-0.3-0.3-0.5-0.7-0.8-1.1c-4.2-6.9,0.8-19.3,11.9-28.5
				c11.3-9.4,24.6-12,30.5-6.3c0.2,0.2,0.4,0.4,0.6,0.7C261.5,180.7,256.5,194,244.8,203.7z"/>
			<path class="st1" d="M160.7,123.9c-11.8,9.3-23.8,14.5-30.6,5.8c-0.7-0.8-1.2-1.7-1.7-2.6c-4.3-8.8-0.1-21.5,10.6-29.9
				c11.8-9.3,27.9-13.7,38.8,0.2c0.1,0.1,0.1,0.2,0.2,0.3C184.5,106.1,172.4,114.7,160.7,123.9z"/>
			<path class="st1" d="M113.6,254.1c-1.7,1.6-5.1,2.5-10.4,2.3c-19.5-0.8-40.6-24.5-34.7-32.2c0.1-0.1,0.2-0.2,0.3-0.3
				c6.1-6.9,21.5,5.5,29.3,9.6C111.1,240.3,118.2,249.7,113.6,254.1z"/>
			<path class="st1" d="M190,236.6c0,4.5-6.1,9.2-15.7,9.6c-17.6,0.8-27.6-2.6-30-8.9c-0.3-0.7-0.4-1.4-0.5-2.1
				c-0.8-7.6,15.2-6.3,23.7-6.8C183.4,227.6,189.9,232,190,236.6z"/>
			<path class="st1" d="M243.2,135.6c-1.9,2.9-5.7,4.8-10.5,4.8c-15.2,0-35.5-11-33-21.2c0.3-1.2,0.7-2.2,1.2-3
				c3.9-6.3,13.8-3.2,23.3-1.2C243.3,119.1,247.4,129.5,243.2,135.6z"/>
			<path class="st1" d="M193.8,60.9c-0.2-0.5-0.3-0.9-0.3-1.5c-0.4-4.3,3.9-10.6,12.2-12.9c5.4-1.5,12.7-1.3,17.2,1.5
				c2,1.2,3.4,3,3.9,5.3C228,59.1,196.4,67.6,193.8,60.9z"/>
			<path class="st1" d="M106.9,47.4c-1.1,0.6-2.3,0.5-3.7-0.9c-9.3-9.3-10.2-24.5-5.1-27.1c2-1,3.7-1.3,5.2-1.2
				C113.5,19.4,112.4,44.2,106.9,47.4z"/>
			<path class="st1" d="M266.5,100.7c-0.7,0.3-1.5,0.4-2.3,0.1c-3.5-0.9-8.2-6.4-9.5-14.5c-0.8-4.8,1.6-9.4,4.7-10.9
				c3.5-1.6,7.9,0.6,9.6,10.9C270.1,92.1,269.9,99,266.5,100.7z"/>
			<path class="st1" d="M249.4,241.5c-10.9,11.8-23.8,21.7-38,29.3c-1.6-0.8-3.1-2-3.6-3.6c-0.5-1.5-0.3-3.4,1.3-5.8
				c5.9-9.3,11.8-23.7,25.4-24.5c3.9-0.2,7.1,0.2,9.6,1.1C246.3,238.9,248.1,240.1,249.4,241.5z"/>
			<path class="st1" d="M181.8,282.6c-12.1,3.3-24.8,5.1-38,5.1c-6,0-12-0.4-17.8-1.1c0-1.7,0.3-3.6,1.4-5.1c1-1.5,2.7-2.7,5.4-3.1
				c10.2-1.7,15.2-8.5,29.6-7.6c7.5,0.4,12.7,4.1,15.9,7.5C180,279.9,181.1,281.5,181.8,282.6z"/>
			<path class="st1" d="M163.4,20.5c-0.7,3.6-6.8,4.9-9.8,3.5c-0.6-0.3-1.1-0.7-1.4-1.2c-1.7-3.4,9.4-9.7,11-4.2
				C163.5,19.3,163.5,19.9,163.4,20.5z"/>
		</g>
		<g>
			<path class="st2" d="M119.3,210.7c-3.8-1.9-6.8-3.4-5.9,4.2c0.8,7.6,6.8,9.3,11.8,9.3C130.3,224.2,122.7,212.4,119.3,210.7z"/>
			<path class="st2" d="M49.1,205.6c-3.4-0.8-3.4,5.1-5.9,11c-2.5,5.9,0.8,10.2,5.9,10.2S55.8,207.3,49.1,205.6z"/>
			<path class="st2" d="M33.8,129.5c-3.3-1.5-6.8-3.4-7.6,0c-0.8,3.4,6.8,12.7,11,12.7S43.2,133.7,33.8,129.5z"/>
			<path class="st2" d="M287.7,143.8c0,8.4-0.7,16.6-2.1,24.6c-1.2-0.5-2.5-1.3-3.8-2.6c-8.5-8.5-2-20.5,0-24.5
				c2.3-4.6,4.6-4.1,5.8-3.4C287.6,139.9,287.7,141.9,287.7,143.8z"/>
			<path class="st2" d="M200.5,153.1c-4.9-0.6-7.6,3.4,0,6.8C208.1,163.3,207.3,154,200.5,153.1z"/>
			<path class="st2" d="M18.6,115.1c-2.3,1.1-2.5,5.9,3.4,5.1C27.9,119.3,23.7,112.5,18.6,115.1z"/>
			<path class="st2" d="M138.8,55.8c-2.5,0.8-5.9,3.4,0,4.2C144.7,60.9,141.3,55,138.8,55.8z"/>
			<path class="st2" d="M153.1,55.8c-3.1-1.8-3.4,6.8-0.8,10.2C154.8,69.4,163.3,61.8,153.1,55.8z"/>
			<path class="st2" d="M180.2,256.4c-1.8,0.4-2.5,3.4,2.5,5.1C187.8,263.1,187.8,254.7,180.2,256.4z"/>
			<path class="st2" d="M106.6,270.8c-2.5,0.8-5.1,2.5,0,4.2C111.7,276.7,109.1,269.9,106.6,270.8z"/>
			<path class="st2" d="M110.8,146.4c-4.3,0.2,5.1,5.9,7.6,6.8S128.6,145.5,110.8,146.4z"/>
			<path class="st2" d="M249.6,124.4c-2.1,1.6,1.7,11,5.1,10.2C258.1,133.7,257.2,118.5,249.6,124.4z"/>
		</g>
		<g>
			<path class="st1" d="M181.5,183.7c-0.4,1.4-0.8,2.9-1.3,4.1c-2.5,6.6-17,9.2-20.9,6.2c-0.1-0.1-0.2-0.2-0.3-0.2
				c-3.4-3.4-0.1-11.9,1.7-16.1c2.5-5.9,15.2-10.2,19.5-8.5C183.7,170.6,183.2,177.5,181.5,183.7z"/>
			<path class="st3" d="M33.8,84.9c-0.1-1.3,0.1-2.6,0.9-3.7c4-6.1,19.8-6.5,34.3,3c14.5,9.5,20.5,24.8,16.5,30.9c0,0,0,0,0,0
				c0.2-3.7-1.3-8.9-6.7-16.1C64.6,80.2,38.9,73.7,33.8,84.9z"/>
			<path class="st3" d="M128.1,183.5c-0.2,1.2-0.6,2.3-1.2,3.3c-0.3-1.4-3.5-12.9-17.7-17.6c-14.8-4.9-34.7-9.3-46.5,0
				c-3.8,3-5.4,6-5.9,8.8c-1.2-2.3-1.6-4.7-1.2-7.1c1.8-10.4,19.2-12.8,39.2-9.4C114.8,165.1,129.9,173.2,128.1,183.5z"/>
			<path class="st3" d="M151.5,94.8c-15.7,5.4-22.4,20.8-23,32.3c-4.3-8.8-0.1-21.5,10.6-29.9c11.8-9.3,27.9-13.7,38.8,0.2
				c0.1,0.1,0.1,0.2,0.2,0.3C173.3,93.9,164.7,90.2,151.5,94.8z"/>
			<path class="st3" d="M181.5,183.7c-0.2-6.1-1.7-13.1-8.1-11.1c-6.6,2-14,13.9-14.1,21.4c-0.1-0.1-0.2-0.2-0.3-0.2
				c-3.4-3.4-0.1-11.9,1.7-16.1c2.5-5.9,15.2-10.2,19.5-8.5C183.7,170.6,183.2,177.5,181.5,183.7z"/>
			<path class="st3" d="M243.2,135.6c1.9-11.2-15.9-14.8-24.9-18c-8.8-3.2-14.9-2.1-17.4-1.3c3.9-6.3,13.8-3.2,23.3-1.2
				C243.3,119.1,247.4,129.5,243.2,135.6z"/>
			<path class="st3" d="M193.8,60.9c-0.2-0.5-0.3-0.9-0.3-1.5c5.3,3.5,19,0.7,26.6-2.8c5.4-2.5,4.5-6.1,2.8-8.7c2,1.2,3.4,3,3.9,5.3
				C228,59.1,196.4,67.6,193.8,60.9z"/>
			<path class="st3" d="M106.9,47.4c-1.1,0.6-2.3,0.5-3.7-0.9c-9.3-9.3-10.2-24.5-5.1-27.1c2-1,3.7-1.3,5.2-1.2
				c-2,0.4-5.2,2.2-5.2,9.6C98.1,36.5,102.3,43.6,106.9,47.4z"/>
			<path class="st3" d="M163.4,20.5c-0.3-1.4-1.4-2.8-5.2-1.9c-3.1,0.8-4.2,3.1-4.6,5.4c-0.6-0.3-1.1-0.7-1.4-1.2
				c-1.7-3.4,9.4-9.7,11-4.2C163.5,19.3,163.5,19.9,163.4,20.5z"/>
			<path class="st3" d="M113.6,254.1c-0.7-4.5-4.9-9-12.1-12.9c-9.3-5.1-16.1-10.2-22-14.4c-3.1-2.2-7.4-2.8-10.7-2.9
				c6.1-6.9,21.5,5.5,29.3,9.6C111.1,240.3,118.2,249.7,113.6,254.1z"/>
			<path class="st3" d="M190,236.6c-1.4-3.4-5.5-4.8-12.3-4.8H154c-9.1,0-9.6,5.2-9.6,5.5c-0.3-0.7-0.4-1.4-0.5-2.1
				c-0.8-7.6,15.2-6.3,23.7-6.8C183.4,227.6,189.9,232,190,236.6z"/>
			<path class="st3" d="M178.4,278.2c1.6,1.7,2.7,3.3,3.4,4.4c-12.1,3.3-24.8,5.1-38,5.1c-6,0-12-0.4-17.8-1.1
				c0-1.7,0.3-3.6,1.4-5.1C155.5,288.1,171.7,282,178.4,278.2z"/>
			<path class="st3" d="M249.4,241.5c-10.9,11.8-23.8,21.7-38,29.3c-1.6-0.8-3.1-2-3.6-3.6c23.6-8.8,33.8-24.9,36.2-29.2
				C246.3,238.9,248.1,240.1,249.4,241.5z"/>
			<path class="st3" d="M255.3,173.4c-1.9-0.7-15.4-4.4-31.1,13.6c-7.9,9.1-10.7,16.2-11.3,21.2c-4.2-6.9,0.8-19.3,11.9-28.5
				C236,170.2,249.4,167.6,255.3,173.4z"/>
			<path class="st3" d="M264.2,100.8c-3.5-0.9-8.2-6.4-9.5-14.5c-0.8-4.8,1.6-9.4,4.7-10.9c-1.4,1.8-2.6,4.5-2.2,8.3
				C257.9,89.9,260.2,96,264.2,100.8z"/>
			<path class="st3" d="M15.1,208c-1-2-1.9-4-2.8-6c4-3.7,8-10.4,3-20.9C9,167.9,6,156.7,0.4,154.4c0-0.1,0-0.2,0-0.2
				c2.9-0.4,6.9,0.9,9.8,9.1C13.9,173.9,31.4,199.9,15.1,208z"/>
		</g>
	</g>
	
		<linearGradient id="SVGID_00000003074539471390079450000001068928143015191945_" gradientUnits="userSpaceOnUse" x1="20.9694" y1="219.8777" x2="275.3596" y2="100.8614">
		<stop  offset="0" style="stop-color:#E27436"/>
		<stop  offset="1" style="stop-color:#E27436;stop-opacity:0.2"/>
	</linearGradient>
	<path style="opacity:0.35;fill:url(#SVGID_00000003074539471390079450000001068928143015191945_);" d="M287.7,143.8
		c0,8.4-0.7,16.6-2.1,24.6c-4.8,27.9-17.7,53.1-36.2,73.1c-10.9,11.8-23.8,21.7-38,29.3c-9.3,5-19.2,8.9-29.6,11.7
		c-12.1,3.3-24.8,5.1-38,5.1c-6,0-12-0.4-17.8-1.1c-48.7-6-89.9-36.4-111-78.6c-8.2-16.4-13.4-34.6-14.7-53.9
		c-0.2-3.4-0.4-6.8-0.4-10.3c0-21.7,4.8-42.3,13.4-60.7C14.8,207.7,272,239,278.9,94.3c5,13.7,8,28.4,8.7,43.7
		C287.6,139.9,287.7,141.9,287.7,143.8z"/>
	
		<linearGradient id="SVGID_00000091709202537023006720000003072361320550375347_" gradientUnits="userSpaceOnUse" x1="116.0461" y1="351.8986" x2="114.6425" y2="-4.5861">
		<stop  offset="0" style="stop-color:#CC622E"/>
		<stop  offset="1" style="stop-color:#CC622E;stop-opacity:0.2"/>
	</linearGradient>
	<path style="opacity:0.45;fill:url(#SVGID_00000091709202537023006720000003072361320550375347_);" d="M230.9,258.3
		c-6.1,4.7-12.7,8.9-19.5,12.5c-9.3,5-19.2,8.9-29.6,11.7c-12.1,3.3-24.8,5.1-38,5.1c-6,0-12-0.4-17.8-1.1
		c-48.7-6-89.9-36.4-111-78.6c-8.2-16.4-13.4-34.6-14.7-53.9c-0.2-3.4-0.4-6.8-0.4-10.3c0-21.7,4.8-42.3,13.4-60.7
		c7.7-16.5,18.4-31.3,31.5-43.6C4.7,230.9,152.3,257.4,230.9,258.3z"/>
	
		<linearGradient id="SVGID_00000111185584150760283270000001008031645631822749_" gradientUnits="userSpaceOnUse" x1="271.7858" y1="-6.352105e-02" x2="184.2726" y2="96.8995">
		<stop  offset="0" style="stop-color:#FFF2B6"/>
		<stop  offset="1" style="stop-color:#FEF39B;stop-opacity:0.2"/>
	</linearGradient>
	<path style="fill:url(#SVGID_00000111185584150760283270000001008031645631822749_);" d="M287.7,143.8c0,8.4-0.7,16.6-2.1,24.6
		c-0.7,4.3-1.7,8.5-2.8,12.7C277.8,65.5,199.4-0.3,86.4,11.9C104,4.3,123.4,0,143.8,0c62,0,114.9,39.3,135.1,94.3
		c5,13.7,8,28.4,8.7,43.7C287.6,139.9,287.7,141.9,287.7,143.8z"/>
</g>
<g>
	<path class="st7" d="M149.8,117.2l4.8-3.1c-0.5-2.6-1.3-5.1-2.3-7.4l-5.7,0.4c-0.6-1-1.2-2-1.8-2.9l2.6-5.2c-1.7-2-3.6-3.7-5.6-5.2
		l-4.7,3.3c-1-0.6-2-1.1-3-1.6l-0.2-5.9c-2.4-0.8-4.8-1.4-7.4-1.6l-2.5,5.3c-0.8,0-1.7,0-2.5,0.1c-0.3,0-0.6,0.1-0.9,0.1l-3-5
		c-2.5,0.5-4.9,1.3-7.2,2.4l0.4,5.9c-1,0.6-1.9,1.2-2.8,1.9l-5-2.7c-1.9,1.7-3.6,3.7-5,5.8l3.2,4.9c-0.6,1-1.1,2-1.5,3.1l-5.6,0.2
		c-0.8,2.4-1.3,5-1.5,7.6l5.1,2.5c0,0.9,0,1.7,0.1,2.6c0,0.3,0.1,0.6,0.1,0.9l-4.8,3.1c0.5,2.6,1.3,5.1,2.3,7.4l5.6-0.4
		c0.6,1,1.2,2,1.8,2.9l-2.6,5.2c1.7,2,3.6,3.7,5.6,5.2l4.7-3.3c1,0.6,2,1.1,3,1.6l0.2,5.9c2.4,0.8,4.8,1.4,7.4,1.6l2.5-5.3
		c0.8,0,1.7,0,2.5-0.1c0.3,0,0.6-0.1,0.9-0.1l3,5c2.5-0.5,4.9-1.3,7.2-2.4l-0.4-5.9c1-0.6,1.9-1.2,2.8-1.9l5,2.7
		c1.9-1.7,3.6-3.7,5-5.8l-3.2-4.9c0.6-1,1.1-2,1.5-3.1l5.6-0.2c0.8-2.4,1.3-5,1.5-7.6l-5.1-2.6c0-0.9,0-1.7-0.1-2.6
		C149.9,117.8,149.8,117.5,149.8,117.2 M136.7,119.2c0.6,7.4-4.6,13.9-11.8,14.5c-7.1,0.6-13.4-4.8-14-12.2
		c-0.6-7.4,4.6-13.9,11.8-14.5C129.8,106.4,136.1,111.9,136.7,119.2"/>
	<path class="st7" d="M187.3,132c-0.8-0.9-1.6-1.7-2.4-2.4l1-4.3c-1.5-1.1-3.1-1.9-4.7-2.6l-2.9,3.3c-1.1-0.4-2.2-0.6-3.3-0.8
		l-1.2-4.3c-1.8-0.1-3.6-0.1-5.3,0.2l-0.9,4.3c-1.1,0.2-2.1,0.6-3.2,1l-3.1-3.1c-0.8,0.4-1.6,0.8-2.4,1.3c-0.8,0.5-1.5,1-2.2,1.6
		l1.3,4.2c-0.8,0.8-1.6,1.6-2.3,2.5l-4.1-1.1c-1,1.5-1.9,3.2-2.5,4.9l3.2,3c-0.3,1.1-0.6,2.2-0.8,3.4l-4.1,1.2
		c-0.1,1.8-0.1,3.7,0.2,5.5l4.2,0.9c0.2,1.1,0.6,2.2,1,3.3l-3,3.2c0.4,0.8,0.8,1.6,1.3,2.4c0.5,0.8,1,1.6,1.5,2.3l4.1-1.4
		c0.8,0.9,1.6,1.7,2.4,2.4l-1,4.3c1.5,1,3.1,1.9,4.7,2.6l2.9-3.3c1.1,0.4,2.2,0.6,3.3,0.8l1.2,4.3c1.8,0.1,3.6,0.1,5.3-0.2l0.9-4.3
		c1.1-0.2,2.2-0.6,3.2-1l3.1,3.1c0.8-0.4,1.6-0.8,2.3-1.3c0.8-0.5,1.5-1,2.2-1.6l-1.3-4.2c0.8-0.8,1.6-1.6,2.3-2.5l4.1,1.1
		c1-1.5,1.9-3.2,2.5-4.9l-3.2-3c0.3-1.1,0.6-2.2,0.8-3.4l4.1-1.2c0.1-1.8,0.1-3.7-0.2-5.5l-4.2-0.9c-0.2-1.1-0.6-2.2-1-3.3l3-3.2
		c-0.4-0.8-0.8-1.6-1.3-2.4c-0.5-0.8-1-1.5-1.5-2.3L187.3,132z M179.8,141.9c2.7,4.5,1.4,10.5-3,13.3c-4.4,2.8-10.1,1.4-12.8-3.1
		c-2.7-4.5-1.4-10.5,3-13.3C171.3,136,177.1,137.4,179.8,141.9"/>
	<path class="st7" d="M32.2,210.8v8.8c0,4.8,3.5,8.7,7.7,8.7h207.9c4.3,0,7.7-3.9,7.7-8.7v-8.8H32.2z M159.2,221h-30.8
		c-1.2,0-2.1-1-2.1-2.3c0-1.2,0.9-2.3,2.1-2.3h30.8c1.2,0,2.1,1,2.1,2.3C161.3,220,160.4,221,159.2,221"/>
	<path class="st7" d="M235.7,59.5H52c-3.8,0-6.8,2.9-6.8,6.6v132.7c0,3.6,3.1,6.6,6.8,6.6h183.7c3.8,0,6.8-3,6.8-6.6V66.1
		C242.5,62.4,239.5,59.5,235.7,59.5 M223.5,183.4c0,2.8-2.5,5.1-5.5,5.1H69.7c-3,0-5.5-2.3-5.5-5.1v-102c0-2.8,2.5-5.1,5.5-5.1H218
		c3.1,0,5.5,2.3,5.5,5.1V183.4z"/>
</g>
</svg>
